<?xml version="1.0" encoding="UTF-8"?>
<svg id="Layer_2" data-name="Layer 2" xmlns="http://www.w3.org/2000/svg" viewBox="0 0 236.19 390.32">
  <defs>
    <style>
      .cls-1 {
        fill: #4c8798;
      }

      .cls-1, .cls-2, .cls-3, .cls-4, .cls-5 {
        stroke: #000;
      }

      .cls-1, .cls-2, .cls-3, .cls-4, .cls-5, .cls-6 {
        stroke-miterlimit: 10;
      }

      .cls-1, .cls-2, .cls-4, .cls-5, .cls-6 {
        stroke-width: 2px;
      }

      .cls-2 {
        fill: none;
        stroke-linecap: round;
      }

      .cls-3 {
        fill: #f05fb0;
      }

      .cls-4 {
        fill: #ff6800;
      }

      .cls-5 {
        fill: #63c572;
      }

      .cls-6 {
        fill: #ee587d;
        stroke: #141213;
      }

      .cls-7 {
        fill: #f5b9bb;
      }
    </style>
  </defs>
  <g id="blue-plunger-snout">
    <g id="lite-blu-plunger">
      <g>
        <path d="M30.2,86.67c1.37,17.47,1.38,35.05,0,52.52-1.38-17.47-1.37-35.05,0-52.52h0Z"/>
        <path d="M21.18,86.67c1.37,17.47,1.38,35.05,0,52.52-1.38-17.47-1.37-35.05,0-52.52h0Z"/>
      </g>
      <line class="cls-2" x1="25.69" y1="306.49" x2="25.69" y2="104.73"/>
      <rect class="cls-5" x="16.42" y="75.72" width="18.54" height="34.96" rx="2.73" ry="2.73" transform="translate(51.38 186.39) rotate(180)"/>
    </g>
    <g id="plunger-sheath">
      <path id="plunger-sheath-2" data-name="plunger-sheath" class="cls-1" d="M25.69,389.32h0c5.12,0,9.27-4.15,9.27-9.27v-192c0-4.03-18.54-4.03-18.54,0v192c0,5.12,4.15,9.27,9.27,9.27Z"/>
      <path class="cls-1" d="M25.69,159.31h0c5.12,0,9.27,4.15,9.27,9.27v13.74c0,1.49-1.21,2.71-2.71,2.71h-13.12c-1.49,0-2.71-1.21-2.71-2.71v-13.74c0-5.12,4.15-9.27,9.27-9.27Z" transform="translate(51.38 344.33) rotate(-180)"/>
    </g>
    <g id="spines">
      <path class="cls-3" d="M217.53,326.24c4.86.72,10.13.26,15.04-.63,2.97-.53,4.01-4.85.27-4.96-4.36.27-8.77.94-13.11.76-.78,0-1.63.02-2.35.25-2.27.58-2.25,3.86-.02,4.51l.17.06Z"/>
      <path class="cls-3" d="M217.53,315.31c4.86.72,10.13.26,15.04-.63,2.97-.53,4.01-4.85.27-4.96-4.36.27-8.77.94-13.11.76-.78,0-1.63.02-2.35.25-2.27.58-2.25,3.86-.02,4.51l.17.06Z"/>
      <path class="cls-3" d="M217.53,304.38c4.86.72,10.13.26,15.04-.63,2.97-.53,4.01-4.85.27-4.96-4.36.27-8.77.94-13.11.76-.78,0-1.63.02-2.35.25-2.27.58-2.25,3.86-.02,4.51l.17.06Z"/>
      <path class="cls-3" d="M217.53,293.45c4.86.72,10.13.26,15.04-.63,2.97-.53,4.01-4.85.27-4.96-4.36.27-8.77.94-13.11.76-.78,0-1.63.02-2.35.25-2.27.58-2.25,3.86-.02,4.51l.17.06Z"/>
      <path class="cls-3" d="M217.53,282.52c4.86.72,10.13.26,15.04-.63,2.97-.53,4.01-4.85.27-4.96-4.36.27-8.77.94-13.11.76-.78,0-1.63.02-2.35.25-2.27.58-2.25,3.86-.02,4.51l.17.06Z"/>
      <path class="cls-3" d="M217.53,271.59c4.86.72,10.13.26,15.04-.63,2.97-.53,4.01-4.85.27-4.96-4.36.27-8.77.94-13.11.76-.78,0-1.63.02-2.35.25-2.27.58-2.25,3.86-.02,4.51l.17.06Z"/>
      <path class="cls-3" d="M217.53,260.66c4.86.72,10.13.26,15.04-.63,2.97-.53,4.01-4.85.27-4.96-4.36.27-8.77.94-13.11.76-.78,0-1.63.02-2.35.25-2.27.58-2.25,3.86-.02,4.51l.17.06Z"/>
      <path class="cls-3" d="M217.53,249.73c4.86.72,10.13.26,15.04-.63,2.97-.53,4.01-4.85.27-4.96-4.36.27-8.77.94-13.11.76-.78,0-1.63.02-2.35.25-2.27.58-2.25,3.86-.02,4.51l.17.06Z"/>
      <path class="cls-3" d="M217.53,238.8c4.86.72,10.13.26,15.04-.63,2.97-.53,4.01-4.85.27-4.96-4.36.27-8.77.94-13.11.76-.78,0-1.63.02-2.35.25-2.27.58-2.25,3.86-.02,4.51l.17.06Z"/>
      <path class="cls-3" d="M217.53,228.71c4.86.72,10.13.26,15.04-.63,2.97-.53,4.01-4.85.27-4.96-4.36.27-8.77.94-13.11.76-.78,0-1.63.02-2.35.25-2.27.58-2.25,3.86-.02,4.51l.17.06Z"/>
      <path class="cls-3" d="M217.53,218.06c4.86.72,10.13.26,15.04-.63,2.97-.53,4.01-4.85.27-4.96-4.36.27-8.77.94-13.11.76-.78,0-1.63.02-2.35.25-2.27.58-2.25,3.86-.02,4.51l.17.06Z"/>
      <path class="cls-3" d="M217.53,207.41c4.86.72,10.13.26,15.04-.63,2.97-.53,4.01-4.85.27-4.96-4.36.27-8.77.94-13.11.76-.78,0-1.63.02-2.35.25-2.27.58-2.25,3.86-.02,4.51l.17.06Z"/>
      <path class="cls-3" d="M217.53,196.28c4.86.72,10.13.26,15.04-.63,2.97-.53,4.01-4.85.27-4.96-4.36.27-8.77.94-13.11.76-.78,0-1.63.02-2.35.25-2.27.58-2.25,3.86-.02,4.51l.17.06Z"/>
      <path class="cls-3" d="M217.46,185.49c4.84.86,10.12.56,15.05-.18,2.99-.44,4.15-4.73.41-4.95-4.37.14-8.8.67-13.13.37-.78-.02-1.63-.03-2.35.18-2.28.51-2.36,3.79-.15,4.51l.17.06Z"/>
      <path class="cls-3" d="M217.46,175.17c4.84.86,10.12.56,15.05-.18,2.99-.44,4.15-4.73.41-4.95-4.37.14-8.8.67-13.13.37-.78-.02-1.63-.03-2.35.18-2.28.51-2.36,3.79-.15,4.51l.17.06Z"/>
      <path class="cls-3" d="M217.88,163.89c4.84.86,10.12.56,15.05-.18,2.99-.44,4.15-4.73.41-4.95-4.37.14-8.8.67-13.13.37-.78-.02-1.63-.03-2.35.18-2.28.51-2.36,3.79-.15,4.51l.17.06Z"/>
      <path class="cls-3" d="M217.46,153.1c4.84.86,10.12.56,15.05-.18,2.99-.44,4.15-4.73.41-4.95-4.37.14-8.8.67-13.13.37-.78-.02-1.63-.03-2.35.18-2.28.51-2.36,3.79-.15,4.51l.17.06Z"/>
      <path class="cls-3" d="M217.35,141.97c4.8,1.07,10.09.99,15.05.46,3-.32,4.35-4.55.62-4.92-4.37-.05-8.82.3-13.13-.18-.78-.06-1.62-.1-2.36.08-2.3.41-2.52,3.69-.34,4.5l.17.07Z"/>
      <path class="cls-3" d="M217.35,131.26c4.8,1.07,10.09.99,15.05.46,3-.32,4.35-4.55.62-4.92-4.37-.05-8.82.3-13.13-.18-.78-.06-1.62-.1-2.36.08-2.3.41-2.52,3.69-.34,4.5l.17.07Z"/>
      <path class="cls-3" d="M217.35,120.55c4.8,1.07,10.09.99,15.05.46,3-.32,4.35-4.55.62-4.92-4.37-.05-8.82.3-13.13-.18-.78-.06-1.62-.1-2.36.08-2.3.41-2.52,3.69-.34,4.5l.17.07Z"/>
      <path class="cls-3" d="M217.35,109.85c4.8,1.07,10.09.99,15.05.46,3-.32,4.35-4.55.62-4.92-4.37-.05-8.82.3-13.13-.18-.78-.06-1.62-.1-2.36.08-2.3.41-2.52,3.69-.34,4.5l.17.07Z"/>
      <path class="cls-3" d="M217.45,99.52c4.85.84,10.13.51,15.05-.25,2.99-.46,4.13-4.75.39-4.95-4.37.16-8.79.72-13.13.44-.78-.02-1.63-.03-2.35.19-2.28.52-2.34,3.81-.13,4.51l.17.06Z"/>
      <path class="cls-3" d="M217.47,88.7c4.85.84,10.13.51,15.05-.25,2.99-.46,4.13-4.75.39-4.95-4.37.16-8.79.72-13.13.44-.78-.02-1.63-.03-2.35.19-2.28.52-2.34,3.81-.13,4.51l.17.06Z"/>
      <path class="cls-3" d="M217.47,77.28c4.85.84,10.13.51,15.05-.25,2.99-.46,4.13-4.75.39-4.95-4.37.16-8.79.72-13.13.44-.78-.02-1.63-.03-2.35.19-2.28.52-2.34,3.81-.13,4.51l.17.06Z"/>
      <path class="cls-3" d="M218.74,68.71c4.92-.07,10.04-1.38,14.74-3.04,2.85-1.01,3.17-5.44-.54-4.93-4.26.97-8.51,2.34-12.82,2.87-.77.12-1.6.28-2.27.63-2.14.93-1.59,4.17.71,4.46l.18.03Z"/>
      <path class="cls-3" d="M218.85,59.94c4.85-.84,9.71-2.92,14.09-5.29,2.66-1.44,2.29-5.86-1.29-4.79-4.06,1.61-8.04,3.63-12.22,4.82-.74.24-1.54.52-2.15.97-1.97,1.26-.93,4.37,1.39,4.29h.18Z"/>
      <path class="cls-3" d="M214.88,49.46c4.67-1.54,9.17-4.32,13.16-7.31,2.42-1.81,1.41-6.14-1.99-4.55-3.78,2.19-7.42,4.77-11.38,6.56-.7.35-1.45.74-1.98,1.28-1.77,1.53-.27,4.46,2.01,4.04l.18-.02Z"/>
      <path class="cls-3" d="M210.38,40.92c4.54-1.88,8.83-4.99,12.58-8.27,2.28-1.99.94-6.22-2.32-4.39-3.61,2.47-7.04,5.31-10.85,7.39-.67.4-1.39.85-1.88,1.42-1.65,1.66.06,4.47,2.3,3.88l.18-.04Z"/>
      <path class="cls-3" d="M203.14,33.43c4.43-2.12,8.55-5.45,12.12-8.93,2.17-2.11.61-6.27-2.55-4.26-3.47,2.66-6.75,5.68-10.44,7.96-.65.43-1.34.92-1.8,1.52-1.56,1.75.3,4.46,2.51,3.75l.17-.05Z"/>
      <path class="cls-3" d="M195.23,26.94c4.22-2.53,8-6.23,11.23-10.02,1.96-2.3.02-6.29-2.94-4-3.21,2.97-6.19,6.29-9.65,8.91-.6.49-1.25,1.04-1.65,1.68-1.39,1.88.71,4.41,2.85,3.5l.17-.06Z"/>
      <path class="cls-3" d="M188.32,23.32c3.63-3.32,6.6-7.69,9.02-12.05,1.47-2.64-1.23-6.17-3.67-3.34-2.55,3.55-4.82,7.39-7.7,10.64-.49.6-1.02,1.27-1.29,1.98-.99,2.12,1.57,4.18,3.48,2.87l.15-.1Z"/>
    </g>
    <path id="neck" class="cls-1" d="M153.17,335.69c2.88,3.21,6.99,5.3,11.58,5.54h.03c6.74-.38,12.09-5.97,12.09-12.8V84.68c0-11.64-9.43-21.07-21.07-21.07h-22.71c-1.69,0-3.38-.13-5.05-.38l-17.84-2.73c-26.98-4.11-33.14-40.24-9.05-53.06,4.86-2.59,10.27-3.93,15.74-3.93,1.23,0,2.47.07,3.71.21l33.78,3.79c3.78.43,7.59.67,11.39.88,35.78,2.05,60.45,27.42,60.45,64.14v267.02c0,27.49-22.28,49.77-49.77,49.77h-8.34c-9.2,0-18.38-1.2-27.19-3.87-69.83-21.12-17.83-94.6,12.26-49.76Z"/>
    <g id="base-body">
      <path class="cls-1" d="M63.25,259.55c17.08-21.24,40.26-36.96,64.86-40.52.48-.07.97-.1,1.45-.09,10.72.38,19.29,9.19,19.29,20.01v71.98c0,9.34,1.5,18.62,4.46,27.48.4,1.2.8,2.41,1.2,3.61.48,1.44,1.01,2.85,1.54,4.27,2.94,7.77,4.68,15.71,5.09,21.72.07,1.04.12,2.09.15,3.14.03,1.26.03,2.51,0,3.77,0,.05,0,.1,0,.15-.26,7.98-6.94,14.26-14.93,14.26H43.12c-4.51,0-8.16-3.65-8.16-8.16v-47.13c0-25.93,11.04-53.02,28.29-74.48Z"/>
      <path class="cls-1" d="M41.43,377.45v3.71c0,4.51,3.65,8.16,8.16,8.16h102.99c4.07,0,7.52-3,8.09-7.03.34-2.44.55-4.91.62-7.38.04-1.26.04-2.51,0-3.77-.03-1.05-.08-2.1-.15-3.14-.45-6.55-2.47-15.41-5.93-23.83-2.05-7.47-5.82-14.3-6.23-22.1-.34-9.41,0-19.11-.21-28.57-.14-6.29-1.72-12.52-4.97-17.92-2.08-3.47-4.8-6.67-8.5-9.51-.03-.02-.05-.04-.08-.06-3.82-2.9-8.76-3.96-13.45-2.95-43.01,9.23-80.36,64.03-80.36,114.41Z"/>
      <path class="cls-1" d="M66.48,389.32s86.09,0,86.1,0c16.58,0,5.66-31.55,3.89-39.24,0-.02,0-.04-.01-.07-.89-3.86-1.98-7.67-3.18-11.45-1.96-6.21-3.42-12.56-4.22-19.05-.52-4.25-1.32-8.46-2.62-12.54-1.94-6.11-4.83-11.68-10.3-16.23-2.25-1.88-5.23-3.35-8.12-3.35-12.06,0-22.15,8.45-30.74,16.08-9.01,8.01-16.8,17.39-22.95,27.76-8.8,14.85-14.33,31.88-15.98,49.15-.46,4.79,3.32,8.93,8.13,8.93Z"/>
      <path class="cls-1" d="M75.59,375.18c2.56-7.82,7.25-14.74,11.87-21.54,4.94-7.26,9.91-14.56,15.93-20.95,3.95-4.18,8.36-7.97,13.3-10.93,17.81-10.66,31.05,4.54,38.29,21.82,3.6,8.6,5.71,17.72,6.17,24.42.07,1.04.12,2.09.15,3.14.03,1.26.03,2.51,0,3.77-.08,2.47-.28,4.94-.62,7.38-.57,4.03-4.02,7.03-8.09,7.03h-70.15c-5.14,0-9.05-4.71-8.01-9.75.32-1.53.72-3,1.17-4.39Z"/>
    </g>
    <rect id="snout" class="cls-6" x="1" y="24.06" width="110.8" height="29.82" rx="14.91" ry="14.91" transform="translate(112.8 77.93) rotate(-180)"/>
    <circle id="head" class="cls-1" cx="99.27" cy="40.12" r="39.12"/>
    <circle id="eyeball" class="cls-4" cx="98.05" cy="38.9" r="17.26"/>
    <g id="pupil">
      <circle cx="98.41" cy="38.54" r="8"/>
      <g>
        <circle class="cls-7" cx="97.58" cy="38.9" r="1.5"/>
        <circle class="cls-7" cx="100.85" cy="35.99" r=".85"/>
      </g>
    </g>
  </g>
</svg>