<?xml version="1.0" encoding="UTF-8"?>
<svg xmlns="http://www.w3.org/2000/svg" xmlns:xlink="http://www.w3.org/1999/xlink" viewBox="0 0 551.4 346.34">
  <defs>
    <style>
      .cls-1 {
        fill: #eb5f25;
      }

      .cls-1, .cls-2, .cls-3, .cls-4, .cls-5, .cls-6, .cls-7, .cls-8, .cls-9 {
        stroke: #0d0301;
      }

      .cls-1, .cls-2, .cls-3, .cls-6, .cls-7, .cls-8, .cls-9 {
        stroke-width: 1.5px;
      }

      .cls-1, .cls-10, .cls-11, .cls-12, .cls-5, .cls-7, .cls-13, .cls-14, .cls-8, .cls-15, .cls-16 {
        stroke-miterlimit: 10;
      }

      .cls-2 {
        fill: #fcfcea;
      }

      .cls-2, .cls-3, .cls-4, .cls-6, .cls-17, .cls-9 {
        stroke-linejoin: round;
      }

      .cls-3 {
        fill: #373428;
      }

      .cls-10 {
        fill: #0d0301;
        stroke: #f8ca4c;
      }

      .cls-11 {
        fill: #883913;
        mix-blend-mode: color-burn;
      }

      .cls-11, .cls-13 {
        stroke: #511f05;
      }

      .cls-18 {
        isolation: isolate;
      }

      .cls-12, .cls-19 {
        fill: #100c08;
      }

      .cls-12, .cls-15, .cls-16 {
        stroke: #0f0b07;
      }

      .cls-20 {
        clip-path: url(#clippath-1);
      }

      .cls-21 {
        clip-path: url(#clippath-3);
      }

      .cls-22 {
        clip-path: url(#clippath-2);
      }

      .cls-4 {
        fill: #cd8943;
      }

      .cls-5 {
        fill: #fefef3;
      }

      .cls-6 {
        fill: #f7b224;
      }

      .cls-23, .cls-17 {
        fill: #eac477;
      }

      .cls-7 {
        fill: #fbf8e8;
      }

      .cls-13 {
        fill: #bb4b22;
      }

      .cls-14 {
        fill: #e95d24;
        stroke: #4e4d45;
      }

      .cls-24 {
        fill: #ebc679;
      }

      .cls-8 {
        fill: #7b884e;
      }

      .cls-25 {
        fill: #ea5f26;
      }

      .cls-15 {
        fill: none;
      }

      .cls-17 {
        stroke: #15120e;
      }

      .cls-16 {
        fill: #fffdf7;
      }

      .cls-26 {
        clip-path: url(#clippath);
      }

      .cls-9 {
        fill: #3d8b60;
      }

      .cls-27 {
        fill: #be9ebe;
      }
    </style>
    <clipPath id="clippath">
      <circle class="cls-12" cx="176.47" cy="308.72" r="13.38"/>
    </clipPath>
    <clipPath id="clippath-1">
      <circle class="cls-12" cx="244.06" cy="308.72" r="13.38"/>
    </clipPath>
    <clipPath id="clippath-2">
      <circle class="cls-12" cx="111.85" cy="308.72" r="13.38"/>
    </clipPath>
    <clipPath id="clippath-3">
      <circle class="cls-12" cx="52.13" cy="308.72" r="13.38"/>
    </clipPath>
  </defs>
  <g class="cls-18">
    <g id="Layer_2" data-name="Layer 2">
      <g id="bb-hinge-jaw">
        <g id="shell">
          <path class="cls-6" d="M7.18,167.98h240.28v59.27c0,35.72-29,64.72-64.72,64.72H7.18v-124h0Z" transform="translate(254.64 459.96) rotate(180)"/>
          <rect class="cls-14" x="49.08" y="207.75" width="132.69" height="20.23" rx="8.26" ry="8.26" transform="translate(230.85 435.73) rotate(180)"/>
          <path class="cls-5" d="M192.1,217.86h0c0,11.11-9,20.11-20.11,20.11H58.86c-11.11,0-20.11-9-20.11-20.11h0c0-11.11,9-20.11,20.11-20.11h113.13c11.11,0,20.11,9,20.11,20.11ZM58.54,231.26h113.78c7.4,0,13.39-6,13.39-13.39h0c0-7.4-6-13.39-13.39-13.39H58.54c-7.4,0-13.39,6-13.39,13.39h0c0,7.4,6,13.39,13.39,13.39Z"/>
        </g>
        <path id="top-jaw" class="cls-9" d="M547.07,97.81l-37.71-30.91,13.78-10.47c6.48-4.92,3-15.25-5.14-15.25h-47.08c-1.52,0-2.97.64-4,1.76l-20.03,21.84c-.27.29-.65.46-1.05.46h-146.34v49.84h241.41c9.14,0,13.24-11.47,6.17-17.26Z"/>
        <g id="body">
          <path class="cls-7" d="M161.97,345.59H18.26c-9.67,0-17.51-7.84-17.51-17.51v-53.89h161.22"/>
          <path class="cls-3" d="M309.1,58.51c0-12.94-10.17-23.44-22.72-23.44h-5.35l-.27,14.5c-.36-.04-.23,0,.14.06-.51-.07-1.02-.14-1.53-.21-.07,0-.14-.01-.21-.02-.1-.01-.21-.02-.3-.02-.31-.03-.61-.06-.91-.08-4.2-.34-8.49-.06-12.49.66-8.89,1.27-17.22,5.49-24.1,12.71-.13.14-.27.29-.39.43-9.41,10.79-14.35,27.23-14.35,47.24l-.29,59.39-.22,43.99c0,33.89-27.48,60.49-61.36,60.49H10.37c-1.76,0-3.19,1.44-3.19,3.19v46.61c0,11.92,9.66,21.58,21.58,21.58h226.85c19.5,0,35.32-15.81,35.32-35.32v-167.92c1.28-8.06,2.7-15.24,15.77-26.48,1.16-.99,2.41-1.87,2.4-3.39v-3.51h0v-50.46Z"/>
          <path class="cls-2" d="M28.75,345.58c-11.92,0-21.58-9.66-21.58-21.58v-46.61c0-1.76,1.44-3.19,3.19-3.19h154.38c33.88,0,61.36-26.6,61.36-60.49l.22-43.99.29-59.39c0-20.01,4.94-36.45,14.35-47.24.13-.14.27-.29.39-.43,6.88-7.22,15.21-11.44,24.1-12.71,4-.72,8.29-.99,12.49-.66.3.02.6.05.91.08.09,0,.2.01.3.02.07.01.14.02.21.02.51.06,1.02.13,1.53.21-.37-.06-.5-.1-.14-.06l.27-14.5h-3.49c-33.68,0-60.98,27.3-60.98,60.98v118.11c0,28.37-23,51.37-51.37,51.37H4.97c-2.33,0-4.22,1.89-4.22,4.22v58.34c0,9.67,7.84,17.51,17.51,17.51h229.25c.06,0,.12,0,.18,0H28.75Z"/>
        </g>
        <circle id="freckle02" class="cls-4" cx="295.1" cy="108.34" r="4.13"/>
        <circle id="freckle01" class="cls-4" cx="295.36" cy="54.48" r="4.13"/>
        <path id="lower-jaw" class="cls-1" d="M549.45,155.81c-.03,8.98-7.65,16.1-16.63,16.1,0,0-241.75,0-241.9,0-2.46,0-.41-30.3.06-33.04,4.01-23.31,23.82-38.51,47.26-38.51,15.85,0,29.83,7.11,38.12,17.93,10.09,13.17,25.4,21.3,42,21.3h114.93c4.46,0,8.5,1.82,11.43,4.73,2.94,2.94,4.74,6.99,4.73,11.48Z"/>
        <circle id="eyeball" class="cls-7" cx="273.15" cy="85.15" r="13.23"/>
        <g id="pupil">
          <circle class="cls-8" cx="273.57" cy="85.57" r="7.89"/>
          <circle id="pupil-2" data-name="pupil" class="cls-10" cx="273.57" cy="85.57" r="3.92"/>
        </g>
        <g id="hair">
          <path class="cls-17" d="M311.87,17.78v1.12c0,6.93-4.08,12.88-9.96,15.65-3.39,1.48-5.36,2.15-7.01,2.64h-19.32c-32.48,0-58.8,26.38-58.75,58.86.03,18.2-.01,34.25-.28,36.99-.14,1.49-.49,3.04-.95,4.53-.03,10.16-8.52,18.33-18.8,17.82-9.17-.45-16.65-8.06-16.98-17.23-.32-9.09,6.14-16.72,14.72-18.25-6.19-.67-12.1-10.04-10.84-19.32,1.24-9.18,9.47-16.03,15.33-15.76-.93-.02-3.65-3.36-4.24-4.03-5.91-6.64-7.9-17.1-1.54-24.14,2.36-2.62,5.44-4.47,8.7-5.75,2.77-1.09,6.4-1.84,7.74-4.88,1.57-3.58.43-9.59.43-13.48,0-16.6,13.54-29.24,31.97-31.69,2.06-.27,4.15-.35,6.23-.35h46.26c9.54,0,17.28,7.74,17.28,17.28Z"/>
          <path class="cls-13" d="M204.25,57.57c-5.29,0-9.58,4.29-9.58,9.58s4.29,9.58,9.58,9.58,9.58-4.29,9.58-9.58-4.29-9.58-9.58-9.58ZM204.25,72.71c-3.07,0-5.56-2.49-5.56-5.56s2.49-5.56,5.56-5.56,5.56,2.49,5.56,5.56-2.49,5.56-5.56,5.56Z"/>
          <path class="cls-13" d="M197.71,94.87c-3.61,0-6.54,2.93-6.54,6.54s2.93,6.54,6.54,6.54,6.54-2.93,6.54-6.54-2.93-6.54-6.54-6.54ZM197.71,104.45c-1.68,0-3.03-1.36-3.03-3.03s1.36-3.03,3.03-3.03,3.03,1.36,3.03,3.03-1.36,3.03-3.03,3.03Z"/>
          <path class="cls-13" d="M226.38,16.26c-3.74,0-6.78,3.04-6.78,6.78s3.04,6.78,6.78,6.78,6.78-3.04,6.78-6.78-3.04-6.78-6.78-6.78ZM226.38,26.18c-1.74,0-3.14-1.41-3.14-3.14s1.41-3.14,3.14-3.14,3.14,1.41,3.14,3.14-1.41,3.14-3.14,3.14Z"/>
          <path class="cls-13" d="M257.08,8.84c-3.74,0-6.78,3.04-6.78,6.78s3.04,6.78,6.78,6.78,6.78-3.04,6.78-6.78-3.04-6.78-6.78-6.78ZM257.08,19.06c-1.9,0-3.45-1.54-3.45-3.45s1.54-3.45,3.45-3.45,3.45,1.54,3.45,3.45-1.54,3.45-3.45,3.45Z"/>
          <path class="cls-13" d="M288.13,9.48c-3.74,0-6.78,3.04-6.78,6.78s3.04,6.78,6.78,6.78,6.78-3.04,6.78-6.78-3.04-6.78-6.78-6.78ZM288.13,19.48c-1.78,0-3.22-1.44-3.22-3.22s1.44-3.22,3.22-3.22,3.22,1.44,3.22,3.22-1.44,3.22-3.22,3.22Z"/>
          <g>
            <path class="cls-13" d="M197.71,129.91c-4.34,0-7.85,3.51-7.85,7.85s3.51,7.85,7.85,7.85,7.85-3.51,7.85-7.85-3.51-7.85-7.85-7.85ZM197.71,141.4c-2.01,0-3.64-1.63-3.64-3.64s1.63-3.64,3.64-3.64,3.64,1.63,3.64,3.64-1.63,3.64-3.64,3.64Z"/>
            <path class="cls-11" d="M197.71,141.4c-2.01,0-3.64-1.63-3.64-3.64s1.63-3.64,3.64-3.64,3.64,1.63,3.64,3.64-1.63,3.64-3.64,3.64Z"/>
          </g>
        </g>
        <g id="back-circle-01">
          <path class="cls-13" d="M117.96,160.9c-3.91,0-7.08,3.17-7.08,7.08s3.17,7.08,7.08,7.08,7.08-3.17,7.08-7.08-3.17-7.08-7.08-7.08ZM117.96,171.26c-1.81,0-3.28-1.47-3.28-3.28s1.47-3.28,3.28-3.28,3.28,1.47,3.28,3.28-1.47,3.28-3.28,3.28Z"/>
          <path class="cls-11" d="M117.96,171.26c-1.81,0-3.28-1.47-3.28-3.28s1.47-3.28,3.28-3.28,3.28,1.47,3.28,3.28-1.47,3.28-3.28,3.28Z"/>
        </g>
        <g id="back-circle-02">
          <path class="cls-13" d="M134.4,160.9c-3.91,0-7.08,3.17-7.08,7.08s3.17,7.08,7.08,7.08,7.08-3.17,7.08-7.08-3.17-7.08-7.08-7.08ZM134.4,171.26c-1.81,0-3.28-1.47-3.28-3.28s1.47-3.28,3.28-3.28,3.28,1.47,3.28,3.28-1.47,3.28-3.28,3.28Z"/>
          <path class="cls-11" d="M134.4,171.26c-1.81,0-3.28-1.47-3.28-3.28s1.47-3.28,3.28-3.28,3.28,1.47,3.28,3.28-1.47,3.28-3.28,3.28Z"/>
        </g>
        <g id="black-circle-03">
          <path class="cls-13" d="M151.35,160.9c-3.91,0-7.08,3.17-7.08,7.08s3.17,7.08,7.08,7.08,7.08-3.17,7.08-7.08-3.17-7.08-7.08-7.08ZM151.35,171.26c-1.81,0-3.28-1.47-3.28-3.28s1.47-3.28,3.28-3.28,3.28,1.47,3.28,3.28-1.47,3.28-3.28,3.28Z"/>
          <path class="cls-11" d="M151.35,171.26c-1.81,0-3.28-1.47-3.28-3.28s1.47-3.28,3.28-3.28,3.28,1.47,3.28,3.28-1.47,3.28-3.28,3.28Z"/>
        </g>
        <g id="back-circle-04">
          <path class="cls-13" d="M167.78,160.9c-3.91,0-7.08,3.17-7.08,7.08s3.17,7.08,7.08,7.08,7.08-3.17,7.08-7.08-3.17-7.08-7.08-7.08ZM167.78,171.26c-1.81,0-3.28-1.47-3.28-3.28s1.47-3.28,3.28-3.28,3.28,1.47,3.28,3.28-1.47,3.28-3.28,3.28Z"/>
          <path class="cls-11" d="M167.78,171.26c-1.81,0-3.28-1.47-3.28-3.28s1.47-3.28,3.28-3.28,3.28,1.47,3.28,3.28-1.47,3.28-3.28,3.28Z"/>
        </g>
        <rect id="circle-rack" class="cls-16" x="49.08" y="306" width="197.66" height="5.08" rx="2.2" ry="2.2" transform="translate(295.82 617.08) rotate(180)"/>
        <g id="yellow-circle">
          <circle class="cls-19" cx="176.47" cy="308.72" r="13.38"/>
          <g class="cls-26">
            <circle class="cls-23" cx="177.09" cy="308.1" r="12.76"/>
          </g>
          <circle class="cls-15" cx="176.47" cy="308.72" r="13.38"/>
        </g>
        <g id="red-circle">
          <circle class="cls-19" cx="244.06" cy="308.72" r="13.38"/>
          <g class="cls-20">
            <circle class="cls-25" cx="244.68" cy="308.1" r="12.76"/>
          </g>
          <circle class="cls-15" cx="244.06" cy="308.72" r="13.38"/>
        </g>
        <g id="purple-circle">
          <circle class="cls-19" cx="111.85" cy="308.72" r="13.38"/>
          <g class="cls-22">
            <circle class="cls-27" cx="112.47" cy="308.1" r="12.76"/>
          </g>
          <circle class="cls-15" cx="111.85" cy="308.72" r="13.38"/>
        </g>
        <g id="yellow-circle-2" data-name="yellow-circle">
          <circle class="cls-19" cx="52.13" cy="308.72" r="13.38"/>
          <g class="cls-21">
            <circle class="cls-24" cx="52.75" cy="308.1" r="12.76"/>
          </g>
          <circle class="cls-15" cx="52.13" cy="308.72" r="13.38"/>
        </g>
      </g>
    </g>
  </g>
</svg>