<?xml version="1.0" encoding="UTF-8"?>
<svg id="Layer_2" data-name="Layer 2" xmlns="http://www.w3.org/2000/svg" viewBox="0 0 305.03 317.73">
  <defs>
    <style>
      .cls-1 {
        fill: #fdfef1;
      }

      .cls-1, .cls-2, .cls-3, .cls-4, .cls-5, .cls-6, .cls-7, .cls-8, .cls-9, .cls-10, .cls-11, .cls-12 {
        stroke: #0d0301;
        stroke-miterlimit: 10;
      }

      .cls-2 {
        fill: none;
      }

      .cls-2, .cls-6 {
        stroke-width: 2px;
      }

      .cls-3 {
        fill: #feffef;
      }

      .cls-3, .cls-4, .cls-5, .cls-7, .cls-11 {
        stroke-width: .75px;
      }

      .cls-4 {
        fill: #e8981d;
      }

      .cls-5 {
        fill: #775b33;
      }

      .cls-13 {
        fill: #0d0301;
      }

      .cls-6 {
        fill: #3e8864;
      }

      .cls-7 {
        fill: #3f8964;
      }

      .cls-8 {
        fill: #010000;
      }

      .cls-9 {
        fill: #494eba;
      }

      .cls-10 {
        fill: #888bb4;
      }

      .cls-11 {
        fill: #fffff4;
      }

      .cls-12 {
        fill: #e6951c;
      }
    </style>
  </defs>
  <g id="blue-pin">
    <g id="tongue-ball">
      <line class="cls-2" x1="101" y1="43.69" x2="275.91" y2="43.69"/>
      <circle class="cls-6" cx="288.26" cy="43.69" r="15.77"/>
    </g>
    <g id="body">
      <path id="body-2" data-name="body" class="cls-9" d="M160.26,44.5v251.16c0,11.91-9.58,21.57-21.41,21.57H21.91c-11.82,0-21.41-9.66-21.41-21.57v-103.38h45.18c2.7,0,4.89-2.19,4.89-4.89v-112.2c0-39.17,31.52-70.94,70.4-70.94,0,0,52.1,4.75,39.29,40.25Z"/>
      <g id="whitetrim">
        <path class="cls-11" d="M160.26,170.66v125c0,11.92-9.58,21.57-21.4,21.57H21.9c-11.83,0-21.4-9.65-21.4-21.57v-112.57h36.64v8.88h-14.62c-6.99,0-12.65,5.7-12.65,12.75v4.23h-.01v35.09c0,2.18,1.5,4.03,3.6,4.59,6.01,1.6,10.46,7.12,10.46,13.69s-4.44,12.09-10.46,13.69c-2.1.56-3.6,2.41-3.6,4.59v13.62c0,6.93,5.57,12.55,12.45,12.55h38.32c6.88,0,12.45-5.61,12.45-12.55v-59.86c0-2.61,2.1-4.72,4.68-4.72h.45c2.59,0,4.68,2.11,4.68,4.72v59.86c0,6.93,5.57,12.55,12.45,12.55h41.34c6.88,0,12.45-5.61,12.45-12.55v-33.17c0-1.84-.98-3.56-2.62-4.35-4.7-2.28-7.96-7.15-7.96-12.77,0-4.2,1.81-7.97,4.69-10.57,1.01-.9,1.53-2.24,1.53-3.6v-27h-17.44c-.67,2.79-3.16,4.86-6.14,4.86-3.5,0-6.33-2.85-6.33-6.37s2.83-6.37,6.33-6.37c3.02,0,5.55,2.14,6.17,4.99h17.41v-5.63c0-1.94-1.18-3.68-2.97-4.39-4.58-1.78-7.83-6.26-7.83-11.5,0-6.31,4.71-11.52,10.8-12.23,1.24-.05,2.75-.12,3.99-.17h6.8c2.59,0,4.68,2.11,4.68,4.72Z"/>
        <circle class="cls-13" cx="145.25" cy="177.34" r="3.3"/>
        <circle class="cls-13" cx="149.95" cy="243.45" r="3.3"/>
        <circle class="cls-13" cx="12.88" cy="262.28" r="3.3"/>
      </g>
    </g>
    <path id="lower-beak" class="cls-4" d="M199.78,77.51h-49.22c-14.33,0-24.38-13.93-19.66-27.26h0c4.28-12.11,18.41-17.7,30-11.9l12.01,6.02,28.97,28.71c1.7,1.69.4,4.43-2.1,4.43Z"/>
    <path id="upper-beak" class="cls-4" d="M202.72,15.93l-29.86,28.72-3.08,2.54c-8.92,7.35-22.43,5.37-28.75-4.22l-5.68-8.62c-6.09-9.24,6.68-21.39,20.2-21.39h45.92c1.58,0,2.37,1.88,1.24,2.96Z"/>
    <g id="beak-sheath">
      <path class="cls-5" d="M151.28,75.88c.83.57,1.68,1.08,2.56,1.52-.61.05-1.22.09-1.84.09-.12,0-.25,0-.38,0-15.22,0-27.55-14.44-27.55-32.27,0-16.72,14.3-30.45,28.62-32.11.51-.05,1.02-.1,1.52-.12-.74.44-1.46.91-2.17,1.42-4.08,8.39-6.67,18.76-6.67,29.98,0,11.89,2.21,22.82,5.91,31.48Z"/>
      <path class="cls-7" d="M145.37,44.4c0,11.89,2.21,22.82,5.91,31.48-8.78-5.93-14.77-17.8-14.77-31.48,0-12.6,6.7-23.66,15.53-29.98-4.08,8.39-6.67,18.76-6.67,29.98Z"/>
    </g>
    <path id="sheath-pump" class="cls-3" d="M71.93,249.29h12.2c1.7,0,3.07,1.38,3.07,3.07v8.74c0,4.18-3.39,7.57-7.57,7.57h-3.22c-4.18,0-7.57-3.39-7.57-7.57v-8.74c0-1.7,1.38-3.07,3.07-3.07Z"/>
    <path id="hair" class="cls-12" d="M125.22,4.84c-40.38-.59-74.26,31.17-74.26,70.34v112.2c0,2.7-2.19,4.89-4.89,4.89H7.32c-3.77,0-6.82,3.05-6.82,6.82h0s0-100.4,0-100.4C.5,43.88,44.37.5,99.19.5c15.99,0,26.03,4.34,26.03,4.34Z"/>
    <g id="eye">
      <circle class="cls-10" cx="94.81" cy="49.06" r="24.62"/>
      <circle id="eyeball" class="cls-1" cx="94.81" cy="49.06" r="14.73"/>
    </g>
    <circle id="pupil" class="cls-8" cx="95.64" cy="49.06" r="5.36"/>
  </g>
</svg>