<?xml version="1.0" encoding="UTF-8"?>
<svg id="Layer_2" data-name="Layer 2" xmlns="http://www.w3.org/2000/svg" xmlns:xlink="http://www.w3.org/1999/xlink" viewBox="0 0 381.19 134.22">
  <defs>
    <style>
      .cls-1 {
        fill: #030501;
      }

      .cls-2 {
        fill: #829381;
      }

      .cls-2, .cls-3, .cls-4, .cls-5, .cls-6, .cls-7, .cls-8, .cls-9, .cls-10, .cls-11, .cls-12, .cls-13, .cls-14, .cls-15 {
        stroke-miterlimit: 10;
      }

      .cls-2, .cls-3, .cls-4, .cls-5, .cls-6, .cls-7, .cls-8, .cls-10, .cls-11, .cls-12, .cls-13, .cls-14, .cls-15 {
        stroke: #030501;
      }

      .cls-3 {
        fill: #e6e8d0;
      }

      .cls-4 {
        fill: url(#radial-gradient-3);
      }

      .cls-5 {
        fill: url(#radial-gradient-2);
      }

      .cls-6 {
        fill: #7f9280;
      }

      .cls-7 {
        fill: #f4c52f;
      }

      .cls-8 {
        fill: #e87329;
      }

      .cls-9 {
        fill: #f3e5c4;
        stroke: #0c1309;
        stroke-width: 2px;
      }

      .cls-10 {
        fill: #e9762c;
      }

      .cls-11 {
        fill: none;
      }

      .cls-12 {
        fill: url(#radial-gradient);
      }

      .cls-13 {
        fill: #a4b5a1;
      }

      .cls-14 {
        fill: #f0bf37;
      }

      .cls-15 {
        fill: #95ac98;
      }
    </style>
    <radialGradient id="radial-gradient" cx="26.66" cy="78.01" fx="26.66" fy="78.01" r="13.4" gradientUnits="userSpaceOnUse">
      <stop offset="0" stop-color="#ffcb56"/>
      <stop offset=".32" stop-color="#fdc74b"/>
      <stop offset=".86" stop-color="#f7bd30"/>
      <stop offset="1" stop-color="#f6bb28"/>
    </radialGradient>
    <radialGradient id="radial-gradient-2" cx="29.05" cy="76.44" fx="29.05" fy="76.44" r="11.45" gradientUnits="userSpaceOnUse">
      <stop offset="0" stop-color="#e9932f"/>
      <stop offset=".88" stop-color="#f38825"/>
      <stop offset="1" stop-color="#f58724"/>
    </radialGradient>
    <radialGradient id="radial-gradient-3" cx="25.67" cy="79.3" fx="25.67" fy="79.3" r="9.22" gradientUnits="userSpaceOnUse">
      <stop offset="0" stop-color="#f5cc3a"/>
      <stop offset=".74" stop-color="#f5c22f"/>
      <stop offset="1" stop-color="#f6be2b"/>
    </radialGradient>
  </defs>
  <g id="bullet">
    <path id="bottom-fin" class="cls-15" d="M36.93,83.36h210.95c7.11,0,12.89,5.78,12.89,12.89v24.57c0,7.11-5.78,12.89-12.89,12.89H33.9c-8.44,0-15.29-6.85-15.29-15.29v-16.73c0-10.12,8.21-18.33,18.33-18.33Z"/>
    <g id="topfin">
      <path class="cls-15" d="M130.72.5h89.19c10.72,0,19.42,8.7,19.42,19.42h0c0,5.49-4.46,9.95-9.95,9.95h-88.71c-5.49,0-9.95-4.46-9.95-9.95V.5h0Z"/>
    </g>
    <circle id="back-fin-circle" class="cls-2" cx="215.02" cy="34.07" r="18.58"/>
    <path id="body" class="cls-9" d="M246.16,56.6c1.76,19.35-9.47,34.26-21.15,45.95-11.69,11.68-27.83,18.91-45.65,18.91H30.71c-16.4,0-29.71-13.3-29.71-29.71v-3.41C1,54.5,28.7,26.8,62.55,26.8h66.32c1.38-9.45,9.52-9.59,18.87-11.53,8-1.65,33.89-1.8,33.89-1.8,12.64,0,25.19,2.63,36.55,8.14,8.55,4.15,15.43,9.28,20.1,14.82.01.01.02.01.02.02,5.15,6.1,7.3,13.45,7.85,20.15Z"/>
    <path id="top-red-line" class="cls-8" d="M249.08,71.24c-1.44.86-2.87,1.47-4.3,1.85-3.37.9-6.85.46-10.96-1.27-4.41-1.86-6.65-3.76-9.47-6.17-.6-.5-1.23-1.04-1.93-1.63-3.26-2.69-7.59-5.83-12.19-6.11-5.39-.34-10.29,3.52-15.49,7.62-5.2,4.09-10.57,8.32-17.2,9.05-7.53.84-14.22-3.78-20.1-7.84-1.34-.92-2.6-1.8-3.85-2.59-7.19-4.58-12.8-5.84-18.75-4.2-4.14,1.14-7.74,3.88-11.57,6.79-4.66,3.54-9.49,7.21-15.66,8.16-.91.14-1.8.22-2.69.22-7.07,0-13.44-4.29-18.85-8.62-6.22-5-11.41-7.28-16.82-7.41-4.05-.07-7.46,2.31-11.35,5.1-1.53,1.09-3.13,2.23-4.83,3.25-8.87,5.3-16.71,6.37-22.66,3.09-4.08-2.27-10.29-7.16-13.19-11.14-1.63-2.25-2.87-3.62-3.96-4.82-.41-.46-.8-.89-1.17-1.33-.17-.18-.32-.37-.49-.58-1.05-1.27-.89-3.15.4-4.22,1.11-.92,2.71-.9,3.8-.01.16.11.29.25.42.41.48.59.97,1.13,1.5,1.7,1.19,1.32,2.54,2.82,4.36,5.31,2.3,3.16,7.77,7.5,11.23,9.42,5.02,2.77,11.84-.1,16.68-2.99,1.5-.9,2.99-1.97,4.42-2.99,4.38-3.13,8.85-6.35,14.99-6.21,8.72.2,15.5,4.77,20.43,8.73,5.06,4.05,11.01,8.08,16.84,7.17,4.68-.74,8.7-3.79,12.96-7.03,4.11-3.12,8.36-6.34,13.61-7.79,9.81-2.7,17.74,1.21,23.57,4.92,1.33.85,2.7,1.8,4.03,2.71,5.27,3.64,10.73,7.41,16.04,6.82,4.93-.54,9.41-4.06,14.15-7.8,5.86-4.62,11.92-9.39,19.58-8.9,6.33.4,11.69,4.21,15.63,7.48.73.61,1.39,1.16,2,1.69,2.71,2.31,4.35,3.7,7.91,5.2,4.14,1.74,6.71,1.68,9.87-.2.06-.04.12-.07.18-.1,1.38-.71,3.12-.23,3.93,1.14.84,1.41.38,3.26-1.04,4.11Z"/>
    <g id="topcolor">
      <path class="cls-8" d="M201.22,15.68c-.17.23-.39.44-.63.62l-20.82,15.06c-3.9,2.82-8.39,5.71-13.34,5.71-.9,0-1.82-.09-2.75-.3-3.79-.86-6.59-3.39-9.07-5.64l-.61-.55c-5.05-4.53-10.68-8.39-16.72-11.48-.53-.27-.95-.69-1.22-1.17,1.46-.56,3.08-.96,4.82-1.33,1.03-.21,2.09-.41,3.18-.62,4.98,2.9,9.65,6.3,13.94,10.14l.63.57c2.12,1.91,4.12,3.72,6.37,4.23,3.61.82,7.54-1.74,11.25-4.42l16.97-12.27c1.12.15,2.23.31,3.34.51,1.56.26,3.12.57,4.66.94Z"/>
      <path class="cls-3" d="M196.56,14.74l-16.79,12.15c-3.9,2.82-8.39,5.72-13.34,5.72-.9,0-1.82-.1-2.75-.31-3.79-.85-6.59-3.39-9.07-5.63l-.61-.55c-4.03-3.62-8.43-6.81-13.12-9.52,1.03-.21,2.09-.41,3.18-.62,1.19-.22,2.42-.45,3.67-.71.27-.05.55-.11.86-.16.29-.05.6-.1.92-.14,2.97,2.05,5.8,4.28,8.49,6.69l.63.56c.98.89,1.93,1.75,2.9,2.46,1.12.85,2.26,1.51,3.47,1.78,2.88.65,5.96-.84,8.97-2.84.77-.51,1.53-1.05,2.28-1.59l11.53-8.33c.33.01.66.04,1,.07,1.48.11,2.97.27,4.44.46,1.12.15,2.23.31,3.34.51Z"/>
      <path class="cls-13" d="M188.78,13.77l-8.77,6.15c-1.16.81-5.95,3.66-9.47,5.75-2.43,1.43-5.45,1.37-7.81-.15-3.14-2.03-7.23-4.73-8.46-5.81l-.63-.55c-1.63-1.42-3.31-2.77-5.05-4.04.29-.05.6-.1.92-.14,2.03-.29,4.67-.53,7.56-.72h.05c.15.12.3.25.45.38l.65.56c.5.43.99.86,1.47,1.27,1.68,1.41,3.69,1.93,5.51,2.33.96.21,1.57.86,2.56.69,2.92-.5,5.93-2.45,8.81-4.47l2.14-1.5c.69-.01,1.27-.02,1.73-.02.76-.01,1.19-.01,1.19-.01,2.05,0,4.1.07,6.15.22.33.01.66.04,1,.07Z"/>
      <path class="cls-6" d="M180.44,13.49c-.41.29-.81.57-1.22.86-3.45,2.41-7.22,5.19-11.31,5.38-.87.05-2.12.2-3,0-2.04-.44-3.57-1.99-5.21-3.27-.9-.7-1.76-1.46-2.61-2.21h.04c7.61-.5,16.94-.68,21.59-.74.69-.01,1.27-.02,1.73-.02Z"/>
    </g>
    <g id="eye-behind">
      <path class="cls-12" d="M40.47,82.84c-1.79,3.48-4.78,6.15-8.39,7.38-1.43.49-2.96.76-4.54.76-7.61,0-13.89-6.13-14.61-13.95-.05-.5-.07-1.01-.07-1.52,0-3.94,1.4-7.53,3.7-10.26.59-.12,1.21-.19,1.86-.19,3.86-.08,8.75,1.64,13.22,4.99,4.46,3.33,7.49,7.53,8.51,11.26.16.53.26,1.04.32,1.55Z"/>
      <path class="cls-5" d="M40.14,81.29c-3.73,1.32-9.32.04-14.22-3.63-4.9-3.66-7.71-8.66-7.52-12.61,3.86-.08,8.75,1.64,13.22,4.99,4.46,3.33,7.49,7.53,8.51,11.26Z"/>
    </g>
    <g id="eye">
      <ellipse id="eye-2" data-name="eye" class="cls-4" cx="25.84" cy="76.42" rx="8.33" ry="7.99"/>
    </g>
    <g id="pupil">
      <ellipse class="cls-1" cx="25.84" cy="76.42" rx="3.94" ry="3.78"/>
    </g>
    <path id="mouth" class="cls-7" d="M11.37,113.96c-.21.12-.42.23-.63.32-.34-.3-.67-.61-1-.93-1-.97-1.94-2.02-2.79-3.14-.2-.26-.4-.52-.59-.79-.36-.5-.71-1.02-1.04-1.55-.23-.38-.46-.76-.68-1.15-.23-.41-.45-.82-.66-1.24.44-.51.98-.96,1.6-1.33,2.93-1.73,6.59-.93,8.19,1.78,1.6,2.7.53,6.3-2.4,8.03Z"/>
    <g id="lips">
      <path class="cls-14" d="M20.12,108.93c0,3.63-1.65,6.88-4.25,9.04-1.77,2.46-6.9-1.23-5.13-3.69.21-.09.42-.2.63-.32,2.93-1.73,4-5.33,2.4-8.03-1.6-2.71-5.26-3.51-8.19-1.78-.62.37-1.16.82-1.6,1.33-2.31.87-4.61-5.26-2.3-6.13,1.91-1.35,4.23-2.13,6.73-2.13,6.47,0,11.71,5.24,11.71,11.71Z"/>
    </g>
    <path id="bottom-red-line" class="cls-10" d="M204.17,116.38c-3.36,0-6.74-.59-9.92-1.81-4.88-1.86-9.09-5.01-13.17-8.06-5.32-3.98-10.34-7.73-16.34-8.37-6.78-.72-12.91,3.36-19.39,7.66-7.1,4.72-14.44,9.61-23.19,8.22-5.44-.86-10.37-4.35-15.14-7.72-4.86-3.44-9.45-6.68-14.11-7.02-5.61-.4-11.12,2.6-15.77,5.6-.74.48-1.48.96-2.22,1.45-4.59,3.02-9.33,6.14-14.92,7.41-6.8,1.54-15.43-.51-18.76-7.41-.58-1.19-.08-2.63,1.11-3.2,1.19-.57,2.62-.08,3.2,1.12,2.22,4.6,8.56,5.91,13.39,4.82,4.75-1.08,8.92-3.82,13.35-6.74.75-.5,1.51-.99,2.26-1.48,5.31-3.42,11.71-6.86,18.71-6.35,6,.43,11.35,4.22,16.54,7.89,4.52,3.2,8.79,6.22,13.12,6.9,6.91,1.09,13.16-3.07,19.79-7.48,6.9-4.59,14.03-9.34,22.55-8.44,7.3.77,13.1,5.1,18.7,9.29,3.99,2.98,7.76,5.8,12.01,7.42,7.76,2.96,17.21,1.33,23.53-4.06,1.01-.86,2.52-.74,3.38.27s.74,2.52-.27,3.38c-5.13,4.38-11.77,6.7-18.43,6.7Z"/>
    <line class="cls-11" x1="381.19" y1="52.65" x2="380.87" y2="52.65"/>
  </g>
</svg>