<?xml version="1.0" encoding="UTF-8"?>
<svg id="Layer_2" data-name="Layer 2" xmlns="http://www.w3.org/2000/svg" viewBox="0 0 513.79 340.66">
  <defs>
    <style>
      .cls-1 {
        fill: #353938;
      }

      .cls-1, .cls-2, .cls-3, .cls-4, .cls-5, .cls-6, .cls-7, .cls-8, .cls-9, .cls-10, .cls-11, .cls-12, .cls-13, .cls-14, .cls-15, .cls-16, .cls-17 {
        stroke: #0d0301;
      }

      .cls-1, .cls-3, .cls-6, .cls-7, .cls-8, .cls-9, .cls-12, .cls-13, .cls-14, .cls-15 {
        stroke-linejoin: round;
      }

      .cls-18 {
        fill: #f5eed3;
      }

      .cls-19 {
        stroke-width: .61px;
      }

      .cls-19, .cls-20, .cls-21, .cls-22, .cls-23, .cls-2, .cls-4, .cls-24, .cls-25, .cls-5, .cls-26, .cls-10, .cls-11, .cls-27, .cls-16, .cls-17 {
        stroke-miterlimit: 10;
      }

      .cls-19, .cls-20, .cls-21, .cls-22, .cls-23, .cls-24, .cls-26 {
        stroke: #040404;
      }

      .cls-19, .cls-20, .cls-21, .cls-22, .cls-23, .cls-25, .cls-16 {
        fill: none;
      }

      .cls-20 {
        stroke-width: .82px;
      }

      .cls-21 {
        stroke-width: .9px;
      }

      .cls-22 {
        stroke-width: .73px;
      }

      .cls-2, .cls-4, .cls-5, .cls-10, .cls-11, .cls-14, .cls-17 {
        stroke-width: 1.66px;
      }

      .cls-2, .cls-28 {
        fill: #0d0301;
      }

      .cls-3, .cls-7, .cls-15, .cls-16 {
        stroke-width: 1.95px;
      }

      .cls-3, .cls-29 {
        fill: #e94410;
      }

      .cls-4, .cls-14 {
        fill: #eeb214;
      }

      .cls-24 {
        fill: #2b7847;
      }

      .cls-25 {
        stroke: #faf6e3;
      }

      .cls-30 {
        fill: #f6f3cf;
      }

      .cls-5, .cls-15 {
        fill: #eeebd3;
      }

      .cls-26 {
        fill: #f96221;
      }

      .cls-6 {
        fill: #f7d44e;
        stroke-width: 1.89px;
      }

      .cls-7 {
        fill: #010000;
      }

      .cls-8 {
        stroke-width: 1.8px;
      }

      .cls-9 {
        stroke-width: 1.72px;
      }

      .cls-10 {
        fill: #ea440d;
      }

      .cls-11 {
        fill: #161311;
      }

      .cls-27 {
        stroke: #0b5100;
      }

      .cls-12 {
        fill: #efb215;
      }

      .cls-13 {
        fill: #4e5100;
      }

      .cls-31 {
        fill: #febe2a;
      }

      .cls-32 {
        fill: #827f6d;
      }

      .cls-17 {
        fill: #f8f3da;
      }
    </style>
  </defs>
  <g id="dichotomous-beak">
    <g id="lower-projectile">
      <path class="cls-5" d="M208.31,246.41c0,4.09-1.04,7.89-2.84,11.08-5.07,1.45-10.69,2.48-15.96,3.12-.43-.49-.82-1.02-1.19-1.56-2.16-3.13-3.53-7-3.78-11.22-.03-.47-.04-.94-.04-1.42,0-1.18.09-2.34.26-3.46.5-3.43,1.76-6.57,3.56-9.19.79-1.14,1.67-2.19,2.65-3.11,4.37.57,8.89,1.4,13.09,2.51,2.65,3.57,4.25,8.19,4.25,13.25Z"/>
      <path class="cls-10" d="M180.05,229.73c-3.77,3.07-6.45,7.78-7.25,13.22h-29.88c.79-1.6,2.41-3.26,5.1-4.96,7.1-4.64,14.25-7.37,23.53-8.09,2.16-.23,5.1-.29,8.5-.17Z"/>
      <path class="cls-10" d="M178.23,261.4h-.7c-8.28.08-17.45-1.64-23.88-5.14-4.66-2.26-9.18-5.14-10.75-8.43h29.68c.32,5.35,2.43,10.13,5.65,13.57Z"/>
      <path class="cls-5" d="M178.06,242.95c-.17,1.12-.26,2.28-.26,3.46,0,.48.01.95.04,1.42.32,5.24,2.35,9.94,5.47,13.36-1.81.12-3.52.19-5.08.21-3.22-3.44-5.33-8.22-5.65-13.57-.03-.47-.04-.94-.04-1.42,0-1.18.09-2.34.26-3.46.8-5.44,3.48-10.15,7.25-13.22,1.56.06,3.21.16,4.92.29-3.59,3.08-6.13,7.66-6.91,12.93Z"/>
      <path class="cls-5" d="M172.8,242.95c-.17,1.12-.26,2.28-.26,3.46,0,.48.01.95.04,1.42h-29.68c-.75-1.54-.84-3.17.02-4.88h29.88Z"/>
      <path class="cls-2" d="M188.32,259.05c.37.54.76,1.07,1.19,1.56-.4.05-.8.09-1.19.13-1.73.2-3.41.35-5.01.45-3.12-3.42-5.15-8.12-5.47-13.36-.03-.47-.04-.94-.04-1.42,0-1.18.09-2.34.26-3.46.78-5.27,3.32-9.85,6.91-12.93,1.1.09,2.21.2,3.35.32.87.1,1.76.2,2.65.31-.98.92-1.86,1.97-2.65,3.11-1.8,2.62-3.06,5.76-3.56,9.19-.17,1.12-.26,2.28-.26,3.46,0,.48.01.95.04,1.42.25,4.22,1.62,8.09,3.78,11.22Z"/>
      <path class="cls-2" d="M213.57,246.41c0,3.2-.64,6.22-1.77,8.91-1.95.81-4.09,1.53-6.33,2.17,1.8-3.19,2.84-6.99,2.84-11.08,0-5.06-1.6-9.68-4.25-13.25,2.34.61,4.58,1.32,6.64,2.12,1.82,3.2,2.87,7.02,2.87,11.13Z"/>
      <path class="cls-5" d="M222.33,245.47v.13c-.17,1.71-1.01,3.28-2.38,4.69-1.88,1.95-4.73,3.62-8.15,5.03,1.13-2.69,1.77-5.71,1.77-8.91,0-4.11-1.05-7.93-2.87-11.13,3.63,1.41,6.7,3.1,8.79,5.13,1.56,1.49,2.57,3.18,2.84,5.06Z"/>
    </g>
    <g id="upper-projectile">
      <path class="cls-5" d="M208.31,184.31c0,4.09-1.04,7.89-2.84,11.08-5.07,1.45-10.69,2.48-15.96,3.12-.43-.49-.82-1.02-1.19-1.56-2.16-3.13-3.53-7-3.78-11.22-.03-.47-.04-.94-.04-1.42,0-1.18.09-2.34.26-3.46.5-3.43,1.76-6.57,3.56-9.19.79-1.14,1.67-2.19,2.65-3.11,4.37.57,8.89,1.4,13.09,2.51,2.65,3.57,4.25,8.19,4.25,13.25Z"/>
      <path class="cls-10" d="M180.05,167.63c-3.77,3.07-6.45,7.78-7.25,13.22h-29.88c.79-1.6,2.41-3.26,5.1-4.96,7.1-4.64,14.25-7.37,23.53-8.09,2.16-.23,5.1-.29,8.5-.17Z"/>
      <path class="cls-10" d="M178.23,199.3h-.7c-8.28.08-17.45-1.64-23.88-5.14-4.66-2.26-9.18-5.14-10.75-8.43h29.68c.32,5.35,2.43,10.13,5.65,13.57Z"/>
      <path class="cls-5" d="M178.06,180.85c-.17,1.12-.26,2.28-.26,3.46,0,.48.01.95.04,1.42.32,5.24,2.35,9.94,5.47,13.36-1.81.12-3.52.19-5.08.21-3.22-3.44-5.33-8.22-5.65-13.57-.03-.47-.04-.94-.04-1.42,0-1.18.09-2.34.26-3.46.8-5.44,3.48-10.15,7.25-13.22,1.56.06,3.21.16,4.92.29-3.59,3.08-6.13,7.66-6.91,12.93Z"/>
      <path class="cls-5" d="M172.8,180.85c-.17,1.12-.26,2.28-.26,3.46,0,.48.01.95.04,1.42h-29.68c-.75-1.54-.84-3.17.02-4.88h29.88Z"/>
      <path class="cls-2" d="M188.32,196.95c.37.54.76,1.07,1.19,1.56-.4.05-.8.09-1.19.13-1.73.2-3.41.35-5.01.45-3.12-3.42-5.15-8.12-5.47-13.36-.03-.47-.04-.94-.04-1.42,0-1.18.09-2.34.26-3.46.78-5.27,3.32-9.85,6.91-12.93,1.1.09,2.21.2,3.35.32.87.1,1.76.2,2.65.31-.98.92-1.86,1.97-2.65,3.11-1.8,2.62-3.06,5.76-3.56,9.19-.17,1.12-.26,2.28-.26,3.46,0,.48.01.95.04,1.42.25,4.22,1.62,8.09,3.78,11.22Z"/>
      <path class="cls-2" d="M213.57,184.31c0,3.2-.64,6.22-1.77,8.91-1.95.81-4.09,1.53-6.33,2.17,1.8-3.19,2.84-6.99,2.84-11.08,0-5.06-1.6-9.68-4.25-13.25,2.34.61,4.58,1.32,6.64,2.12,1.82,3.2,2.87,7.02,2.87,11.13Z"/>
      <path class="cls-5" d="M222.33,183.37v.13c-.17,1.71-1.01,3.28-2.38,4.69-1.88,1.95-4.73,3.62-8.15,5.03,1.13-2.69,1.77-5.71,1.77-8.91,0-4.11-1.05-7.93-2.87-11.13,3.63,1.41,6.7,3.1,8.79,5.13,1.56,1.49,2.57,3.18,2.84,5.06Z"/>
    </g>
    <path id="tiny-lower-beak" class="cls-14" d="M404.97,89l37.71-14.14-29.78,3.07c-4.31.44-7.85,3.57-8.84,7.79l-.48,2.07c-.19.81.6,1.51,1.38,1.21Z"/>
    <path id="triangle-beak" class="cls-4" d="M392.23,15.71l100.25,38.31c1.08.41,1.08,1.95,0,2.35l-97.95,36.82-2.29-77.49Z"/>
    <g id="body">
      <path class="cls-15" d="M414.83,47.99v257.69c0,4.15-.74,8.13-2.1,11.8-2.16,5.82-5.85,10.88-10.6,14.7-5.82,4.69-13.23,7.5-21.29,7.5h-155.84c-8.06,0-15.47-2.81-21.29-7.5-4.75-3.82-8.44-8.88-10.6-14.7-1.36-3.67-2.1-7.65-2.1-11.8v-147.55c-.04-13.26-9.65-24.54-22.73-26.66l-135.13-22.07c-3.96-.64-7.38-2.66-9.82-5.53-2.45-2.88-3.89-6.59-3.89-10.59,0-7.13-1.56-17.9,17.31-24.42,1.61-.56,3.34-.57,5.01-.91,12.4-2.51,25.55-3.31,65.62-9.7,5.19-.83,26.41-7.35,34.13-9.17,6.25-1.48,17.89-3.62,27.03-3.62h52.18c6.34,0,12.44,1.04,18.12,2.97,8.27,2.81,15.68,7.49,21.72,13.53,10.19,10.18,16.5,24.27,16.5,39.83,0,24.77-15.99,45.81-38.22,53.36v15.99c0,23.13,18.76,41.88,41.89,41.88h40.05V48.77c0-25.6,20.15-47.1,45.74-47.78,13.49-.36,25.75,4.97,34.54,13.76,8.5,8.5,13.77,20.26,13.77,33.24Z"/>
      <polyline class="cls-16" points="293.84 245.53 317.65 245.53 382.75 193.73 382.75 75.42"/>
      <g>
        <path class="cls-6" d="M414.83,299.67v6.01c0,4.15-.74,8.13-2.1,11.8-2.16,5.82-5.85,10.88-10.6,14.7h-198.42c-4.75-3.82-8.44-8.88-10.6-14.7-1.36-3.67-2.1-7.65-2.1-11.8v-6.01h223.82Z"/>
        <rect class="cls-9" x="191.01" y="272.83" width="223.82" height="26.84"/>
        <path class="cls-8" d="M412.73,317.48c-2.16,5.82-5.85,10.88-10.6,14.7-5.82,4.69-13.23,7.5-21.29,7.5h-155.84c-8.06,0-15.47-2.81-21.29-7.5-4.75-3.82-8.44-8.88-10.6-14.7h219.62Z"/>
        <g>
          <circle class="cls-7" cx="299.34" cy="307.95" r="3.41"/>
          <circle class="cls-7" cx="220.55" cy="307.95" r="3.41"/>
          <circle class="cls-7" cx="382.75" cy="307.95" r="3.41"/>
        </g>
      </g>
    </g>
    <circle id="lower-eyeball" class="cls-12" cx="160.21" cy="93.51" r="14.84"/>
    <g id="beak-tip">
      <g>
        <rect class="cls-11" x="499.5" y="46.35" width="9.41" height="16.2"/>
        <rect class="cls-17" x="490.09" y="46.35" width="9.42" height="16.2"/>
        <rect class="cls-17" x="496.36" y="46.35" width="3.14" height="16.2"/>
        <g>
          <line class="cls-25" x1="500.06" y1="47.78" x2="507.69" y2="47.78"/>
          <line class="cls-25" x1="500.06" y1="50.45" x2="507.69" y2="50.45"/>
          <line class="cls-25" x1="500.06" y1="53.12" x2="507.69" y2="53.12"/>
          <line class="cls-25" x1="500.06" y1="55.79" x2="507.69" y2="55.79"/>
          <line class="cls-25" x1="500.06" y1="58.46" x2="507.69" y2="58.46"/>
          <line class="cls-25" x1="500.06" y1="61.12" x2="507.69" y2="61.12"/>
        </g>
      </g>
      <line class="cls-23" x1="510.24" y1="47.19" x2="510.24" y2="62.55"/>
      <g>
        <line class="cls-21" x1="511.47" y1="61.12" x2="511.47" y2="48.61"/>
        <line class="cls-20" x1="512.08" y1="49.68" x2="512.08" y2="60.06"/>
        <line class="cls-22" x1="512.76" y1="58.93" x2="512.76" y2="50.8"/>
        <line class="cls-19" x1="513.48" y1="51.97" x2="513.48" y2="57.77"/>
      </g>
    </g>
    <g id="high-eyeball">
      <ellipse class="cls-32" cx="367.72" cy="45.92" rx="22.88" ry="23.08"/>
      <circle class="cls-13" cx="367.31" cy="45.31" r="17.97"/>
      <circle class="cls-31" cx="368.02" cy="46.02" r="16.27"/>
      <g>
        <path class="cls-18" d="M367.72,69.38c-12.82,0-23.25-10.52-23.25-23.45s10.43-23.45,23.25-23.45,23.25,10.52,23.25,23.45-10.43,23.45-23.25,23.45ZM367.72,26.98c-10.35,0-18.78,8.5-18.78,18.94s8.42,18.94,18.78,18.94,18.78-8.5,18.78-18.94-8.42-18.94-18.78-18.94Z"/>
        <path class="cls-28" d="M367.72,22.85c12.63,0,22.88,10.33,22.88,23.08s-10.24,23.08-22.88,23.08-22.88-10.33-22.88-23.08,10.24-23.08,22.88-23.08M367.72,65.24c10.58,0,19.15-8.65,19.15-19.32s-8.57-19.32-19.15-19.32-19.15,8.65-19.15,19.32,8.57,19.32,19.15,19.32M367.72,22.1c-13.03,0-23.63,10.69-23.63,23.83s10.6,23.83,23.63,23.83,23.63-10.69,23.63-23.83-10.6-23.83-23.63-23.83h0ZM367.72,64.49c-10.15,0-18.4-8.33-18.4-18.57s8.25-18.57,18.4-18.57,18.4,8.33,18.4,18.57-8.25,18.57-18.4,18.57h0Z"/>
      </g>
    </g>
    <g id="high-pupil">
      <circle class="cls-30" cx="368" cy="46" r="12.8"/>
      <circle id="high-pupil-2" data-name="high-pupil" class="cls-27" cx="367.72" cy="46.02" r="10.49"/>
    </g>
    <g id="red-bottom-beak">
      <path class="cls-3" d="M25.57,106.04c2.13,1.71,4.71,2.9,7.57,3.37l86.88,14.18c1.53-5.95,1.86-12.46,1.1-19.47l-94.93-6.74-.61,8.66Z"/>
      <g>
        <path class="cls-29" d="M45.14,108.18c.32,0,60.44,7.92,60.44,7.92"/>
        <path class="cls-28" d="M45.14,108.18c20.17,1.97,40.43,4.62,60.44,7.92-20.2-1.97-40.41-4.62-60.44-7.92h0Z"/>
      </g>
    </g>
    <g id="green-top-beak">
      <path class="cls-24" d="M139.16,71.48v31.06c0,1.73-1.41,3.14-3.14,3.14H43.71c-12.78,0-23.58,8.46-27.11,20.09-1.28,4.23-1.55,8.37-1.18,12.75.15,1.79.2,3.65-.44,5.33-1.14,2.99-6.11,5.31-7.54,1.25C-.72,121.86-5.8,88.11,16.52,71.07c9.27-7.08,21.07-9.95,32.58-9.95l81.32,1.47c4.86.09,8.73,4.04,8.73,8.89Z"/>
      <path class="cls-26" d="M117.48,81.39h0c0,3.87-3.35,7-7.48,7l-50-.86c-6.69-.24-11.12.91-11.55,1.02-13.15,3.35-21.52,11.32-28.47,21.94-1.27,1.93-3.89,2.66-6.09,1.73h0c-2.33-.99-3.42-3.51-2.52-5.75,2.77-6.89,7.13-13.04,12.67-18.07,9.52-8.66,23.9-14,38.21-14h47.76c4.13,0,7.48,3.13,7.48,7Z"/>
    </g>
    <circle id="lower-pupil" class="cls-1" cx="160.21" cy="93.51" r="7.64"/>
  </g>
</svg>