<?xml version="1.0" encoding="UTF-8"?>
<svg id="Layer_2" data-name="Layer 2" xmlns="http://www.w3.org/2000/svg" viewBox="0 0 69.72 128.79">
  <defs>
    <style>
      .cls-1 {
        fill: #5a2f14;
      }

      .cls-2 {
        fill: #010101;
      }

      .cls-3 {
        fill: #4a2e14;
      }

      .cls-4 {
        fill: #d68b3e;
      }

      .cls-5 {
        fill: #1f1414;
      }

      .cls-6 {
        fill: #5f9457;
      }

      .cls-7 {
        fill: #3e160a;
      }

      .cls-8 {
        fill: #fff;
      }

      .cls-9 {
        fill: #93642c;
      }

      .cls-10 {
        fill: #503a15;
      }

      .cls-11 {
        fill: #281d12;
      }

      .cls-12 {
        fill: #f7b738;
      }

      .cls-13 {
        fill: #908366;
      }

      .cls-14 {
        fill: #3d271b;
      }

      .cls-15 {
        fill: #e2a948;
      }

      .cls-16 {
        fill: #b47728;
      }

      .cls-17 {
        fill: #1a140a;
      }
    </style>
  </defs>
  <g id="Layer_24" data-name="Layer 24">
    <g>
      <g>
        <path class="cls-12" d="M16.3,75.03h-.35l-1.77.53c1.2.78,2.34.39.35,1.24-.8.34-1.14-.26-1.41.35-1.72-.71-3.03-1.27-4.95-1.41-2.09-1.52,6.11-3.93,6.54-3.89,1.86.2,1.03,1.94,1.59,3.18Z"/>
        <path class="cls-16" d="M15.95,75.03c-.66,1.36.29.36.35.35.22-.01.54-.05.71,0v2.47c-.74.21-2.15-.21-2.47-1.06,1.98-.85.84-.46-.35-1.24l1.77-.53Z"/>
        <g>
          <path class="cls-12" d="M17.71,73.26l.53.35c1.91-7.89,8.88-2.47,6.89,3-.26.71-1.76,1.87-2.12,2.47-.1.17-.25,1.6-.35,1.77-.58.93-1.05-.1-1.24.18-1.37,2.02,1.31,1.9,1.24,3.89-.57-.04-1.74.67-3,0-2.04-1.08-1.97-5.83-2.3-6.18-.27-.29-2.32-.17-3-.53-.25-.13-.97-.95-1.24-1.06.28-.61.61,0,1.41-.35.32.85,1.73,1.27,2.47,1.06,1.03-.29,1.69-1.99,0-2.47-.17-.05-.48-.01-.71,0v-.35c-.56-1.24.27-2.98-1.59-3.18-.43-.05-8.63,2.36-6.54,3.89-2.49-.19-4.97.21-7.42.53,3.86,1.3,9.27-1.56,12.37,2.12-4.29-.06-10.4,2.48-13.08-1.94-.17-1.21.19-1.24.71-2.12,3.77-6.39,12.22-6.18,16.96-1.06Z"/>
          <g>
            <path class="cls-11" d="M8.17,75.74c1.92.14,3.23.7,4.95,1.41.27.11.98.93,1.24,1.06.68.36,2.73.24,3,.53.32.35.26,5.1,2.3,6.18,1.26.67,2.43-.04,3,0,.99.07,1.17-.37,1.24-.35.82.17.14,1.02.18,1.06-6.63,3.14-6.77-6.02-7.24-6.36-2.65-1.87-15.83,3.84-16.79-2.83,2.68,4.43,8.78,1.88,13.08,1.94-3.1-3.68-8.5-.82-12.37-2.12,2.46-.32,4.93-.72,7.42-.53Z"/>
            <path class="cls-13" d="M18.07,72.91c-.03.26-.05.39-.35.35-4.74-5.12-13.19-5.33-16.96,1.06,3.17-7.11,12.83-6.87,17.32-1.41Z"/>
            <path class="cls-7" d="M17.01,77.86v-2.47c1.69.48,1.03,2.19,0,2.47Z"/>
            <path class="cls-2" d="M19.66,79.98c.04-.06,1.32.11,1.24.53-.64.96-1.98.63-1.24-.53Z"/>
            <path class="cls-11" d="M19.31,78.21l.53.53-1.24.88c-.58-.96.08-.93.71-1.41Z"/>
          </g>
        </g>
        <path class="cls-5" d="M16.3,75.39c-.07,0-1.02,1-.35-.35h.35v.35Z"/>
        <path class="cls-6" d="M48.11,70.26c-.53-3.77-1.84-4.53-2.47-6.54.04.14-.33.74-.4.89-.15.35-.28.71-.41,1.06-.24.68-.45,1.37-.63,2.07-.36,1.38-.61,2.79-.81,4.21-.4,2.81-.95,5.75-.89,8.59.03,1.44.19,2.87.26,4.3.08,1.51.07,3.02-.04,4.52s-.5,3.04-.58,4.56c-.09,1.61-1.68,7.98.66,8.53,1.26-2.45,1.99-5.4,2.87-8.02.81-2.41,1.57-4.84,2.1-7.33,1.2-5.57,1.12-11.23.33-16.85Z"/>
      </g>
      <g>
        <path class="cls-2" d="M48.11,58.42c.03.25-.13.53.18.71.32-.12.11-.63.18-.71,1.54-1.6,2.88-4.01,4.77-5.3,11.76-8.02,17.99,5.08,6.36,11.31-4.04,2.17-7.11,1.62-11.49,1.94.58,4.44,1.43,9.32,1.41,13.78-.07,16.55-11.99,31.83-13.08,48.42-.24.29-.89.29-1.06,0-.45-.75,1.5-14.42,1.41-17.32-.18-6.12-1.33-13.4-4.77-18.55-6.37,8.96-17.73-4.99-6.54-4.59.72.03,1.77.52,2.47.71.42.11,1.02.21,1.41.35.06.02.44,1.18,1.06.53-.17-.37-.93-.72-1.06-.88-.35-.43-.47-.85-1.06-1.06-.94-.34-1.53-.11-2.47,0,0-.23.02-.47,0-.71,1.98-2.26-.22-.7-.35-.71-.35-.02-.46.51-.88.35-.15-.05-.33-.8-.53-1.06-.03-.04.65-.89-.18-1.06-.06-.01-.24.43-1.24.35.07-1.99-2.61-1.87-1.24-3.89.18-.27.66.76,1.24-.18.1-.17.25-1.6.35-1.77.36-.6,1.86-1.77,2.12-2.47,1.99-5.47-4.98-10.89-6.89-3l-.53-.35c.31.04.32-.09.35-.35.86-6.78,7.61-4.6,8.48,2.3.33,2.63-1.18,8.4-1.06,8.84s5.49,4.95,6.71,6.54c.06.07-.06.28,0,.35,1.48,1.98,3.12,3.95,3.89,6.36-.85-.27-.58-1.44-1.41-.88,3.05,6.89,2.95,14.7,2.65,22.09,1.89-5.27,3.63-10.61,5.48-15.9,4.3-12.32,7.24-18.44,5.3-32.34-.53-3.77-1.84-4.53-2.47-6.54-3.22-10.16.09-17.59-5.3-28.45-6.32-12.74-17.21-14.3-24.03-23.68C13.06,7.14,9.49.92,17.54.11c11.87-1.2,24.94,7.75,33.93,14.49.85-.12.63-3.89.88-4.42.58-1.2,1.78.2,1.94.18,1.12-.18.61-2.49,1.41-2.83s1.26.9,1.77.71.34-2.2,1.06-2.47c.37-.14,1.34.72,1.41.71.48-.1.84-1.68,1.06-1.77.64-.26,1.67.72,1.77.71.41-.07.64-1.33,1.06-1.41.61-.12.79.82,1.41.71.2-.04.9-1.06,1.06-1.06,4.08.03,3.83,1.99,2.65,5.12-1.43,3.79-12.13,21.47-14.84,24.74-1.27,1.53-6.22,4.91-6.36,5.3-.34.92.12,17.91.35,19.61Z"/>
        <g>
          <path class="cls-12" d="M42.98,13.54c1.84-.32,8.14.72,8.66,2.65.2.76-4.92,12.72-4.42,15.02-2.48-5.5-4.15-10.36-9.72-13.61-.23-1.11,4.47-3.89,5.48-4.06Z"/>
          <path class="cls-12" d="M37.33,18.49c.3-.11,1.02.35.71.71-4.24,9.05,5.12,13.53,5.3,21.56-1.5-7.29-7.9-10.72-7.24-18.55.05-.65.56-3.45,1.24-3.71Z"/>
          <path class="cls-6" d="M47.4,43.76c-.17-.32-1.77.4-2.12.53-.55.2-.86-.55-1.06-.18-.1.2.68,3.73.71,4.42.14,4.68.05,9.3.71,13.96l.53.53c1.93.02,1.04-17.15,1.24-19.26Z"/>
          <path class="cls-8" d="M29.38,89.17v-.35c.13.16.89.51,1.06.88-.62.65-1-.51-1.06-.53Z"/>
          <polygon class="cls-9" points="48.28 29.09 48.81 29.27 48.28 29.8 48.11 29.62 48.28 29.09"/>
          <g>
            <path class="cls-15" d="M17.89,1.17C27.67.12,38.68,6.9,46.34,12.3c-3.21-1.66-9.16,4.77-9.72,4.77s-7.16-5.83-8.48-6.71c-4.37-2.94-9.25-5.64-13.43-8.48.94-.03,2.35-.62,3.18-.71Z"/>
            <g>
              <path class="cls-8" d="M28.32,87.75l-.35,1.06c-.71-.19-1.76-.68-2.47-.71-.04-.31.09-.32.35-.35.94-.11,1.53-.34,2.47,0Z"/>
              <path class="cls-8" d="M25.84,87.05c-.02-.34.14-.72-.35-.71.14,0,2.33-1.56.35.71Z"/>
              <path class="cls-12" d="M23.55,88.82c3.1-.77,11.61,3.15,5.65,5.3-6.26,2.26-10.08-4.19-5.65-5.3Z"/>
            </g>
            <g>
              <path class="cls-15" d="M50.58,29.8c.29-.02.39-.25.71-.35.74-.24,1.53.05,1.59,0,.37-.28.07-.89.18-1.06.05-.08-.04-.24,0-.35.08-.21.92-.82.71-1.41-.02-1.49-.98-.35-1.06-.35-.1,0-.26-.02-.35,0l-1.77-.88c.29,1.16-.24,2.29-.35,3.36l-2.12-.53,4.95-16.96.71-.35,2.3,1.59c-.12-1.94-1.22-1.85-.18-4.06,1.5,2.4,2.29-.45,3,1.59v-3.53l1.77,1.77c1.64-1.11-.35-1.18.71-2.47,3.16,1.81,1.81,0,2.47-.35.61-.32,1.5.51,2.12.35.45-.12.92-1.62,3-.18.09.89-4.54.79-.35,1.41.47,1.7-.74,1.47-1.06,2.12-4.76,9.55-11.2,22.14-19.61,28.45-.83-3.76.22-5.52,1.77-8.48l.35,2.47c.45-.54.43-1.12.53-1.77Z"/>
              <g>
                <path class="cls-1" d="M52.35,26.26c-.3.08-.62-.75-1.06-.18v3.36c-.32.1-.42.33-.71.35.1-.66-.38-.77-.35-1.06.12-1.07.64-2.2.35-3.36l1.77.88Z"/>
                <path class="cls-4" d="M52.35,26.26c.1-.02.25,0,.35,0,.29.31,1.04.3,1.06.35.21.6-.63,1.2-.71,1.41l-.71-.18.71.53c-.11.17.19.78-.18,1.06-.06.05-.85-.24-1.59,0v-3.36c.44-.57.76.25,1.06.18Z"/>
                <g>
                  <path class="cls-1" d="M59.59,12.83l3.36,1.59-2.83-.35-.18,4.42-3-.88c-.4,1.89,1.27,3.36-.18,4.77.32-1.09-2.31-1.81-2.65-1.24l1.06,4.24-4.42-.88c-.41-1.68,2.41.3,3-.53.76-1.06-2.06-4.39,2.83-3.53l-.18-3.71c5.23,1.28,2.7-.02,3.18-3.89Z"/>
                  <path class="cls-7" d="M66.13,10.36c-1.53,1.68-1.49.39-3.89-.18.77-.84,3.44,1.09,3.89.18Z"/>
                  <path class="cls-14" d="M66.13,10.36c.07-.14.06-3.23.53-3.18.51,1.55.57,1.97-.53,3.18Z"/>
                  <path class="cls-14" d="M62.42,11.06l.71,2.47c-.7.27-1.22-1.99-.71-2.47Z"/>
                  <path class="cls-3" d="M55,22.02l.71,1.41c-.63-.48-1.29-.45-.71-1.41Z"/>
                </g>
                <path class="cls-1" d="M53.76,26.61c-.02-.05-.77-.04-1.06-.35.08,0,1.04-1.14,1.06.35Z"/>
              </g>
            </g>
          </g>
          <path class="cls-10" d="M53.06,28.03c-.04.11.05.28,0,.35l-.71-.53.71.18Z"/>
          <g>
            <path class="cls-12" d="M58.18,51.71c9.59-1.3,8.04,7.18,2.12,11.31-2.31,1.61-8.88,3.78-11.31,2.12-.72-.49.21-2.38.18-3-.01-.25-1.8-.08,0-3.53,1.29-2.46,6.22-6.51,9.01-6.89Z"/>
            <g>
              <path class="cls-2" d="M54.65,58.42c1.2-.61,1.01,1.42.35,1.41-.33,0-.86-1.16-.35-1.41Z"/>
              <path class="cls-17" d="M53.23,59.13c.33,0,.86,1.16.35,1.41-1.2.61-1.01-1.42-.35-1.41Z"/>
              <path class="cls-2" d="M59.24,56.3c.61,0,.61,1.41,0,1.41s-.61-1.41,0-1.41Z"/>
              <path class="cls-2" d="M51.47,60.54c1.15.3-.06,2.32-.35.71-.08-.43.26-.73.35-.71Z"/>
              <path class="cls-11" d="M50.05,61.96c.33-.02.57,1.56,0,1.41-.74-.19-.53-1.38,0-1.41Z"/>
              <path class="cls-11" d="M60.3,54.18c.75-.33,1.03,1.12.35,1.06-.22-.02-.84-.84-.35-1.06Z"/>
              <path class="cls-2" d="M57.12,58.07c.71-.14.7.9.35,1.06-.14.07-.89-.95-.35-1.06Z"/>
            </g>
          </g>
        </g>
      </g>
    </g>
  </g>
</svg>