<?xml version="1.0" encoding="UTF-8"?>
<svg xmlns="http://www.w3.org/2000/svg" xmlns:xlink="http://www.w3.org/1999/xlink" viewBox="0 0 391.13 331.93">
  <defs>
    <style>
      .cls-1 {
        fill: #e7ffcc;
      }

      .cls-1, .cls-2, .cls-3, .cls-4, .cls-5, .cls-6, .cls-7, .cls-8, .cls-9, .cls-10, .cls-11, .cls-12, .cls-13, .cls-14, .cls-15, .cls-16, .cls-17 {
        stroke: #010001;
      }

      .cls-1, .cls-3, .cls-4, .cls-8, .cls-9, .cls-10, .cls-11, .cls-12, .cls-13, .cls-14, .cls-18, .cls-15, .cls-16 {
        stroke-linejoin: round;
      }

      .cls-1, .cls-4, .cls-7, .cls-9, .cls-19, .cls-14, .cls-18, .cls-15, .cls-16, .cls-17 {
        stroke-width: 2px;
      }

      .cls-2 {
        fill: #439100;
      }

      .cls-2, .cls-5, .cls-6, .cls-7, .cls-19, .cls-17 {
        stroke-miterlimit: 10;
      }

      .cls-20 {
        fill: url(#radial-gradient-9);
      }

      .cls-20, .cls-21, .cls-22, .cls-23, .cls-24, .cls-19, .cls-25, .cls-26, .cls-27, .cls-28 {
        mix-blend-mode: screen;
      }

      .cls-21 {
        fill: url(#radial-gradient-3);
      }

      .cls-22 {
        fill: url(#radial-gradient-2);
      }

      .cls-23 {
        fill: url(#radial-gradient-7);
      }

      .cls-3 {
        fill: #74b581;
      }

      .cls-4 {
        fill: #f09f7e;
      }

      .cls-24 {
        fill: url(#radial-gradient);
        opacity: .25;
      }

      .cls-5 {
        fill: #4ea800;
      }

      .cls-6 {
        fill: #f0d9aa;
      }

      .cls-7 {
        fill: #f1b62d;
      }

      .cls-29 {
        isolation: isolate;
      }

      .cls-8 {
        fill: #282222;
      }

      .cls-9 {
        fill: #e0662e;
      }

      .cls-10 {
        fill: #fefefa;
      }

      .cls-19 {
        opacity: .03;
        stroke: #fff;
      }

      .cls-19, .cls-14, .cls-15 {
        fill: none;
      }

      .cls-11 {
        fill: #444b8f;
      }

      .cls-12 {
        fill: #262122;
      }

      .cls-13 {
        fill: #eea91c;
      }

      .cls-14 {
        stroke-linecap: round;
      }

      .cls-18 {
        fill: #010001;
        stroke: #282324;
      }

      .cls-30 {
        fill: #ff593b;
        mix-blend-mode: color-burn;
        opacity: .7;
      }

      .cls-16 {
        fill: #fffffa;
      }

      .cls-25 {
        fill: url(#radial-gradient-5);
        opacity: .15;
      }

      .cls-26 {
        fill: url(#radial-gradient-4);
        opacity: .2;
      }

      .cls-27 {
        fill: url(#radial-gradient-6);
      }

      .cls-27, .cls-28 {
        opacity: .5;
      }

      .cls-28 {
        fill: url(#radial-gradient-8);
      }

      .cls-17 {
        fill: #e9d4a6;
      }
    </style>
    <radialGradient id="radial-gradient" cx="347.93" cy="284.03" fx="347.93" fy="284.03" r="37.8" gradientUnits="userSpaceOnUse">
      <stop offset=".1" stop-color="#000"/>
      <stop offset=".15" stop-color="#181407"/>
      <stop offset=".21" stop-color="#2e250d"/>
      <stop offset=".27" stop-color="#3f3312"/>
      <stop offset=".36" stop-color="#4b3c15"/>
      <stop offset=".47" stop-color="#524217"/>
      <stop offset=".8" stop-color="#544418"/>
      <stop offset="1" stop-color="#000"/>
    </radialGradient>
    <radialGradient id="radial-gradient-2" cx="347.93" cy="292.04" fx="347.93" fy="292.04" r="1.26" gradientUnits="userSpaceOnUse">
      <stop offset="0" stop-color="#cae095"/>
      <stop offset=".06" stop-color="#a7b97b"/>
      <stop offset=".14" stop-color="#808e5e"/>
      <stop offset=".22" stop-color="#5d6845"/>
      <stop offset=".31" stop-color="#40472f"/>
      <stop offset=".4" stop-color="#292d1e"/>
      <stop offset=".5" stop-color="#161910"/>
      <stop offset=".62" stop-color="#090a07"/>
      <stop offset=".76" stop-color="#020201"/>
      <stop offset="1" stop-color="#000"/>
    </radialGradient>
    <radialGradient id="radial-gradient-3" cy="282.79" fy="282.79" xlink:href="#radial-gradient-2"/>
    <radialGradient id="radial-gradient-4" cx="338.48" cy="268.43" fx="338.48" fy="268.43" r="9.45" gradientUnits="userSpaceOnUse">
      <stop offset=".05" stop-color="#000"/>
      <stop offset=".09" stop-color="#030803"/>
      <stop offset=".3" stop-color="#133314"/>
      <stop offset=".48" stop-color="#1e5221"/>
      <stop offset=".64" stop-color="#256529"/>
      <stop offset=".75" stop-color="#286c2c"/>
      <stop offset=".79" stop-color="#4b6b19"/>
      <stop offset=".84" stop-color="#6d6b06"/>
      <stop offset=".86" stop-color="#7b6b00"/>
      <stop offset=".89" stop-color="#776700"/>
      <stop offset=".91" stop-color="#6c5e00"/>
      <stop offset=".94" stop-color="#5a4e00"/>
      <stop offset=".96" stop-color="#403800"/>
      <stop offset=".98" stop-color="#201b00"/>
      <stop offset="1" stop-color="#000"/>
    </radialGradient>
    <radialGradient id="radial-gradient-5" cx="347.93" cy="282.35" fx="347.93" fy="282.35" r="25.2" gradientUnits="userSpaceOnUse">
      <stop offset="0" stop-color="#230000"/>
      <stop offset=".73" stop-color="#93432a"/>
      <stop offset="1" stop-color="#230000"/>
    </radialGradient>
    <radialGradient id="radial-gradient-6" cx="347.93" cy="282.35" fx="347.93" fy="282.35" r="12.6" gradientUnits="userSpaceOnUse">
      <stop offset=".15" stop-color="#fff"/>
      <stop offset=".21" stop-color="#e1d0d1"/>
      <stop offset=".29" stop-color="#bf9a9c"/>
      <stop offset=".36" stop-color="#a67275"/>
      <stop offset=".42" stop-color="#96595d"/>
      <stop offset=".45" stop-color="#915155"/>
      <stop offset=".56" stop-color="#6b3538"/>
      <stop offset=".68" stop-color="#441819"/>
      <stop offset=".79" stop-color="#2b0606"/>
      <stop offset=".85" stop-color="#230000"/>
      <stop offset=".86" stop-color="#270201"/>
      <stop offset=".86" stop-color="#330805"/>
      <stop offset=".87" stop-color="#48120b"/>
      <stop offset=".88" stop-color="#652014"/>
      <stop offset=".89" stop-color="#8a331f"/>
      <stop offset=".9" stop-color="#b8492c"/>
      <stop offset=".9" stop-color="#d65836"/>
      <stop offset=".9" stop-color="#c95132"/>
      <stop offset=".91" stop-color="#9d3c24"/>
      <stop offset=".93" stop-color="#772919"/>
      <stop offset=".94" stop-color="#581a10"/>
      <stop offset=".95" stop-color="#410e09"/>
      <stop offset=".97" stop-color="#300603"/>
      <stop offset=".98" stop-color="#260100"/>
      <stop offset="1" stop-color="#230000"/>
    </radialGradient>
    <radialGradient id="radial-gradient-7" cx="347.93" cy="282.35" fx="347.93" fy="282.35" r="10.5" gradientUnits="userSpaceOnUse">
      <stop offset=".15" stop-color="#fff"/>
      <stop offset=".28" stop-color="#c2c2c2"/>
      <stop offset=".43" stop-color="#878787"/>
      <stop offset=".56" stop-color="#575757"/>
      <stop offset=".69" stop-color="#313131"/>
      <stop offset=".81" stop-color="#161616"/>
      <stop offset=".92" stop-color="#050505"/>
      <stop offset="1" stop-color="#000"/>
    </radialGradient>
    <radialGradient id="radial-gradient-8" cx="347.93" cy="282.79" fx="347.93" fy="282.79" r="18.9" gradientUnits="userSpaceOnUse">
      <stop offset=".64" stop-color="#000"/>
      <stop offset=".72" stop-color="#000100"/>
      <stop offset=".75" stop-color="#000802"/>
      <stop offset=".77" stop-color="#001404"/>
      <stop offset=".78" stop-color="#002508"/>
      <stop offset=".8" stop-color="#003b0d"/>
      <stop offset=".8" stop-color="#004510"/>
      <stop offset=".82" stop-color="#182809"/>
      <stop offset=".83" stop-color="#2a1104"/>
      <stop offset=".85" stop-color="#360401"/>
      <stop offset=".86" stop-color="#3a0000"/>
      <stop offset=".87" stop-color="#250000"/>
      <stop offset=".89" stop-color="#140000"/>
      <stop offset=".9" stop-color="#080000"/>
      <stop offset=".93" stop-color="#010000"/>
      <stop offset="1" stop-color="#000"/>
    </radialGradient>
    <radialGradient id="radial-gradient-9" cx="347.63" cy="284.05" fx="347.63" fy="284.05" r="1.88" gradientUnits="userSpaceOnUse">
      <stop offset=".1" stop-color="#000"/>
      <stop offset=".21" stop-color="#100b12"/>
      <stop offset=".4" stop-color="#271b2c"/>
      <stop offset=".59" stop-color="#37263f"/>
      <stop offset=".79" stop-color="#412d4b"/>
      <stop offset="1" stop-color="#45304f"/>
    </radialGradient>
  </defs>
  <g class="cls-29">
    <g id="Layer_2" data-name="Layer 2">
      <g id="green-snake">
        <g id="flower-stamen">
          <path class="cls-4" d="M214.11,191.56l-10.41-11.38-10.41,11.38c-4.74,5.18-7.36,11.95-7.36,18.97v35.59c0,9.81,7.96,17.77,17.77,17.77h0c9.81,0,17.77-7.96,17.77-17.77v-35.59c0-7.02-2.63-13.79-7.36-18.97Z"/>
        </g>
        <g id="flower-base">
          <polygon class="cls-16" points="239.88 323.68 166.26 323.68 153.7 251.78 252.45 251.78 239.88 323.68"/>
        </g>
        <path id="flower-petals" class="cls-9" d="M271.37,208.98v32.21c0,9.69-7.85,17.54-17.54,17.54h-100.78c-9.69,0-17.54-7.85-17.54-17.54v-32.04l18.19,23.66,16.47-21.41,16.46,21.41,16.46-21.42,16.46,21.42,16.46-21.42,16.47,21.42,18.32-23.84h.6Z"/>
        <g id="body">
          <path class="cls-3" d="M324.71,330.76H108.68C48.93,330.76.5,280.02.5,220.28v-96.45C.5,61.69,50.87,11.32,113.01,11.32h35.28c8.48,0,13.98,8.91,10.21,16.51-2.24,4.51-3.5,9.59-3.5,14.97,0,14.78,9.54,27.34,22.8,31.86,1.68.57,2.48,2.48,1.74,4.09-.01.02-.02.05-.03.07-.56,1.21-1.86,1.93-3.17,1.71-3.99-.68-7.16-3.14-10.88-2.52-2.18.37-4.38.75-6.42,1.6-6.83,2.86-7.39,13.23-7.57,20.63-.04,1.63.1,3.22.36,4.78-2.63-6.44-6.81-11.21-11.35-14.73-14.19-11.02-34.01-11.47-49.03-1.6-13.22,8.69-21.95,23.66-21.95,40.66v85.32c0,28.5,23.11,51.61,51.62,51.61h134.95c35.81,0,68.2,29.65,68.65,64.49Z"/>
        </g>
        <g id="bottom-jaw">
          <path class="cls-3" d="M367.18,84.41l-.32,23.32c-.24,17.4-14.53,31.31-31.92,31.07l-152.26-2.06c-17.4-.24-27.61-12.93-30.52-25.57,0,0-6.54-24.09,3.87-28.26,2.05-.82,4.26-1.17,6.44-1.51,3.26-.51,6.87-.7,10.61-.81,1.94-.05,3.27,1.94,2.48,3.71l2.11-2.45,189.5,2.57Z"/>
          <path class="cls-2" d="M367.04,82.69c-40.92-.62-210-2.85-202.64-2.77-.43,0-3.41-.07-4.02,0-15.01,2.19-15.01,27.08-.46,29.53,4.24.62,11.39,3.44,15.5,3.95,3.54.43,6.75,2.58,8.73,5.68.5.74.97,1.42,1.59,2.05,3.24,3.19,8.19,4.91,12.45,4.63,10.19-.79,9.14-10.66,18.75-11.77,2.77-.23,5.96.02,8.86,0,4.14-.15,8.35,1.96,10.72,5.65,1.26,2.02,2.82,3.45,4.88,4.58,4.95,2.79,11.27,3.32,15.85-.29,1.31-.98,2.38-2.25,3.33-3.64,2.07-3.1,5.27-5.19,8.83-5.59,2.52-.22,5.3,0,7.97-.01,5.01-.39,9.78,2.18,12.43,6.84,4.58,5.89,14.6,7.68,20.22,3.39,1.21-1.04,2.08-2.4,2.98-3.77,2.05-3.2,5.42-5.41,9.09-5.75,10.71-.13,30.12.4,40.37.45,2.6-.06,4.11.26,4.12-.1-.04-1.9.47-30.81.45-33.04h0Z"/>
        </g>
        <g id="tooth">
          <path class="cls-6" d="M337,25.6c-.8-17.66,19.87-23.79,29.14-11.34,2.67,3.59,3.73,8.12,3.29,12.57l-2.39,24.12c-1.04,10.5-14.92,12.62-19.1,2.92l-9.45-21.96c-.86-2-1.4-4.14-1.5-6.31Z"/>
        </g>
        <g id="top-jaw">
          <path class="cls-3" d="M277.88,18.45l.07,1.26-12.87,1.24c-14.36,2.11-29.66,6.53-43.69,14.1-16.33,8.8-30.95,21.87-40.39,40.52-14.91-3.46-26.01-16.82-26.01-32.77,0-.51.01-1.03.03-1.53.76-16.88,15.14-29.95,32.03-29.95h92.2c-1.54,1.93-1.52,4.48-1.37,7.13Z"/>
          <path class="cls-13" d="M370.08,28.85l-2.15.27-16.56,2.1-21.19,2.69-69.88,8.87c-14.41,1.83-26.64,11.59-31.96,24.5-5.83,14.14-16.04,26.17-29.7,33.05-12.09,6.09-27.98,6.67-26.19-14.78.22-2.59,1.53-4.97,3.63-6.49,2.24-1.63,4.9-3.68,5.08-4.02,1-1.97,2.07-3.9,3.19-5.8,2.21-3.71,4.66-7.27,7.35-10.65,5.24-6.6,11.37-12.48,18.17-17.45,15.57-11.39,33.08-18.13,50.42-20.16,9.24-1.08,13.16-.58,17.49-1.11l-.07-1.25c-.15-2.65-.17-5.2,1.37-7.13,2.07-2.61,5.26-4.27,8.84-4.27h43.6l13.73-2.24c7.18-1.22,14.21,1.57,18.83,6.51,1,1.07,1.9,2.24,2.64,3.49,1.42,2.35,2.36,4.98,2.68,7.78l.41,3.65.27,2.44Z"/>
          <circle class="cls-8" cx="348.95" cy="17.66" r="5.1"/>
        </g>
        <g id="eyeball">
          <circle class="cls-11" cx="163.68" cy="42.8" r="42.3"/>
          <circle class="cls-12" cx="163.68" cy="42.8" r="26.12"/>
          <circle class="cls-10" cx="163.68" cy="42.8" r="20.98"/>
          <circle class="cls-10" cx="163.68" cy="42.8" r="20.98"/>
        </g>
        <g id="pupil">
          <circle class="cls-1" cx="163.68" cy="42.8" r="11.45"/>
          <circle class="cls-18" cx="163.68" cy="42.8" r="4.82"/>
        </g>
        <g id="grass-foreground">
          <path class="cls-5" d="M280.91,302.51c-10.73,0-19.42,8.7-19.42,19.42,0-10.73-8.7-19.42-19.42-19.42-8.45,0-15.64,5.4-18.31,12.94-2.67-7.54-9.86-12.94-18.31-12.94s-15.95,5.64-18.48,13.43c-2.53-7.79-9.84-13.43-18.48-13.43-10.73,0-19.42,8.7-19.42,19.42,0-10.73-8.7-19.42-19.42-19.42s-19.42,8.7-19.42,19.42v9h190.12v-9c0-10.73-8.7-19.42-19.42-19.42Z"/>
          <line class="cls-14" x1="369.4" y1="330.93" x2="4.16" y2="330.93"/>
        </g>
        <g id="lightbulb-color">
          <path class="cls-30" d="M361.62,282.31c0-7.89-6.58-14.24-14.54-13.87-7.12.33-12.95,6.22-13.22,13.34-.21,5.58,2.89,10.46,7.49,12.85v28.92c0,1.66,1.35,3.01,3.01,3.01h6.75c1.66,0,3.01-1.35,3.01-3.01v-28.92c4.45-2.31,7.49-6.96,7.49-12.32Z"/>
        </g>
        <g id="flare">
          <circle class="cls-24" cx="347.93" cy="284.03" r="37.8"/>
          <circle class="cls-22" cx="347.93" cy="292.04" r="1.26"/>
          <circle class="cls-21" cx="347.93" cy="282.79" r="1.26"/>
          <circle class="cls-26" cx="338.48" cy="268.43" r="9.45"/>
          <circle class="cls-25" cx="347.93" cy="282.35" r="25.2"/>
          <circle class="cls-27" cx="347.93" cy="282.35" r="12.6"/>
          <circle class="cls-23" cx="347.93" cy="282.35" r="10.5"/>
          <polyline class="cls-19" points="347.93 282.35 361.33 325.26 347.93 282.35 334.53 239.45 347.93 282.35 305.02 295.75 347.93 282.35 390.84 268.96 347.93 282.35 351.06 300.11 347.93 282.35 344.8 264.59 347.93 282.35 330.17 285.49 347.93 282.35 365.69 279.22 347.93 282.35 359.32 317.71 347.93 282.35 336.54 246.99 347.93 282.35 312.57 293.74 347.93 282.35 383.29 270.96 347.93 282.35 371.97 306.8 347.93 282.35 323.89 257.9 347.93 282.35 323.48 306.39 347.93 282.35 372.38 258.31 347.93 282.35 358.3 325.21 347.93 282.35 337.56 239.5 347.93 282.35 305.07 292.72 347.93 282.35 390.79 271.98"/>
          <circle class="cls-28" cx="347.93" cy="282.79" r="18.9"/>
          <circle class="cls-20" cx="347.63" cy="284.05" r="1.88"/>
        </g>
        <g id="lightbulb-outline">
          <path class="cls-15" d="M361.62,282.31c0-7.89-6.58-14.24-14.54-13.87-7.12.33-12.95,6.22-13.22,13.34-.21,5.58,2.89,10.46,7.49,12.85v28.92c0,1.66,1.35,3.01,3.01,3.01h6.75c1.66,0,3.01-1.35,3.01-3.01v-28.92c4.45-2.31,7.49-6.96,7.49-12.32Z"/>
          <g>
            <rect class="cls-17" x="337.89" y="310.29" width="19.68" height="20.64"/>
            <rect class="cls-7" x="334.81" y="310.29" width="25.85" height="4.89"/>
            <rect class="cls-7" x="334.81" y="318.8" width="25.85" height="4.89"/>
          </g>
        </g>
      </g>
    </g>
  </g>
</svg>