<?xml version="1.0" encoding="UTF-8"?>
<svg id="Layer_2" data-name="Layer 2" xmlns="http://www.w3.org/2000/svg" xmlns:xlink="http://www.w3.org/1999/xlink" viewBox="0 0 431.05 461.49">
  <defs>
    <style>
      .cls-1, .cls-2 {
        fill: none;
      }

      .cls-3 {
        fill: #7bb889;
      }

      .cls-3, .cls-4, .cls-5, .cls-6, .cls-7, .cls-8, .cls-9, .cls-10, .cls-11, .cls-12, .cls-2, .cls-13, .cls-14, .cls-15, .cls-16, .cls-17, .cls-18, .cls-19, .cls-20, .cls-21, .cls-22, .cls-23, .cls-24, .cls-25, .cls-26, .cls-27, .cls-28, .cls-29, .cls-30, .cls-31 {
        stroke: #010101;
      }

      .cls-3, .cls-4, .cls-5, .cls-6, .cls-8, .cls-9, .cls-11, .cls-12, .cls-14, .cls-15, .cls-16, .cls-32, .cls-33, .cls-34, .cls-19, .cls-20, .cls-21, .cls-23, .cls-35, .cls-36, .cls-28, .cls-29 {
        stroke-miterlimit: 10;
      }

      .cls-37 {
        fill: #010101;
      }

      .cls-4 {
        fill: #ecdebc;
      }

      .cls-5 {
        fill: #77bc88;
      }

      .cls-6 {
        fill: #e79a47;
      }

      .cls-7 {
        fill: #718fbc;
      }

      .cls-7, .cls-10, .cls-2, .cls-13, .cls-17, .cls-18, .cls-22, .cls-24, .cls-25, .cls-26, .cls-27, .cls-30, .cls-31 {
        stroke-linejoin: round;
      }

      .cls-8 {
        fill: #df4f2b;
      }

      .cls-9, .cls-38 {
        fill: #ead15f;
      }

      .cls-10 {
        fill: #fecb41;
      }

      .cls-11, .cls-13 {
        fill: #eadebc;
      }

      .cls-12 {
        fill: #ea6445;
      }

      .cls-39 {
        fill: #12080c;
      }

      .cls-14 {
        fill: #f3e6c2;
      }

      .cls-40 {
        clip-path: url(#clippath-1);
      }

      .cls-15 {
        fill: #8fc57d;
      }

      .cls-16 {
        fill: #e65234;
      }

      .cls-32 {
        fill: #fed044;
      }

      .cls-32, .cls-33, .cls-34, .cls-35, .cls-36 {
        stroke: #010000;
      }

      .cls-33 {
        fill: #301e31;
      }

      .cls-34 {
        fill: #e99ea8;
      }

      .cls-17, .cls-29 {
        fill: #ebdeb9;
      }

      .cls-18 {
        fill: #e29a47;
      }

      .cls-19 {
        fill: #301c31;
      }

      .cls-41 {
        fill: #a4d19a;
      }

      .cls-20 {
        fill: #e5d7b7;
      }

      .cls-21, .cls-42 {
        fill: #eee0bc;
      }

      .cls-22 {
        fill: #fdc83b;
      }

      .cls-23 {
        fill: #81bb87;
      }

      .cls-35 {
        fill: #fffdff;
      }

      .cls-43, .cls-27 {
        fill: #eddebb;
      }

      .cls-24 {
        fill: #311c32;
      }

      .cls-25 {
        fill: #301d2f;
      }

      .cls-26 {
        fill: #fbc93e;
      }

      .cls-36 {
        fill: #eca1a7;
      }

      .cls-28 {
        fill: #fdfdfe;
      }

      .cls-30 {
        fill: #ea6745;
      }

      .cls-31 {
        fill: #ea9f43;
      }

      .cls-44 {
        clip-path: url(#clippath);
      }
    </style>
    <clipPath id="clippath">
      <rect class="cls-27" x="94.28" y="51.32" width="164.67" height="25.15" rx="3.3" ry="3.3"/>
    </clipPath>
    <clipPath id="clippath-1">
      <path class="cls-1" d="M223.88,390.11v51.73h132.47v-51.73h-132.47ZM352.26,427.02h-11.45c3.35-2.94,5.27-6.91,5.27-11.05s-1.72-7.78-4.86-10.71v-.03h11.22c1.9,3.34,2.9,7.02,2.9,10.74s-1.07,7.63-3.09,11.05Z"/>
    </clipPath>
  </defs>
  <g id="yellow-bat">
    <g id="lower-tines">
      <path class="cls-19" d="M357.52,112.09h30.11v128.98c0,7.94-6.45,14.39-14.39,14.39h-1.33c-7.94,0-14.39-6.45-14.39-14.39V112.09h0Z"/>
      <path class="cls-19" d="M272.74,111.91h30.11v128.98c0,7.94-6.45,14.39-14.39,14.39h-1.33c-7.94,0-14.39-6.45-14.39-14.39V111.91h0Z"/>
      <path class="cls-11" d="M300.76,112.09h30.11v157.28h-22.18c-4.38,0-7.93-3.55-7.93-7.93V112.09h0Z"/>
      <path class="cls-11" d="M329.73,112.09h30.11v149.35c0,4.38-3.55,7.93-7.93,7.93h-22.18V112.09h0Z"/>
    </g>
    <g id="inner-snout">
      <circle class="cls-24" cx="96.41" cy="63.89" r="9.57"/>
      <g>
        <rect class="cls-43" x="94.28" y="51.32" width="164.67" height="25.15" rx="3.3" ry="3.3"/>
        <g class="cls-44">
          <rect class="cls-25" x="108.86" y="49.37" width="17.44" height="28.61"/>
          <rect class="cls-30" x="92.11" y="49.37" width="17.44" height="28.61"/>
          <rect class="cls-25" x="224.62" y="49.37" width="17.44" height="28.61" transform="translate(466.69 127.35) rotate(180)"/>
          <rect class="cls-30" x="241.37" y="49.37" width="17.44" height="28.61" transform="translate(500.19 127.35) rotate(180)"/>
          <path class="cls-24" d="M184.71,77.98h-3.31c-8.87,0-16.07-6.4-16.07-14.31h0c0-7.9,7.19-14.31,16.07-14.31h3.31"/>
          <path class="cls-24" d="M175.02,77.98h3.31c8.87,0,16.07-6.4,16.07-14.31h0c0-7.9-7.19-14.31-16.07-14.31h-3.31"/>
        </g>
        <rect class="cls-2" x="94.28" y="51.32" width="164.67" height="25.15" rx="3.3" ry="3.3"/>
      </g>
    </g>
    <g id="tan-sail">
      <path class="cls-18" d="M264.41,120.41l-52.5,3.33-.17-.38-1.78-3.91-8.42-18.5c.1.01.2.01.3.01l61.59-3.67c.17.44.26.92.26,1.44,0,5.62-10.8,5.79-11.48,11.08-.02.17-.03.35-.03.52,0,3.96,5.83,5.22,9.54,7.45,1.21.73,2.2,1.56,2.68,2.63Z"/>
      <path class="cls-18" d="M264.24,143.31c.15.24.26.5.33.77l-42.19,2.68-.84-1.84-.1-.24-2.61-5.71-6.93-15.22,52.5-3.33c.18.38.28.8.31,1.26.02.09.02.18.02.27,0,5.81-12.55,5.81-12.55,11.61,0,2.64,2.61,4.08,5.44,5.41,2.65,1.24,5.49,2.39,6.61,4.34Z"/>
      <path class="cls-18" d="M263.91,189.22c.15.19.28.39.39.6l-21.68,1.37-.9-1.97-3.75-8.22-3.67-8.07-1.98-4.35,31.95-2.02c.3.53.47,1.13.47,1.8,0,2.09-1.64,3.44-3.75,4.57-3.69,2-8.81,3.34-8.81,7.04,0,.37.05.7.14,1.03,1.15,3.99,8.99,4.9,11.58,8.22Z"/>
      <path class="cls-18" d="M261.95,222.61l-4.99.11-3.6-7.92-.81-1.78,11.23-.72c.61.7.96,1.52.96,2.5l.61,3.43c.51,2.21-1.13,4.32-3.4,4.37Z"/>
      <path class="cls-18" d="M264.28,166.56l-31.95,2.02-1.84-4.04-4.15-9.12-3.94-8.66,42.19-2.68c.09.26.15.54.16.84.01.08.01.16.01.24,0,5.31-10.55,5.75-12.3,10.26-.17.41-.25.86-.25,1.34,0,4.14,6.41,5.33,10.08,7.78.87.59,1.58,1.23,2.01,2.02Z"/>
      <path class="cls-18" d="M263.78,212.3l-11.23.72-1.21-2.67-.73-1.6-2.81-6.19-1.84-4.04-3.34-7.33,21.68-1.37c.29.52.45,1.11.45,1.76,0,3.65-4.96,5-8.64,6.95-1.96,1.04-3.56,2.24-3.85,4.04-.04.2-.06.41-.06.63,0,.54.12,1.05.31,1.51.04.1.1.21.16.3.05.09.11.19.17.27.04.04.07.09.1.14.01.02.03.04.04.06.04.05.08.1.13.16.03.04.06.08.09.11.06.07.13.15.2.22.02.02.03.03.05.05.08.08.19.18.28.26.12.1.23.21.36.3.13.09.25.2.39.29.25.17.5.34.77.5.03.01.05.02.07.04.29.17.59.32.89.49.18.08.36.18.52.26.33.17.67.32,1,.48.02.01.05.02.07.03,1.16.55,2.35,1.08,3.43,1.67.37.21.72.42,1.06.65.13.07.24.16.35.24.44.32.83.67,1.14,1.06Z"/>
    </g>
    <g id="snout">
      <path class="cls-18" d="M263.44,97.29l-61.59,3.67c-.1,0-.2,0-.3-.01-2.02-.02-3.98-.29-5.85-.78-10.33-2.71-17.94-12.12-17.94-23.3v-1.35h74.14v10.94c0,2.4.97,4.56,2.54,6.14.09.09.2.2.3.29.21.19.42.37.65.53,1.44,1.09,3.24,1.73,5.2,1.73h1.16c.38.3.71.63.99.97.29.36.53.74.7,1.16Z"/>
      <path class="cls-22" d="M268.78,52.97l.63,22.55h-91.65v-23.23c0-4.3,3.49-7.79,7.79-7.79h71.18c3.04,0,5.91.81,8.39,2.22.01,0,.03.01.04.02,2.22,1.27,3.56,3.67,3.63,6.23Z"/>
      <path class="cls-17" d="M269.82,77.61h-92.07v-5.58h92.07c1.61,0,1.61,5.58,0,5.58Z"/>
    </g>
    <g id="wing">
      <g>
        <rect class="cls-13" x="392.89" y="109.23" width="11.69" height="15.97" rx="5.04" ry="5.04"/>
        <rect class="cls-13" x="392.89" y="170.93" width="11.69" height="15.89" rx="5.43" ry="5.43"/>
        <rect class="cls-31" x="390.69" y="130.57" width="13.89" height="32.19" rx="6.64" ry="6.64"/>
        <path class="cls-31" d="M397.33,187.29h.61c3.66,0,6.64,2.97,6.64,6.64v10.17c0,6.55-5.32,11.87-11.87,11.87h-.61c-.77,0-1.4-.63-1.4-1.4v-20.64c0-3.66,2.97-6.64,6.64-6.64Z"/>
        <path class="cls-10" d="M395.36,114.98v3.59c0,3.36,2.71,6.07,6.06,6.07h1.22c1.52,0,2.75,1.23,2.75,2.75v2.44c0,1.51-1.23,2.74-2.75,2.74-2.01,0-3.83.82-5.15,2.14-1.31,1.32-2.13,3.14-2.13,5.15v15.62c0,4.02,3.26,7.29,7.28,7.29.76,0,1.45.31,1.94.8s.81,1.18.81,1.94v2.44c0,1.52-1.23,2.75-2.75,2.75-2.01,0-3.83.81-5.15,2.13-1.31,1.32-2.13,3.14-2.13,5.16v2.37c0,3.36,2.71,6.07,6.06,6.07,1.1,0,2.09.44,2.81,1.16.71.72,1.16,1.72,1.16,2.81h0c0,2.2-1.78,3.97-3.97,3.97-1.68,0-3.19.68-4.29,1.78-1.09,1.1-1.77,2.62-1.77,4.29v18.19l-4.67,7.07-1.97,2.97c-.47.72-.99,1.38-1.56,1.99v-93.19c0-1.92-.78-3.65-2.04-4.9-.65-.65-1.43-1.16-2.3-1.5-.75-.31-1.58-.48-2.44-.49v-44.59l14.98,14.97h.01s6.05.01,6.05.01c2.19,0,3.97,1.77,3.97,3.96h0c0,2.2-1.78,3.98-3.97,3.98-1.68,0-3.19.68-4.29,1.78-1.09,1.09-1.77,2.61-1.77,4.29Z"/>
      </g>
      <path class="cls-22" d="M395.35,45.88c.14,3.94-.08,49.91,0,54.64-.01.16-.08.25-.28.25-.47.01-1.18-.29-1.75-.48-5.43-1.85-10.01-7.29-12.55-13.48-.48-1.14-.37-1.31-.38-2.26.04-9.32-.03-34.8,0-38.8.38-15.38-11.97-29.59-27.52-30.16-9.43-.54-18.48,3.55-24.31,10.79-2.9,3.76-4.91,8.22-7.35,12.28-7.92,13.97-16.76,29-24.75,41.71-5.33,8.5-10.91,17.02-16.48,24.96-3.07,4.38-6.11,8.53-9.04,12.36,0,0,0,.01-.01.02-.89,1.18-1.05,2.75-.42,4.08,1.62,3.46,6.06,8.78,7.14,8.78.72,0,.9.02.57.12-3.2.57-5.88,3.58-5.91,7.03,0,22.93,0,91.08,0,95.91-.02.11-.11.17-.38.2-.26.03-.71.01-1.28-.04-4.84-.36-9.54-3.14-12.08-7.81-.83-1.45-1.67-3.38-2.29-4.88-.17-.5-.16-.84.13-.98,1.4-.36,3.13.36,4.57-.04,3.12-.55,4.82-5.17,2.65-7.69-2.83-3.33-8.04-3.63-10.53-6.94-1.23-1.72-.7-4.05.91-5.37,3.5-3.22,10.97-3.83,10.49-9.04-.86-5.05-11.04-5.43-12.01-10.3-.74-5.77,8.12-5.96,11.27-10.09,4.34-8.03-12.56-7.69-11.3-14.43.69-4.76,10.37-5.46,11.9-9.83,1.74-5.52-6.93-6.59-9.98-9.36-2.72-1.93-2.51-5.37.27-7.14,1.98-1.44,4.86-2.46,6.97-3.78,3.87-2.13,3.87-6.09.09-8.24-3.83-2.51-10.2-3.61-9.17-8.56,1.1-4.2,9.15-5.1,10.7-9.13.66-1.6.11-3.76-1.48-4.54-1.03-.54-2.3-.57-3.42-.88-4-.99-6.49-4.93-6.43-8.91.01-3.9-.04-27.34.02-36.16.01-.06.03-.1.07-.14.15-.16.73-.11,2.01-.12,3.16,0,9.75,0,12.77,0,1.7.08,2.48-.28,3.81-1.08,8.8-4.98,17.26-11.52,25.58-18.45,6.84-5.2,14.6-10.75,21.22-15.96,8-6.13,17.66-11.96,27.3-13.15,27.54-3.04,50.46,19.67,50.67,45.01v.1Z"/>
      <path class="cls-26" d="M380.39,45.29v85.28h-102.39c-4.38,0-7.97-3.47-8.11-7.85l-.07-2.1c-.03-.92.26-1.82.82-2.55,14.04-18.23,29.56-42.84,45.97-71.35,3.08-5.34,6.19-10.81,9.32-16.41.73-1.3,1.52-2.58,2.45-3.75,2.77-3.48,6.29-6.26,10.22-8.15,5.65-2.71,12.19-3.6,18.72-2.23,13.58,2.87,23.06,15.22,23.06,29.1Z"/>
    </g>
    <circle id="eyeball" class="cls-17" cx="250.94" cy="36.29" r="21.8"/>
    <g id="pupil">
      <circle class="cls-7" cx="250.94" cy="36.29" r="12.5"/>
      <circle id="pupil-2" data-name="pupil" class="cls-37" cx="250.94" cy="36.29" r="5.66"/>
    </g>
    <g id="ring">
      <path class="cls-29" d="M333.32,264.91c-43.08-1.36-78.29,33.42-76.92,76,1.24,38.55,33.02,69.95,72.04,71.18,43.09,1.35,78.3-33.44,76.92-76-1.25-38.55-33.02-69.94-72.04-71.17ZM328.77,392.14c-28.62-1.07-51.81-24.63-52.46-53.26-.51-22.55,12.66-42.09,31.79-50.88,2.55-1.17,5.33-1.77,8.14-1.77h29.25c2.81,0,5.6.6,8.16,1.77,18.77,8.63,31.79,27.6,31.79,49.61,0,30.84-25.58,55.7-56.68,54.53Z"/>
      <circle class="cls-16" cx="330.87" cy="269.37" r="13.91"/>
    </g>
    <path id="base" class="cls-12" d="M256.36,399.43v-80.82c0-4.94,4.01-8.95,8.95-8.95h131.14c4.94,0,8.95,4.01,8.95,8.95v80.82"/>
  </g>
  <g id="green-body">
    <path id="body" class="cls-3" d="M416.64,377.84v76.54c0,3.65-2.96,6.61-6.61,6.61H104.55c-3.65,0-6.61-2.96-6.61-6.61v-141.09c0-15.21-12.32-27.53-27.53-27.53H.51c1.21-57.51,48.21-103.76,106.02-103.76,29.29,0,55.81,11.87,74.99,31.06,19.19,19.2,31.06,45.71,31.06,75v29.97c0,29.38,23.81,53.19,53.19,53.19h144.24c3.65,0,6.61,2.96,6.61,6.61Z"/>
    <g id="white-target">
      <circle class="cls-14" cx="168.52" cy="408.66" r="22.87"/>
      <circle class="cls-28" cx="168.52" cy="408.66" r="16.19"/>
      <circle class="cls-20" cx="168.52" cy="408.66" r="9.23"/>
    </g>
    <path id="yellow-triangle" class="cls-6" d="M102.39,440.77l-23.92-23.92c-1.42-1.42-1.42-3.72,0-5.13l23.92-23.92c2.16-2.16,5.85-.63,5.85,2.42v48.12c0,3.06-3.69,4.59-5.85,2.42Z"/>
    <g id="engine-black">
      <path class="cls-19" d="M430.55,393.71v44.54c0,3.19-2.59,5.79-5.8,5.79h-182.01c-7.75,0-14.76-3.14-19.84-8.21-5.08-5.07-8.22-12.09-8.22-19.85,0-15.49,12.57-28.06,28.06-28.06h182.01c3.2,0,5.8,2.59,5.8,5.8Z"/>
      <g>
        <path class="cls-4" d="M430.55,393.71v22.26h-1.34c-6.12,0-11.09-4.96-11.09-11.09v-16.97h6.63c3.2,0,5.8,2.59,5.8,5.8Z"/>
        <path class="cls-4" d="M430.55,415.97v22.27c0,3.19-2.59,5.79-5.8,5.79h-6.63v-16.97c0-6.12,4.97-11.09,11.09-11.09h1.34Z"/>
      </g>
    </g>
    <g>
      <g>
        <g>
          <rect class="cls-15" x="277.42" y="401.27" width="5.72" height="30.97"/>
          <rect class="cls-9" x="283.14" y="401.27" width="5.72" height="30.97"/>
        </g>
        <path class="cls-23" d="M283.14,396.28c-10.96,0-19.85,8.89-19.85,19.85s8.89,19.85,19.85,19.85,19.85-8.89,19.85-19.85-8.89-19.85-19.85-19.85ZM283.14,429.96c-7.64,0-13.83-6.19-13.83-13.83s6.19-13.83,13.83-13.83,13.83,6.19,13.83,13.83-6.19,13.83-13.83,13.83Z"/>
      </g>
      <g>
        <path class="cls-8" d="M325.87,392.61c-8.95,0-32.13,13.08-41.13,18.36-2.16,1.27-4.9.92-6.67-.85-2.01-2.01-4.69-4.69-7.01-7.01-.85-.85-2-1.33-3.21-1.33h-34.39c-3.91,0-7.08,3.17-7.08,7.08v14.22c0,3.92,3.18,7.09,7.09,7.09h34.38c1.21,0,2.36-.47,3.21-1.33,2.31-2.31,4.98-4.98,6.98-6.98,1.78-1.78,4.54-2.12,6.7-.83,8.89,5.31,31.63,18.32,41.12,18.32,15.45,0,27.99-10.46,27.99-23.37s-12.53-23.36-27.99-23.36ZM328.33,433.11c-3.54,0-7.45-1.19-11.31-2.94-5.28-2.4-10.45-5.85-14.35-8.76-3.64-2.7-3.62-8.14.02-10.84,3.94-2.91,9.16-6.38,14.45-8.8,3.85-1.76,7.73-2.94,11.19-2.94,10.64,0,19.26,7.68,19.26,17.14s-8.62,17.14-19.26,17.14Z"/>
        <path class="cls-5" d="M296.97,426.52h105.84c4.63,0,4.63-20.79,0-20.79h-105.84s0,20.79,0,20.79Z"/>
        <g class="cls-40">
          <path class="cls-8" d="M325.87,392.61c-8.95,0-32.13,13.08-41.13,18.36-2.16,1.27-4.9.92-6.67-.85-2.01-2.01-4.69-4.69-7.01-7.01-.85-.85-2-1.33-3.21-1.33h-34.39c-3.91,0-7.08,3.17-7.08,7.08v14.22c0,3.92,3.18,7.09,7.09,7.09h34.38c1.21,0,2.36-.47,3.21-1.33,2.31-2.31,4.98-4.98,6.98-6.98,1.78-1.78,4.54-2.12,6.7-.83,8.89,5.31,31.63,18.32,41.12,18.32,15.45,0,27.99-10.46,27.99-23.37s-12.53-23.36-27.99-23.36ZM328.33,433.11c-3.54,0-7.45-1.19-11.31-2.94-5.28-2.4-10.45-5.85-14.35-8.76-3.64-2.7-3.62-8.14.02-10.84,3.94-2.91,9.16-6.38,14.45-8.8,3.85-1.76,7.73-2.94,11.19-2.94,10.64,0,19.26,7.68,19.26,17.14s-8.62,17.14-19.26,17.14Z"/>
        </g>
      </g>
    </g>
    <g id="inner-cylinder">
      <path class="cls-21" d="M381.12,428.8h-23.8c5.95,0,5.95-25.65,0-25.65h23.8c6.94,0,6.94,25.65,0,25.65Z"/>
      <g>
        <circle class="cls-41" cx="373.01" cy="416.75" r="8.11"/>
        <circle class="cls-39" cx="373.01" cy="416.75" r="4.71"/>
      </g>
    </g>
    <g id="outer-cylinder">
      <g>
        <path class="cls-42" d="M381.12,429.79c-.28,0-.5-.22-.5-.5s.22-.5.5-.5c3.65,0,5.56-6.45,5.56-12.81,0-6.37-1.91-12.81-5.56-12.81-.28,0-.5-.22-.5-.5s.22-.5.5-.5h24.27c3.28,0,4.45,7.44,4.45,13.81s-1.16,13.81-4.45,13.81h-24.27Z"/>
        <path class="cls-37" d="M405.39,402.66c5.26,0,5.26,26.62,0,26.62h-24.27c8.08,0,8.08-26.62,0-26.62,0,0,0,0,0,0h24.27M405.39,401.66h-24.27c-.55,0-1,.45-1,1s.45,1,1,1c3.28,0,5.06,6.34,5.06,12.31,0,5.97-1.77,12.31-5.06,12.31-.55,0-1,.45-1,1s.45,1,1,1h24.27c4.71,0,4.95-11.92,4.95-14.31s-.24-14.31-4.95-14.31h0Z"/>
      </g>
      <g>
        <circle class="cls-38" cx="398.18" cy="416.75" r="8.11"/>
        <circle class="cls-41" cx="398.18" cy="416.75" r="4.63"/>
      </g>
    </g>
    <g id="eye">
      <circle class="cls-34" cx="74.23" cy="248.8" r="23.39"/>
      <path class="cls-32" d="M92.62,237.4c0,10.16-8.23,18.39-18.39,18.39s-18.39-8.23-18.39-18.39c0-4.79,8.23-11.99,18.39-11.99s18.39,6.11,18.39,11.99Z"/>
      <path id="eye-2" data-name="eye" class="cls-35" d="M89.51,231.55c3.05,3.43,3.05,8.67,0,12.1-3.3,3.7-8.91,6.14-15.27,6.14s-11.97-2.44-15.28-6.14c-3.05-3.42-3.06-8.68,0-12.1,3.3-3.71,8.91-6.15,15.28-6.15s11.97,2.44,15.27,6.15Z"/>
    </g>
    <circle id="pupil-3" data-name="pupil" class="cls-33" cx="74.23" cy="236.23" r="10.82"/>
    <path id="upper-eyelid" class="cls-36" d="M57.54,233.7c0,1.73,33.39,1.73,33.39,0-.36-.77-.83-1.5-1.42-2.15-3.3-3.71-8.91-6.15-15.27-6.15s-11.98,2.44-15.28,6.15c-.59.66-1.06,1.39-1.42,2.16Z"/>
  </g>
</svg>