<?xml version="1.0" encoding="UTF-8"?>
<svg id="Layer_2" data-name="Layer 2" xmlns="http://www.w3.org/2000/svg" viewBox="0 0 375.51 321.3">
  <defs>
    <style>
      .cls-1, .cls-2, .cls-3, .cls-4, .cls-5, .cls-6, .cls-7, .cls-8, .cls-9, .cls-10 {
        stroke-width: 2px;
      }

      .cls-1, .cls-2, .cls-3, .cls-5, .cls-6, .cls-7, .cls-8, .cls-9 {
        stroke-miterlimit: 10;
      }

      .cls-1, .cls-2, .cls-4, .cls-5, .cls-7, .cls-8, .cls-9, .cls-10 {
        stroke: #241c15;
      }

      .cls-1, .cls-10 {
        fill: #f4b53b;
      }

      .cls-2, .cls-6 {
        fill: #f0f1e4;
      }

      .cls-3, .cls-5 {
        fill: none;
        stroke-linecap: round;
      }

      .cls-3, .cls-6 {
        stroke: #000;
      }

      .cls-4, .cls-10 {
        stroke-linejoin: round;
      }

      .cls-4, .cls-11 {
        fill: #5e5c56;
      }

      .cls-12 {
        fill: #fdc955;
      }

      .cls-13 {
        fill: #fbb5b7;
      }

      .cls-14 {
        fill: #73a757;
      }

      .cls-15 {
        fill: #539847;
      }

      .cls-7 {
        fill: #539b6e;
      }

      .cls-16 {
        fill: #fff;
      }

      .cls-8 {
        fill: #539c6e;
      }

      .cls-9 {
        fill: #f6ba3c;
      }

      .cls-17 {
        fill: #fde16a;
      }

      .cls-18 {
        fill: #e92b24;
      }

      .cls-19 {
        fill: #f4584f;
      }

      .cls-20 {
        fill: #f98483;
      }

      .cls-21 {
        fill: #fdb336;
      }

      .cls-22 {
        fill: #241c15;
      }

      .cls-23 {
        fill: #f99d9d;
      }
    </style>
  </defs>
  <g id="A5_GREEN_BERET" data-name="A5_GREEN BERET">
    <g id="feather">
      <g>
        <path d="M73.01,93.84c-8.05-10.13-16.77-19.76-22.76-31.31-11.76-21.29-11.05-53.06,15.81-61.81,9.49-2.71,19.73,2.47,23.05,11.96,3.1,8.54-.57,18.53-8.75,22.96-.36.19-1,.55-1.08.86-.04.45.65.42.99.39,2.91-.52,3.6-3.81,5.35.33,7.51,14.33,21.46,27.29,19.36,44.83-1.47,16.29-20.42,26.15-31.83,11.93l-.13-.14Z"/>
        <path class="cls-6" d="M74.25,95.41l-17.25-20.05.98,1.05c-8.65-9.03-13.85-18.38-16.77-30.6-2.62-11.32-.78-24.79,7.58-33.99,3.14-3.54,6.9-6.2,10.52-8.02,9.38-4.71,20.8-.94,25.51,8.44s.94,20.8-8.44,25.51c.1.15.2.26.29.34.51.33,1.16.2,1.68,0,.94-.33,1.74-1.11,2.31-1.6.52-.54.78-.79,1.09-.69.29.09.54.5.88,1.07,1.37,2.49,3.88,6.58,6.14,8.71,0,0,.59.54.59.54l.67.82c5.45,6.44,10.14,13.72,12.58,21.89.43,1.19,1.99,10.56,2.28,11.97,3.04,17.74-18.99,27.99-30.65,14.61h0Z"/>
        <path class="cls-3" d="M72.18,19.35c-.44,1.22.99,2.56,2.24,2.23s1.89-1.93,1.41-3.14-1.81-1.93-3.11-1.93c-2.64,0-4.76,2.97-4.07,5.52s3.8,4.06,6.3,3.22,4.05-3.73,3.57-6.33-2.8-4.68-5.41-5.11c-4.59-.75-9.08,3.99-8.34,8.59s6.11,7.72,10.56,6.35,7.16-6.64,5.98-11.14-5.84-7.72-10.5-7.55-8.94,3.48-10.61,7.82c-1.39,3.62-1.08,7.73.21,11.39s3.48,6.93,5.84,10.01c4.2,5.49,9,10.52,14.29,14.97l29.25,22.87"/>
      </g>
    </g>
    <g id="heatsync">
      <g>
        <rect class="cls-4" x="41.73" y="180.81" width="94.05" height="7.05"/>
        <rect class="cls-4" x="41.73" y="192.93" width="94.05" height="7.05"/>
        <rect class="cls-4" x="41.73" y="205.04" width="94.05" height="7.05"/>
        <rect class="cls-4" x="41.73" y="217.16" width="94.05" height="7.05"/>
        <rect class="cls-4" x="41.73" y="229.28" width="94.05" height="7.05"/>
        <rect class="cls-4" x="41.73" y="241.39" width="94.05" height="7.05"/>
        <rect class="cls-4" x="41.73" y="253.51" width="94.05" height="7.05"/>
        <rect class="cls-4" x="41.73" y="265.62" width="94.05" height="7.05"/>
        <rect class="cls-4" x="41.73" y="277.74" width="94.05" height="7.05"/>
        <rect class="cls-4" x="41.73" y="289.86" width="94.05" height="7.05"/>
      </g>
      <rect class="cls-4" x="27.74" y="170.67" width="14.66" height="136.38" rx="1.61" ry="1.61"/>
    </g>
    <rect id="baseline" class="cls-10" x="1" y="310.57" width="373.51" height="9.73" rx="4.87" ry="4.87"/>
    <g id="toploop">
      <path class="cls-7" d="M300.46,131.26v164.22h-15.23v-160.91c0-13.7-3.95-27.18-11.72-38.46-4.77-6.91-10.65-13.01-17.38-18.02-12.75-9.51-28.57-15.14-45.7-15.14H65.21c9.96-11.57,24.71-18.9,41.18-18.9h99.12c29.48,0,55.88,13.21,73.57,34.04,8.09,9.51,14.36,20.6,18.29,32.74,2.13,6.59,3.09,13.49,3.09,20.41Z"/>
      <path class="cls-1" d="M285.23,134.58v160.91h-7.51v-155.65c0-25.41-13.8-49.09-36.38-60.75-.65-.33-1.3-.66-1.95-.97-9.47-4.53-20.08-7.07-31.27-7.07h-93.21c-1.25,0-1.6,1.7-.46,2.21,2.93,1.33,5.7,2.96,8.25,4.86.72.54,1.43,1.1,2.12,1.68H55.35c.2-.57.42-1.13.64-1.68,2.24-5.56,5.37-10.67,9.22-15.14h145.22c17.13,0,32.95,5.63,45.7,15.14,6.73,5.01,12.61,11.1,17.38,18.02,7.78,11.28,11.72,24.76,11.72,38.46Z"/>
    </g>
    <path id="greenbody" class="cls-8" d="M352.14,146.99v163.58H52.07V98.39c0-6.54,1.15-12.8,3.28-18.61h69.47c9.79,8.23,16.01,20.57,16.01,34.36,0,3.08-.31,6.09-.9,9h188.36c13.17,0,23.85,10.68,23.85,23.85Z"/>
    <path id="whitebelly" class="cls-2" d="M156.33,219.79c0-41.28-52.13-96.95-104.26-75.44v166.22h104.26v-90.79Z"/>
    <g id="eyeball">
      <circle class="cls-9" cx="95.96" cy="114.14" r="37.02"/>
      <circle cx="95.96" cy="114.14" r="28.58"/>
      <circle class="cls-16" cx="95.96" cy="114.14" r="25.26"/>
    </g>
    <path id="pupil" d="M101.75,115.17c-3.77,0-6.83-3.06-6.83-6.83,0-2.9,1.82-5.38,4.37-6.37-1.07-.29-2.18-.46-3.34-.46-6.97,0-12.63,5.65-12.63,12.63s5.65,12.63,12.63,12.63,12.63-5.65,12.63-12.63c0-1.16-.17-2.28-.46-3.34-.99,2.56-3.46,4.37-6.37,4.37Z"/>
    <g id="hashgrid">
      <line class="cls-5" x1="67.25" y1="190.2" x2="119.62" y2="190.2"/>
      <g>
        <line class="cls-5" x1="71.4" y1="183.15" x2="71.4" y2="197.25"/>
        <line class="cls-5" x1="80.22" y1="183.15" x2="80.22" y2="197.25"/>
        <line class="cls-5" x1="89.03" y1="183.15" x2="89.03" y2="197.25"/>
        <line class="cls-5" x1="97.84" y1="183.15" x2="97.84" y2="197.25"/>
        <line class="cls-5" x1="106.66" y1="183.15" x2="106.66" y2="197.25"/>
        <line class="cls-5" x1="115.47" y1="183.15" x2="115.47" y2="197.25"/>
      </g>
    </g>
    <g id="flower">
      <path class="cls-4" d="M90.05,277.03l5.26-.63c.08,1.95-1.4,3.84-3.32,4.22s-4.01-.81-4.67-2.64c2.63-2.92,3.83-7.08,3.14-10.95-.11-.64-.29-1.29-.73-1.76-.9-.95-2.63-.66-3.43.37s-.8,2.51-.33,3.73,1.34,2.23,2.19,3.22c.71.98-1.01,2.23-2.04,1.59s-1.17-2.08-1-3.28.55-2.44.17-3.59c-.48-1.47-2.11-2.33-3.66-2.37s-3.03.57-4.44,1.21c-1.34.61-2.89,1.65-2.69,3.11.15,1.1,1.32,1.81,2.42,1.91s2.2-.23,3.29-.4c4.39-.68,8.93,1.43,11.86,4.77s4.41,7.76,4.94,12.17c.52,4.41.15,8.88-.21,13.31.08-8.87,5.89-16.68,7.43-25.42.87-4.89.37-9.9.05-14.86-.43-6.8-.52-13.64.24-20.41.43-3.85,1.18-7.79,3.28-11.04s5.84-5.7,9.69-5.27c-1.05,3.74-3.12,7.1-5.16,10.4-1.66,2.69-3.32,5.37-4.98,8.06-.48.78-1,1.59-1.78,2.08s-1.92.53-2.54-.15c-.79-.86-.32-2.29.45-3.18s1.81-1.59,2.25-2.67c.54-1.33.03-2.84.19-4.26s1.84-2.88,2.9-1.92c-4.17-2.36-8.35-4.73-12.52-7.09-2.17-1.23-4.38-2.47-6.79-3.1s-5.11-.58-7.27.68c.14,3.21,2.25,6.01,4.71,8.08s5.31,3.63,7.74,5.73c5.15,4.45,8.07,11.36,7.68,18.15-.12,2.06-.47,4.33.72,6.03.97,1.39,2.81,2,4.5,1.83s3.25-.99,4.63-1.97c2-1.42,3.87-4.08,2.55-6.15-1.13-1.78-3.84-1.67-5.71-.71-2.84,1.45-4.8,4.26-5.91,7.25s-1.44,6.21-1.77,9.38c-.77,7.41-1.54,14.81-2.32,22.22-1.12-4.17-2.24-8.33-3.36-12.5-.38-1.42-.76-2.92-.39-4.34.52-1.97,2.32-3.27,4-4.41-1.27,2.67-2.54,5.33-3.81,8"/>
      <path class="cls-13" d="M107.48,241.99c-.87,1.25-1.54,3.05-3.47,2.58-.38-.04-.21-.48-.18-.74l3.65-1.85Z"/>
      <g>
        <g>
          <path class="cls-19" d="M96.43,225.33c.31.9.96,1.66,1.34,2.54,1.77,4.11,1.78,8.73,1.92,13.14,2.14-4.03,3.51-8.13,2.27-12.74,1.59.92,3.09,1.85,4.63,2.85-.53,1.15-.82,2.35-1.16,3.56-.51,1.87-.99,3.75-1.16,5.7-.7.87-2.35,2.21-1.25,3.3.2.51.49.55.62.8l-.09.18c-1.27.38-2.35-.04-3.3-.98-.11-.11-.18-.31-.36-.36-.11-.27-.24-.53-.36-.8-3.65-8.67-9.02-15.12-17.28-19.77.57-.99,5.71-.88,6.81-.71,3.07.48,4.78,1.95,7.35,3.3Z"/>
          <path class="cls-18" d="M99.55,242.52l-.27-.09c-3.61-6.96-10.29-8.43-14.7-13.76-.83-1.01-3.01-4.71-2.32-5.92,8.26,4.65,13.63,11.1,17.28,19.77Z"/>
          <path class="cls-23" d="M108.73,232.37c.8.58,1.57,1.17,2.23,1.92l.53,1.47c-1.32,2.17-2.55,4.15-4.01,6.23l-3.63,1.9c.07-.63-.12-1.21-.12-1.21,0,0,.45,3.23-.71,1-1.11-1.08.55-2.42,1.25-3.3.2-.26.7-.55.89-.85.89-1.34.77-3.38.27-4.85.33-1.21.63-2.42,1.16-3.56.02.01.07-.01.09,0,.66.43,1.41.78,2.05,1.25Z"/>
          <path class="cls-18" d="M101.96,228.27c1.24,4.6-.13,8.7-2.27,12.74-.14-4.41-.15-9.03-1.92-13.14-.38-.88-1.03-1.64-1.34-2.54,1.9.99,3.65,1.86,5.52,2.94Z"/>
          <path class="cls-13" d="M117.54,224.08c.46.75-5.23,10.31-6.06,11.67l-.53-1.47c-.66-.74-1.43-1.33-2.23-1.92,2.61-3.1,5.5-5.93,8.82-8.28Z"/>
          <path class="cls-13" d="M117.54,224.08c-3.32,2.35-6.2,5.18-8.82,8.28-.64-.46-1.39-.82-2.05-1.25,1.2-2.78,3.65-5.6,6.55-6.68,1.22-.45,3.12-.93,4.32-.36Z"/>
          <path class="cls-20" d="M104.27,240.38c.17-1.95.64-3.83,1.16-5.7.5,1.48.62,3.52-.27,4.85-.19.29-.69.59-.89.85Z"/>
        </g>
        <g>
          <path class="cls-12" d="M90.38,273.69c-.85-.71-2.42-1.69-3.43-2.14-.12-.05-2.02-.82-1.78-.45,1.13.5,2.28.97,3.34,1.6.03.22-.4.67-.62.89-.05.05-.15.15-.18.18-1.75,1.48-3.02-1.12-2.67-2.72-1.18-.38-2.53-.56-3.79-.49-1.88.1-6.98,1.86-6.9-1.96,3.8-1.1,7.7-.42,10.64,2.23l.49-1.07c-.02.17-.28.89-.27.94.03.09,1.28.64,1.51.53.03-.07-.83-1.04-.89-1.16-.15-.34.11-.76-.27-.85.08-1.01-.17-.55-.27-.85-.11-.35-.13-.73-.27-1.07.4,0,.14,1.23.62.94.02.21.66,1.89.8,2.09.57.85,1.44,1.45,2.27,2,1.51-2.61-.29-5.16-2.81-6.15.57-1.3,2.24-2.08,3.52-1.34,2.07,1.21.81,6.76.94,8.82Z"/>
          <path class="cls-17" d="M85.66,267.1c0,.06,0,1.07,0,1.16-.48.3-.23-.93-.62-.94.13.34.16.72.27,1.07.09.3.35-.16.27.85-.01.15-.07.34-.09.53l-.49,1.07c-2.94-2.65-6.85-3.33-10.64-2.23.06-2.86,8.24-5.58,10.42-2.63.25.33.92,2.32.89,1.11Z"/>
          <path class="cls-21" d="M85.66,268.26c0-.09,0-1.1,0-1.16.04-.37.12-.56.27-.89,2.52.98,4.31,3.53,2.81,6.15-.83-.55-1.7-1.16-2.27-2-.14-.2-.78-1.88-.8-2.09Z"/>
          <path class="cls-15" d="M97.15,275.92c-.56.04-1.28,2.37-1.43,2.45-.06.03-.26-.29-.27-.31-.99-2.43,1.57-5.47,3.65-6.46-.49,1.51-1.31,2.88-1.96,4.32Z"/>
          <path class="cls-12" d="M90.2,273.96c-.72.96-2.53,1.69-2.32-.18,0,0,.24-.08,0-.18.22-.22.66-.67.62-.89.71.42,1.08.73,1.69,1.25Z"/>
          <path class="cls-16" d="M87.88,273.78h-.18s.13-.13.18-.18c.24.1,0,.17,0,.18Z"/>
          <g>
            <path class="cls-14" d="M103.92,244.8c.04,1.35.27,13.12.18,14.47.06.17.1.14.18,0,.26-.46.44-1.41.8-2,1.59-2.64,7.44-6.23,9.71-2.76,2.57,3.94-6.77,10.59-10.33,7.35l.09-.27c.26-.02,3.75-2.49,4.28-2.85,1.62-1.12,3.23-2.25,4.81-3.43-1.75.7-3.32,1.81-4.9,2.81-1.44.91-2.9,1.81-4.32,2.76-.31.18-.04.62-.04.71,0,.1,0,.18,0,.27-.06,4.84.74,9.75-.09,14.56s-3.64,8.97-4.9,13.45c-.14.5-.39,2.9-.53,3.12-.16.23-.3-.14-.31-.13-.37.06-1.19,4.58-1.29,5.21-.13.81-.05,2.07-.45,2.63l.13-2.14c-.29.64-.12,1.54-.22,2.14-.02.1-.15.22-.09.4-.04.09-.17-.06-.18-.09-.24-.75.63-3.55.71-4.45.31-3.4-.15-14.67-2.58-17.1-.3-.3-.38-.17-.71-.31-.27-.12-.26-.1-.53-.18-.77-.21-1.53-.26-2.32-.36-.08-.01-.18-.07-.36-.09-.09,0-.18,0-.27,0-.62-.07-1.24-.24-1.87-.13.63.12,1.25.28,1.87.4.08.02.18-.02.27,0,.1.02.21.06.36.09.74.14,1.47.3,2.23.36.02,0,.24.16.45.09.22.11.04.25-.04.36-2.13,2.72-8.38-.64-5.26-2.58,1.97-1.22,3.95.24,5.3,1.51.09.08.19.46.53.4.09-.29-.3-.48-.36-.58-.95-1.72-2.16-3.19-3.65-4.45-.62-.52-.99-.83-1.69-1.25-1.06-.63-2.21-1.1-3.34-1.6-.24-.37,1.66.39,1.78.45,1.01.45,2.58,1.42,3.43,2.14,2.51,2.11,3.28,4.46,5.08,6.86.02.03-.06.21.13.18.11-.04-.05-.09-.04-.18.05-.88.11-1.61-.09-2.49,0,.02.21.34.27.31.15-.08.87-2.41,1.43-2.45-2.42,5.33-1.05,4.9.27,9.93.47,1.82.58,3.73.98,5.48.03.11,0,.18.13.27.09-.02.02-.22.04-.27,1.47-2.88,1.34-9.2,1.69-12.6.42-4.08.67-10.3,1.69-14.07.14-.53,1.06-2.4,1.07-2.67.01-.29-.54-1.21-.62-1.6-.65-3,0-5.16-.18-8.02s-1.68-7.5-2.94-9.93l.27.09c.11.27.25.53.36.8.06.14.12.3.18.45.97,2.48,2.12,5.58,2.32,8.24s-.81,7.06.71,9.49c.02.03-.04.14.04.18.08-.02.03-.14.04-.18,1.18-2.79.44-13.89.45-16.8,0-2.12.17-3.42.27.1Z"/>
            <g>
              <path class="cls-14" d="M96.79,300.68h-.09c.1-.6-.07-1.5.22-2.14l-.13,2.14Z"/>
              <path class="cls-14" d="M104.54,261.58l-.09.27h-.09c0-.09,0-.17,0-.27.06,0,.12,0,.18,0Z"/>
              <path class="cls-22" d="M98.57,291.33c-.03.05.05.25-.04.27-.14-.08-.11-.15-.13-.27h.18Z"/>
              <path class="cls-22" d="M95.45,280.55h.09c0,.09.15.13.04.18-.19.04-.11-.15-.13-.18Z"/>
              <path class="cls-22" d="M104.27,259.27c-.08.14-.12.17-.18,0h.18Z"/>
              <path class="cls-19" d="M100.26,243.68l-.18.09c-.06-.14-.12-.3-.18-.45.18.05.24.24.36.36Z"/>
              <path class="cls-14" d="M98.88,291.24l-.27,1.43c-.14-.47.11-.98.27-1.43Z"/>
              <path class="cls-14" d="M97.06,285.45h-.18c-.04-.29-.27-.67-.13-.98.15.31.22.65.31.98Z"/>
              <g>
                <path class="cls-22" d="M93.67,278.59l.18-.18c.05.09.45.29.36.58-.35.06-.45-.32-.53-.4Z"/>
                <path class="cls-11" d="M93.85,279.13c-.24-.06-.17.17-.18.18-.2.07-.42-.09-.45-.09l.09-.27c.28.07.26.06.53.18Z"/>
                <path class="cls-11" d="M108.81,258.73l-.09-.62c1.58-1,3.15-2.11,4.9-2.81-1.58,1.18-3.19,2.31-4.81,3.43Z"/>
                <path class="cls-11" d="M90.38,278.5v.27c-.62-.12-1.25-.29-1.87-.4.63-.11,1.25.07,1.87.13Z"/>
                <path class="cls-11" d="M91,278.59v.27c-.15-.03-.25-.07-.36-.09v-.27c.17.02.27.08.36.09Z"/>
              </g>
              <path class="cls-14" d="M97.5,295.07c-.03.11.05.25-.13.36-.09-.09-.03-.24-.04-.36h.18Z"/>
              <path class="cls-2" d="M99.82,288.12c-.03.05.01.2-.13.27l-.04-.27h.18Z"/>
              <path class="cls-14" d="M103.65,261.49s-.34.24-.18,0h.18Z"/>
              <path class="cls-22" d="M103.11,261.49h.09s.03.16-.04.18c-.08-.04-.03-.15-.04-.18Z"/>
            </g>
          </g>
          <path class="cls-12" d="M85.48,269.78c.02-.19.08-.38.09-.53.37.09.11.51.27.85.06.12.92,1.09.89,1.16-.23.11-1.48-.45-1.51-.53-.02-.05.25-.77.27-.94Z"/>
        </g>
      </g>
    </g>
  </g>
</svg>