<?xml version="1.0" encoding="UTF-8"?>
<svg id="Layer_2" data-name="Layer 2" xmlns="http://www.w3.org/2000/svg" viewBox="0 0 313.68 717.19">
  <defs>
    <style>
      .cls-1 {
        fill: #030501;
      }

      .cls-2, .cls-3, .cls-4, .cls-5, .cls-6, .cls-7, .cls-8, .cls-9, .cls-10, .cls-11, .cls-12, .cls-13 {
        stroke: #030501;
      }

      .cls-2, .cls-3, .cls-4, .cls-5, .cls-6, .cls-9, .cls-10, .cls-11, .cls-12, .cls-13 {
        stroke-width: 2px;
      }

      .cls-2, .cls-4, .cls-5, .cls-6, .cls-7, .cls-8, .cls-9, .cls-10, .cls-11, .cls-13 {
        stroke-miterlimit: 10;
      }

      .cls-2, .cls-14 {
        fill: #6397ae;
      }

      .cls-15, .cls-5 {
        fill: #58b680;
      }

      .cls-3 {
        fill: #fd9b60;
      }

      .cls-3, .cls-12 {
        stroke-linejoin: round;
      }

      .cls-4 {
        fill: #fbf8e7;
      }

      .cls-6 {
        fill: #6b87d1;
      }

      .cls-7 {
        fill: #e6970d;
      }

      .cls-8 {
        fill: #f4dea0;
      }

      .cls-9 {
        fill: #f5bb98;
      }

      .cls-10 {
        fill: #f8db68;
      }

      .cls-11 {
        fill: #e5980d;
      }

      .cls-12 {
        fill: #6b88d2;
      }

      .cls-13 {
        fill: #6a88d5;
      }
    </style>
  </defs>
  <g id="guitar-dan">
    <path id="top-jaw" class="cls-7" d="M313.18,38.49v14h-20.49c-.51-3.59-3.78-6.22-7.47-5.85l-23.76,2.4c-2.09.21-3.87,1.33-4.97,2.95-.67.99-1.74,1.62-2.94,1.62h0c-1.99,0-3.83,1.16-4.84,3.05l-1.67,3.13c-1.16,2.51-4.79,2.51-5.95,0l-1.72-3.71c-1.42-3.08-5.41-3.08-6.84,0l-1.26,2.75c-1.43,3.08-5.42,3.08-6.84,0l-1.27-2.75c-1.35-2.92-5.49-2.92-6.84,0l-1.27,2.75c-1.35,2.92-5.49,2.92-6.84,0l-1.27-2.75c-1.42-3.08-5.41-3.08-6.84,0l-1.27,2.75c-1.35,2.91-5.48,2.91-6.83,0l-1.27-2.75c-1.43-3.08-5.42-3.08-6.84,0l-1.27,2.75c-1.35,2.92-5.49,2.92-6.84,0l-1.27-2.75c-1.42-3.08-5.41-3.08-6.84,0l-1.27,2.75c-1.35,2.91-5.48,2.91-6.83,0l-1.27-2.75c-1.43-3.08-5.42-3.08-6.84,0l-1.27,2.75c-1.35,2.92-5.49,2.92-6.84,0l-1.27-2.75c-1.35-2.92-5.49-2.92-6.84,0l-1.27,2.75c-1.42,3.08-5.41,3.08-6.84,0l-1.26-2.75c-1.43-3.08-5.42-3.08-6.84,0l-1.27,2.75c-1.35,2.92-5.49,2.92-6.84,0l-1.27-2.75c-1.35-2.92-5.49-2.92-6.84,0l-1.27,2.75c-1.37,2.97-5.13,3.08-6.66.32l-10.73-10.48c-5.94-5.8-1.83-15.87,6.47-15.87h216.87c3.14,0,5.69,2.55,5.69,5.69Z"/>
    <path id="bottom-jaw" class="cls-7" d="M313.18,60.23v14.12c0,3.15-2.55,5.69-5.69,5.69H92.88c-6.07,0-9.4-7.07-5.54-11.75l3.75-4.55c1.64-1.99,4.18-2.82,6.74-2.61,1.44.12,2.94-.65,3.7-2.3l1.27-2.75c1.35-2.92,5.49-2.92,6.84,0l1.27,2.75c1.35,2.92,5.49,2.92,6.84,0l1.27-2.75c1.42-3.08,5.41-3.08,6.84,0l1.26,2.75c1.43,3.08,5.42,3.08,6.84,0l1.27-2.75c1.35-2.92,5.49-2.92,6.84,0l1.27,2.75c1.35,2.92,5.49,2.92,6.84,0l1.27-2.75c1.42-3.08,5.41-3.08,6.84,0l1.27,2.75c1.35,2.91,5.48,2.91,6.83,0l1.27-2.75c1.43-3.08,5.42-3.08,6.84,0l1.27,2.75c1.35,2.92,5.49,2.92,6.84,0l1.27-2.75c1.42-3.08,5.41-3.08,6.84,0l1.27,2.75c1.35,2.91,5.48,2.91,6.83,0l1.27-2.75c1.43-3.08,5.42-3.08,6.84,0l1.27,2.75c1.35,2.92,5.49,2.92,6.84,0l1.27-2.75c1.35-2.92,5.49-2.92,6.84,0l1.27,2.75c1.42,3.08,5.41,3.08,6.84,0l1.26-2.75c1.43-3.08,5.42-3.08,6.84,0l1.72,3.71c1.16,2.51,4.79,2.51,5.95,0l1.67-3.13c1.01-1.89,2.85-3.05,4.84-3.05h0c1,0,1.81.83,1.75,1.83,0,.14-.01.28-.01.42v.6c0,3.53,2.69,6.49,6.21,6.82l23.76,2.25c3.5.33,6.59-2.02,7.33-5.3h20.59Z"/>
    <path id="mouth-zipper" class="cls-8" d="M292.76,53.46v5.24c0,.52-.06,1.03-.17,1.52-.74,3.28-3.83,5.64-7.33,5.3l-23.75-2.25c-3.53-.33-6.22-3.29-6.22-6.83v-.59c0-3.52,2.66-6.47,6.17-6.82l23.76-2.4c3.7-.37,6.96,2.26,7.47,5.85.05.32.07.64.07.98Z"/>
    <g id="turtle-shell">
      <path class="cls-13" d="M55.18,196.3l1.91-14.78c.54-4.21,4.23-7.34,8.56-7.26l4.98.08c4.26.07,7.81,3.24,8.28,7.39l1.72,15.15c.33,2.92-2.06,5.45-5.05,5.35l-15.67-.5c-2.9-.09-5.09-2.61-4.72-5.42Z"/>
      <path class="cls-13" d="M102.29,207.75l12.02-9.13c3.42-2.6,8.29-2.26,11.3.79l3.46,3.51c2.96,3.01,3.19,7.7.52,10.96l-9.72,11.9c-1.87,2.29-5.38,2.43-7.43.28l-10.72-11.21c-1.98-2.07-1.72-5.36.57-7.1Z"/>
      <path class="cls-13" d="M126.67,244.32l15.2-.48c4.33-.14,8.06,2.94,8.67,7.14l.7,4.83c.6,4.14-2.04,8.06-6.15,9.17l-15,4.04c-2.89.78-5.81-1.13-6.19-4.05l-1.95-15.24c-.36-2.82,1.83-5.33,4.73-5.42Z"/>
      <path class="cls-5" d="M141.24,335.77l-25.12-.43c-11.17-.19-20.31-8.76-20.99-19.68l-.25-3.93c.84-47.54-16.38-73.01-54.92-80.44-8.93-1.72-14.16-11.12-14-20.03l.58-32.8,34.07.58c50.34.86,82.4,37.27,85.58,85.99l3.87,61.72c.3,4.95-3.76,9.11-8.82,9.02Z"/>
      <path class="cls-13" d="M126.34,240.01l-.97,4.22c-.07.3-.16.6-.26.88-1.12,3.13-4.16,5.19-7.43,4.91l-2.06-.18c-2.43-.21-4.83-.73-7.12-1.57l-1.94-.71c-2.57-.94-4.29-3.29-4.58-5.96-.09-.81.01-1.64.21-2.44l1.07-4.36c.52-2.14,1.88-4.03,3.82-4.99,1.17-.58,2.5-.85,3.86-.71l2.48.26c2.05.22,4.07.66,6.01,1.32l2.35.8c2.96,1.01,4.82,3.87,4.74,6.99-.01.5-.07,1.01-.19,1.52Z"/>
      <path class="cls-13" d="M83.21,205.87l1.79,2.63c.13.19.25.39.35.58,1.14,2.15.83,4.69-.81,6.14l-1.04.92c-1.23,1.08-2.6,1.98-4.09,2.67l-1.27.59c-1.68.78-3.71.41-5.25-.82-.47-.37-.86-.85-1.2-1.35l-1.82-2.75c-.89-1.35-1.27-2.98-.89-4.42.23-.87.7-1.65,1.4-2.24l1.28-1.08c1.06-.89,2.22-1.65,3.46-2.26l1.5-.74c1.89-.92,4.26-.37,5.87,1.26.26.26.5.55.72.87Z"/>
      <path class="cls-13" d="M104.61,293.61c.2.91.31,1.85.26,2.76-.17,2.95-1.58,5.43-3.77,6.27h0c-3.05,1.17-6.29,1.8-9.57,1.87h0c-2.83.06-5.54-2.48-6.61-6.07-.1-.32-.18-.66-.25-.99l-.97-4.78c-.12-.58-.19-1.15-.21-1.71-.17-3.48,1.36-6.53,3.89-7.43l.6-.21c2.61-.92,5.34-1.45,8.1-1.58l.63-.03c1.18-.05,2.34.35,3.37,1.09,1.71,1.22,2.94,3.44,3.47,5.87l1.07,4.95Z"/>
      <path class="cls-13" d="M151.14,319.6c-.43.16-.88.29-1.35.39l-3.42.73-13.79,2.92c-3.31.7-6.49-1.64-6.73-4.95l-.31-4.36-.68-9.52c.47-3.77,3.53-6.8,7.47-7.23l15.31-1.66c1.17.04,2.3.29,3.33.71,3.22,1.31,5.56,4.3,5.87,7.88l.48,5.5c.37,4.25-2.21,8.14-6.18,9.59Z"/>
      <path class="cls-13" d="M150.97,296.63c-1.03-.42-2.16-.67-3.33-.71l.15-.02c1.17-.13,2.28.16,3.18.73Z"/>
    </g>
    <rect id="head-bob" class="cls-11" x="42.22" y="1" width="34.21" height="74.94" rx="17.11" ry="17.11"/>
    <path id="head-neck" class="cls-12" d="M94.88,32.8v45.96c0,1.02-.82,1.84-1.84,1.84h-23.07c-18.41,0-33.33,14.92-33.33,33.33v132.06c0,9.84-7.98,17.82-17.82,17.82h0c-9.84,0-17.82-7.98-17.82-17.82V75.47c0-23.57,19.11-42.67,42.67-42.67h51.2Z"/>
    <path id="back-leg" class="cls-3" d="M108.17,700.91c0,1.97-.8,3.75-2.09,5.05-1.29,1.29-3.08,2.09-5.05,2.09H23.26v-253.46c0-8,6.49-14.49,14.49-14.49h0c8,0,14.49,6.49,14.49,14.49v234.69h44.29c6.43,0,11.64,5.21,11.64,11.64Z"/>
    <path id="front-leg" class="cls-3" d="M87.03,709.06c0,1.97-.8,3.75-2.09,5.05-1.29,1.29-3.08,2.09-5.05,2.09H2.11v-255.58c0-8,6.49-14.49,14.49-14.49h0c8,0,14.49,6.49,14.49,14.49v236.8h44.29c6.43,0,11.64,5.21,11.64,11.64Z"/>
    <g id="body">
      <path class="cls-6" d="M110.58,474.67c-16.55,16.55-39.42,25.85-62.64,27.36-2.25.15-4.5.22-6.74.22-13.9,0-27.73-2.8-40.2-8.53v-64.15c2.87.41,5.8.62,8.78.62,14.38,0,27.61-4.86,38.16-13.04,14.73-11.4,24.21-29.26,24.21-49.33s-9.48-37.93-24.21-49.33c-10.55-8.18-23.79-13.04-38.16-13.04-2.98,0-5.91.21-8.78.62v-113.61h39.18c2.64,0,5.23.21,7.76.57,26.01,3.68,45.62,25.23,45.62,51.78l.81,40.75c0,18.26,11.31,37.68,11.31,37.68,0,0,15.99,30.72,20.73,39.27,19.83,35.79,14.56,81.78-15.83,112.16Z"/>
      <path class="cls-11" d="M72.15,367.82c0,20.07-9.48,37.93-24.21,49.33-10.55,8.18-23.79,13.04-38.16,13.04-2.98,0-5.91-.21-8.78-.62v-123.5c2.87-.41,5.8-.62,8.78-.62,14.38,0,27.61,4.86,38.16,13.04,14.73,11.4,24.21,29.26,24.21,49.33Z"/>
    </g>
    <g id="blue-crank-base">
      <circle class="cls-9" cx="31.57" cy="472.11" r="20.23"/>
      <circle class="cls-4" cx="31.57" cy="472.11" r="9.87"/>
    </g>
    <g id="green-crank-base">
      <circle class="cls-9" cx="51.02" cy="234.67" r="20.23"/>
      <circle class="cls-4" cx="51.02" cy="234.67" r="9.87"/>
    </g>
    <g id="blue-crank">
      <g>
        <path class="cls-14" d="M39.31,520c0,2.43-1.12,4.59-2.86,6.01-1.34,1.08-3.03,1.73-4.88,1.73-2.34,0-4.43-1.03-5.84-2.67-1.18-1.36-1.9-3.13-1.9-5.07s.72-3.71,1.9-5.06c.15-.18.31-.34.48-.51v-41.6c0-2.96,2.39-5.36,5.36-5.36,1.48,0,2.82.6,3.79,1.57s1.57,2.31,1.57,3.79v41.15c-1.34-1.08-3.03-1.73-4.88-1.73-.11,0-.23,0-.34,0,1.79.02,3.44.66,4.74,1.72,1.74,1.42,2.86,3.58,2.86,6.01Z"/>
        <path class="cls-1" d="M39.41,520c.15,5.48-5.9,9.71-11.06,7.58-2.54-.95-4.6-3.26-5.17-6.03-.61-2.75.33-5.81,2.41-7.76l-.28.65c.04-12.45.9-24.89.5-37.35,0-1.04-.13-3.65-.1-4.71.11-2.93,2.61-5.48,5.6-5.63,3.33-.31,6.5,2.62,6.51,5.99,0,.45.04,3.37.05,3.9.13,12.08.29,25.34-.32,37.35,0,0-.07,1.33-.07,1.33l-.95-.84c-1.29-1.17-3.06-1.83-4.8-1.81,0,0-.02-.78-.02-.78,4.23.16,7.79,3.93,7.69,8.12h0ZM39.21,520c.06-4.01-3.49-7.55-7.51-7.34,0,0-.02-.78-.02-.78,2-.17,4.03.42,5.64,1.62,0,0-1.01.48-1.01.48-.6-11.99-.46-25.28-.32-37.35,0-.28.04-3.58.04-3.88.06-2.47-2.15-4.65-4.65-4.54-1.8-.02-3.58,1.15-4.29,2.89-.39.86-.38,1.8-.4,2.87l-.08,3.11c-.08,4.15-.12,8.3-.07,12.45.1,8.3.6,16.6.57,24.9v.39s-.28.26-.28.26c-3.56,3.23-2.54,9.59,1.91,11.58,4.66,2.36,10.6-1.38,10.47-6.67h0Z"/>
      </g>
      <path class="cls-2" d="M41.46,520c0,3.1-1.43,5.87-3.65,7.68-1.71,1.38-3.87,2.21-6.24,2.21-2.99,0-5.66-1.32-7.46-3.41-1.51-1.74-2.43-4-2.43-6.47s.92-4.74,2.43-6.46c1.8-2.1,4.48-3.42,7.46-3.42,2.36,0,4.53.82,6.24,2.21,2.23,1.81,3.65,4.58,3.65,7.68Z"/>
    </g>
    <g id="green-crank">
      <path class="cls-15" d="M58.76,281.59c0,2.43-1.12,4.59-2.86,6.01-1.34,1.08-3.03,1.73-4.88,1.73-2.34,0-4.43-1.03-5.84-2.67-1.18-1.36-1.9-3.13-1.9-5.07s.72-3.71,1.9-5.06c.15-.18.31-.34.48-.51v-41.6c0-2.96,2.39-5.36,5.36-5.36,1.48,0,2.82.6,3.79,1.57s1.57,2.31,1.57,3.79v41.15c-1.34-1.08-3.03-1.73-4.88-1.73-.11,0-.23,0-.34,0,1.79.02,3.44.66,4.74,1.72,1.74,1.42,2.86,3.58,2.86,6.01Z"/>
      <path class="cls-1" d="M58.86,281.59c.15,5.48-5.9,9.71-11.06,7.58-2.54-.95-4.6-3.26-5.17-6.03-.61-2.75.33-5.81,2.41-7.76l-.28.65c.04-12.45.9-24.89.5-37.35,0-1.04-.13-3.65-.1-4.71.11-2.93,2.61-5.48,5.6-5.63,3.33-.31,6.5,2.62,6.52,5.99,0,.45.04,3.37.04,3.9.13,12.08.29,25.34-.32,37.35,0,0-.07,1.33-.07,1.33l-.95-.84c-1.29-1.17-3.06-1.83-4.8-1.81,0,0-.02-.78-.02-.78,4.23.16,7.79,3.93,7.69,8.12h0ZM58.66,281.59c.06-4.01-3.49-7.55-7.51-7.34,0,0-.02-.78-.02-.78,2-.17,4.03.42,5.64,1.62,0,0-1.01.48-1.01.48-.6-11.99-.46-25.28-.32-37.35,0-.28.04-3.58.04-3.88.06-2.47-2.15-4.65-4.65-4.54-1.8-.02-3.58,1.15-4.29,2.89-.39.86-.38,1.8-.4,2.87l-.08,3.11c-.08,4.15-.12,8.3-.07,12.45.1,8.3.6,16.6.57,24.9,0,0,0,.39,0,.39l-.28.26c-3.56,3.23-2.54,9.59,1.91,11.58,4.65,2.36,10.6-1.38,10.47-6.67h0Z"/>
    </g>
    <circle id="eyeball" class="cls-10" cx="62.12" cy="55.61" r="18.15"/>
    <circle id="pupil" class="cls-1" cx="62.12" cy="55.61" r="8.29"/>
  </g>
</svg>