<?xml version="1.0" encoding="UTF-8"?>
<svg id="Layer_2" data-name="Layer 2" xmlns="http://www.w3.org/2000/svg" viewBox="0 0 313.68 717.19">
  <defs>
    <style>
      .cls-1 {
        fill: #030501;
      }

      .cls-2 {
        fill: #55e656;
      }

      .cls-2, .cls-3, .cls-4, .cls-5, .cls-6, .cls-7, .cls-8, .cls-9, .cls-10, .cls-11, .cls-12, .cls-13 {
        stroke: #030501;
      }

      .cls-2, .cls-3, .cls-4, .cls-6, .cls-7, .cls-9, .cls-10, .cls-11, .cls-12, .cls-13 {
        stroke-miterlimit: 10;
      }

      .cls-14 {
        fill: #0a9;
      }

      .cls-3 {
        fill: #e7fbf6;
      }

      .cls-3, .cls-4, .cls-5, .cls-7, .cls-8, .cls-9, .cls-10, .cls-11, .cls-12, .cls-13 {
        stroke-width: 2px;
      }

      .cls-4 {
        fill: #d16b9b;
      }

      .cls-5 {
        fill: #bdfd60;
      }

      .cls-5, .cls-8 {
        stroke-linejoin: round;
      }

      .cls-6 {
        fill: #a0f4bc;
      }

      .cls-7 {
        fill: #7f58b6;
      }

      .cls-8 {
        fill: #d26b9c;
      }

      .cls-9 {
        fill: #cff598;
      }

      .cls-15, .cls-10 {
        fill: #32baff;
      }

      .cls-11 {
        fill: #d56a9d;
      }

      .cls-12 {
        fill: #68f8b7;
      }

      .cls-13 {
        fill: #2ee535;
      }
    </style>
  </defs>
  <g id="guitar-anti-dan">
    <path id="top-jaw" class="cls-2" d="M.5,38.49v14h20.49c.51-3.59,3.78-6.22,7.47-5.85l23.76,2.4c2.09.21,3.87,1.33,4.97,2.95.67.99,1.74,1.62,2.94,1.62h0c1.99,0,3.83,1.16,4.84,3.05l1.67,3.13c1.16,2.51,4.79,2.51,5.95,0l1.72-3.71c1.42-3.08,5.41-3.08,6.84,0l1.26,2.75c1.43,3.08,5.42,3.08,6.84,0l1.27-2.75c1.35-2.92,5.49-2.92,6.84,0l1.27,2.75c1.35,2.92,5.49,2.92,6.84,0l1.27-2.75c1.42-3.08,5.41-3.08,6.84,0l1.27,2.75c1.35,2.91,5.48,2.91,6.83,0l1.27-2.75c1.43-3.08,5.42-3.08,6.84,0l1.27,2.75c1.35,2.92,5.49,2.92,6.84,0l1.27-2.75c1.42-3.08,5.41-3.08,6.84,0l1.27,2.75c1.35,2.91,5.48,2.91,6.83,0l1.27-2.75c1.43-3.08,5.42-3.08,6.84,0l1.27,2.75c1.35,2.92,5.49,2.92,6.84,0l1.27-2.75c1.35-2.92,5.49-2.92,6.84,0l1.27,2.75c1.42,3.08,5.41,3.08,6.84,0l1.26-2.75c1.43-3.08,5.42-3.08,6.84,0l1.27,2.75c1.35,2.92,5.49,2.92,6.84,0l1.27-2.75c1.35-2.92,5.49-2.92,6.84,0l1.27,2.75c1.37,2.97,5.13,3.08,6.66.32l10.73-10.48c5.94-5.8,1.83-15.87-6.47-15.87H6.19c-3.14,0-5.69,2.55-5.69,5.69Z"/>
    <path id="bottom-jaw" class="cls-2" d="M.5,60.23v14.12c0,3.15,2.55,5.69,5.69,5.69h214.61c6.07,0,9.4-7.07,5.54-11.75l-3.75-4.55c-1.64-1.99-4.18-2.82-6.74-2.61-1.44.12-2.94-.65-3.7-2.3l-1.27-2.75c-1.35-2.92-5.49-2.92-6.84,0l-1.27,2.75c-1.35,2.92-5.49,2.92-6.84,0l-1.27-2.75c-1.42-3.08-5.41-3.08-6.84,0l-1.26,2.75c-1.43,3.08-5.42,3.08-6.84,0l-1.27-2.75c-1.35-2.92-5.49-2.92-6.84,0l-1.27,2.75c-1.35,2.92-5.49,2.92-6.84,0l-1.27-2.75c-1.42-3.08-5.41-3.08-6.84,0l-1.27,2.75c-1.35,2.91-5.48,2.91-6.83,0l-1.27-2.75c-1.43-3.08-5.42-3.08-6.84,0l-1.27,2.75c-1.35,2.92-5.49,2.92-6.84,0l-1.27-2.75c-1.42-3.08-5.41-3.08-6.84,0l-1.27,2.75c-1.35,2.91-5.48,2.91-6.83,0l-1.27-2.75c-1.43-3.08-5.42-3.08-6.84,0l-1.27,2.75c-1.35,2.92-5.49,2.92-6.84,0l-1.27-2.75c-1.35-2.92-5.49-2.92-6.84,0l-1.27,2.75c-1.42,3.08-5.41,3.08-6.84,0l-1.26-2.75c-1.43-3.08-5.42-3.08-6.84,0l-1.72,3.71c-1.16,2.51-4.79,2.51-5.95,0l-1.67-3.13c-1.01-1.89-2.85-3.05-4.84-3.05h0c-1,0-1.81.83-1.75,1.83,0,.14.01.28.01.42v.6c0,3.53-2.69,6.49-6.21,6.82l-23.76,2.25c-3.5.33-6.59-2.02-7.33-5.3H.5Z"/>
    <path id="mouth-zipper" class="cls-6" d="M20.92,53.46v5.24c0,.52.06,1.03.17,1.52.74,3.28,3.83,5.64,7.33,5.3l23.75-2.25c3.53-.33,6.22-3.29,6.22-6.83v-.59c0-3.52-2.66-6.47-6.17-6.82l-23.76-2.4c-3.7-.37-6.96,2.26-7.47,5.85-.05.32-.07.64-.07.98Z"/>
    <g id="turtle-shell">
      <path class="cls-11" d="M258.5,196.3l-1.91-14.78c-.54-4.21-4.23-7.34-8.56-7.26l-4.98.08c-4.26.07-7.81,3.24-8.28,7.39l-1.72,15.15c-.33,2.92,2.06,5.45,5.05,5.35l15.67-.5c2.9-.09,5.09-2.61,4.72-5.42Z"/>
      <path class="cls-11" d="M211.39,207.75l-12.02-9.13c-3.42-2.6-8.29-2.26-11.3.79l-3.46,3.51c-2.96,3.01-3.19,7.7-.52,10.96l9.72,11.9c1.87,2.29,5.38,2.43,7.43.28l10.72-11.21c1.98-2.07,1.72-5.36-.57-7.1Z"/>
      <path class="cls-11" d="M187.01,244.32l-15.2-.48c-4.33-.14-8.06,2.94-8.67,7.14l-.7,4.83c-.6,4.14,2.04,8.06,6.15,9.17l15,4.04c2.89.78,5.81-1.13,6.19-4.05l1.95-15.24c.36-2.82-1.83-5.33-4.73-5.42Z"/>
      <path class="cls-7" d="M172.44,335.77l25.12-.43c11.17-.19,20.31-8.76,20.99-19.68l.25-3.93c-.84-47.54,16.38-73.01,54.92-80.44,8.93-1.72,14.16-11.12,14-20.03l-.58-32.8-34.07.58c-50.34.86-82.4,37.27-85.58,85.99l-3.87,61.72c-.3,4.95,3.76,9.11,8.82,9.02Z"/>
      <path class="cls-11" d="M187.34,240.01l.97,4.22c.07.3.16.6.26.88,1.12,3.13,4.16,5.19,7.43,4.91l2.06-.18c2.43-.21,4.83-.73,7.12-1.57l1.94-.71c2.57-.94,4.29-3.29,4.58-5.96.09-.81-.01-1.64-.21-2.44l-1.07-4.36c-.52-2.14-1.88-4.03-3.82-4.99-1.17-.58-2.5-.85-3.86-.71l-2.48.26c-2.05.22-4.07.66-6.01,1.32l-2.35.8c-2.96,1.01-4.82,3.87-4.74,6.99.01.5.07,1.01.19,1.52Z"/>
      <path class="cls-11" d="M230.47,205.87l-1.79,2.63c-.13.19-.25.39-.35.58-1.14,2.15-.83,4.69.81,6.14l1.04.92c1.23,1.08,2.6,1.98,4.09,2.67l1.27.59c1.68.78,3.71.41,5.25-.82.47-.37.86-.85,1.2-1.35l1.82-2.75c.89-1.35,1.27-2.98.89-4.42-.23-.87-.7-1.65-1.4-2.24l-1.28-1.08c-1.06-.89-2.22-1.65-3.46-2.26l-1.5-.74c-1.89-.92-4.26-.37-5.87,1.26-.26.26-.5.55-.72.87Z"/>
      <path class="cls-11" d="M209.07,293.61c-.2.91-.31,1.85-.26,2.76.17,2.95,1.58,5.43,3.77,6.27h0c3.05,1.17,6.29,1.8,9.57,1.87h0c2.83.06,5.54-2.48,6.61-6.07.1-.32.18-.66.25-.99l.97-4.78c.12-.58.19-1.15.21-1.71.17-3.48-1.36-6.53-3.89-7.43l-.6-.21c-2.61-.92-5.34-1.45-8.1-1.58l-.63-.03c-1.18-.05-2.34.35-3.37,1.09-1.71,1.22-2.94,3.44-3.47,5.87l-1.07,4.95Z"/>
      <path class="cls-11" d="M162.54,319.6c.43.16.88.29,1.35.39l3.42.73,13.79,2.92c3.31.7,6.49-1.64,6.73-4.95l.31-4.36.68-9.52c-.47-3.77-3.53-6.8-7.47-7.23l-15.31-1.66c-1.17.04-2.3.29-3.33.71-3.22,1.31-5.56,4.3-5.87,7.88l-.48,5.5c-.37,4.25,2.21,8.14,6.18,9.59Z"/>
      <path class="cls-11" d="M162.71,296.63c1.03-.42,2.16-.67,3.33-.71l-.15-.02c-1.17-.13-2.28.16-3.18.73Z"/>
    </g>
    <rect id="head-bob" class="cls-13" x="237.25" y="1" width="34.21" height="74.94" rx="17.11" ry="17.11"/>
    <path id="head-neck" class="cls-8" d="M218.8,32.8v45.96c0,1.02.82,1.84,1.84,1.84h23.07c18.41,0,33.33,14.92,33.33,33.33v132.06c0,9.84,7.98,17.82,17.82,17.82h0c9.84,0,17.82-7.98,17.82-17.82V75.47c0-23.57-19.11-42.67-42.67-42.67h-51.2Z"/>
    <path id="back-leg" class="cls-5" d="M205.51,700.91c0,1.97.8,3.75,2.09,5.05,1.29,1.29,3.08,2.09,5.05,2.09h77.78v-253.46c0-8-6.49-14.49-14.49-14.49h0c-8,0-14.49,6.49-14.49,14.49v234.69h-44.29c-6.43,0-11.64,5.21-11.64,11.64Z"/>
    <path id="front-leg" class="cls-5" d="M226.65,709.06c0,1.97.8,3.75,2.09,5.05,1.29,1.29,3.08,2.09,5.05,2.09h77.78v-255.58c0-8-6.49-14.49-14.49-14.49h0c-8,0-14.49,6.49-14.49,14.49v236.8h-44.29c-6.43,0-11.64,5.21-11.64,11.64Z"/>
    <g id="body">
      <path class="cls-4" d="M203.1,474.67c16.55,16.55,39.42,25.85,62.64,27.36,2.25.15,4.5.22,6.74.22,13.9,0,27.73-2.8,40.2-8.53v-64.15c-2.87.41-5.8.62-8.78.62-14.38,0-27.61-4.86-38.16-13.04-14.73-11.4-24.21-29.26-24.21-49.33s9.48-37.93,24.21-49.33c10.55-8.18,23.79-13.04,38.16-13.04,2.98,0,5.91.21,8.78.62v-113.61h-39.18c-2.64,0-5.23.21-7.76.57-26.01,3.68-45.62,25.23-45.62,51.78l-.81,40.75c0,18.26-11.31,37.68-11.31,37.68,0,0-15.99,30.72-20.73,39.27-19.83,35.79-14.56,81.78,15.83,112.16Z"/>
      <path class="cls-13" d="M241.53,367.82c0,20.07,9.48,37.93,24.21,49.33,10.55,8.18,23.79,13.04,38.16,13.04,2.98,0,5.91-.21,8.78-.62v-123.5c-2.87-.41-5.8-.62-8.78-.62-14.38,0-27.61,4.86-38.16,13.04-14.73,11.4-24.21,29.26-24.21,49.33Z"/>
    </g>
    <g id="blue-crank-base">
      <circle class="cls-9" cx="282.11" cy="472.11" r="20.23"/>
      <circle class="cls-3" cx="282.11" cy="472.11" r="9.87"/>
    </g>
    <g id="green-crank-base">
      <circle class="cls-9" cx="262.66" cy="234.67" r="20.23"/>
      <circle class="cls-3" cx="262.66" cy="234.67" r="9.87"/>
    </g>
    <g id="blue-crank">
      <g>
        <path class="cls-15" d="M274.37,520c0,2.43,1.12,4.59,2.86,6.01,1.34,1.08,3.03,1.73,4.88,1.73,2.34,0,4.43-1.03,5.84-2.67,1.18-1.36,1.9-3.13,1.9-5.07s-.72-3.71-1.9-5.06c-.15-.18-.31-.34-.48-.51v-41.6c0-2.96-2.39-5.36-5.36-5.36-1.48,0-2.82.6-3.79,1.57s-1.57,2.31-1.57,3.79v41.15c1.34-1.08,3.03-1.73,4.88-1.73.11,0,.23,0,.34,0-1.79.02-3.44.66-4.74,1.72-1.74,1.42-2.86,3.58-2.86,6.01Z"/>
        <path class="cls-1" d="M274.47,520c.17,8.96,12.9,10.07,14.47,1.26.38-2.4-.56-4.88-2.37-6.44.02-12.58.9-25.15.5-37.73-.13-1.57.14-4.61-.48-5.98-.71-1.73-2.49-2.9-4.29-2.89-2.5-.1-4.71,2.07-4.65,4.54,0,.44.03,3.36.04,3.88.13,12.08.28,25.34-.32,37.35,0,0-1.01-.48-1.01-.48,1.61-1.21,3.64-1.79,5.64-1.62,0,0-.02.78-.02.78-4.01-.21-7.57,3.34-7.5,7.34h0ZM274.27,520c-.09-4.19,3.47-7.96,7.69-8.12,0,0-.02.78-.02.78-1.75-.01-3.51.65-4.8,1.81,0,0-.95.84-.95.84l-.07-1.33c-.61-11.99-.45-25.29-.32-37.35.01-.4.03-3.51.05-3.9.01-3.36,3.18-6.29,6.51-5.99,2.99.15,5.49,2.7,5.6,5.63.02,1.05-.08,3.62-.1,4.71-.4,12.45.46,24.9.5,37.35,0,0-.28-.65-.28-.65,2.08,1.96,3.02,5.01,2.41,7.76-.57,2.77-2.63,5.08-5.17,6.03-5.15,2.12-11.21-2.09-11.06-7.58h0Z"/>
      </g>
      <path class="cls-10" d="M272.22,520c0,3.1,1.43,5.87,3.65,7.68,1.71,1.38,3.87,2.21,6.24,2.21,2.99,0,5.66-1.32,7.46-3.41,1.51-1.74,2.43-4,2.43-6.47s-.92-4.74-2.43-6.46c-1.8-2.1-4.48-3.42-7.46-3.42-2.36,0-4.53.82-6.24,2.21-2.23,1.81-3.65,4.58-3.65,7.68Z"/>
    </g>
    <g id="green-crank">
      <path class="cls-14" d="M254.92,281.59c0,2.43,1.12,4.59,2.86,6.01,1.34,1.08,3.03,1.73,4.88,1.73,2.34,0,4.43-1.03,5.84-2.67,1.18-1.36,1.9-3.13,1.9-5.07s-.72-3.71-1.9-5.06c-.15-.18-.31-.34-.48-.51v-41.6c0-2.96-2.39-5.36-5.36-5.36-1.48,0-2.82.6-3.79,1.57s-1.57,2.31-1.57,3.79v41.15c1.34-1.08,3.03-1.73,4.88-1.73.11,0,.23,0,.34,0-1.79.02-3.44.66-4.74,1.72-1.74,1.42-2.86,3.58-2.86,6.01Z"/>
      <path class="cls-1" d="M255.02,281.59c.17,8.96,12.9,10.07,14.47,1.26.38-2.4-.56-4.88-2.37-6.44.02-12.58.9-25.15.5-37.73-.13-1.57.14-4.61-.48-5.98-.71-1.73-2.49-2.9-4.29-2.89-2.5-.1-4.71,2.07-4.65,4.54,0,.44.03,3.36.04,3.88.13,12.08.28,25.34-.32,37.35,0,0-1.01-.48-1.01-.48,1.61-1.21,3.64-1.79,5.64-1.62,0,0-.02.78-.02.78-4.01-.21-7.57,3.33-7.5,7.34h0ZM254.82,281.59c-.09-4.19,3.47-7.96,7.69-8.12,0,0-.02.78-.02.78-1.75-.01-3.51.65-4.8,1.81,0,0-.95.84-.95.84,0,0-.07-1.33-.07-1.33-.61-11.99-.45-25.29-.32-37.35.01-.4.03-3.51.04-3.9.02-3.36,3.18-6.29,6.52-5.99,2.99.15,5.49,2.7,5.6,5.63.02,1.05-.08,3.62-.1,4.71-.4,12.45.46,24.9.5,37.35,0,0-.28-.65-.28-.65,2.08,1.96,3.02,5.01,2.41,7.76-.57,2.77-2.63,5.08-5.17,6.03-5.15,2.12-11.21-2.09-11.06-7.58h0Z"/>
    </g>
    <circle id="eyeball" class="cls-12" cx="251.56" cy="55.61" r="18.15"/>
    <circle id="pupil" class="cls-1" cx="251.56" cy="55.61" r="8.29"/>
  </g>
</svg>