<?xml version="1.0" encoding="UTF-8"?>
<svg id="Layer_2" data-name="Layer 2" xmlns="http://www.w3.org/2000/svg" viewBox="0 0 488.71 367.72">
  <defs>
    <style>
      .cls-1 {
        fill: #e2d7c9;
      }

      .cls-1, .cls-2, .cls-3, .cls-4, .cls-5, .cls-6, .cls-7, .cls-8, .cls-9, .cls-10, .cls-11, .cls-12, .cls-13, .cls-14, .cls-15, .cls-16, .cls-17, .cls-18, .cls-19, .cls-20, .cls-21, .cls-22, .cls-23, .cls-24, .cls-25 {
        stroke: #1c1b18;
      }

      .cls-1, .cls-2, .cls-3, .cls-4, .cls-6, .cls-7, .cls-8, .cls-9, .cls-10, .cls-11, .cls-12, .cls-13, .cls-14, .cls-15, .cls-16, .cls-17, .cls-18, .cls-19, .cls-20, .cls-21, .cls-22, .cls-23, .cls-24, .cls-25 {
        stroke-width: 2px;
      }

      .cls-1, .cls-2, .cls-3, .cls-4, .cls-7, .cls-8, .cls-9, .cls-11, .cls-12, .cls-13, .cls-16, .cls-19, .cls-20, .cls-21, .cls-22, .cls-23, .cls-24, .cls-25 {
        stroke-miterlimit: 10;
      }

      .cls-2 {
        fill: #e49e4b;
      }

      .cls-26, .cls-11, .cls-18 {
        fill: #f68104;
      }

      .cls-3 {
        fill: #5a68b1;
      }

      .cls-4 {
        fill: #ecddb9;
      }

      .cls-5 {
        fill: #850026;
      }

      .cls-5, .cls-6, .cls-10, .cls-14, .cls-15, .cls-17, .cls-18 {
        stroke-linejoin: round;
      }

      .cls-6 {
        fill: #301c30;
      }

      .cls-7, .cls-17 {
        fill: #fbc83e;
      }

      .cls-8 {
        fill: #e99fa8;
      }

      .cls-9, .cls-15 {
        fill: #e29a47;
      }

      .cls-10 {
        fill: #5b4aaf;
      }

      .cls-27 {
        fill: #1c1b18;
      }

      .cls-12 {
        fill: #e89b47;
      }

      .cls-13 {
        fill: #e9a0a9;
      }

      .cls-28 {
        fill: #a488ff;
      }

      .cls-14 {
        fill: #e2d2bd;
      }

      .cls-16 {
        fill: #5967b2;
      }

      .cls-19 {
        fill: none;
      }

      .cls-20 {
        fill: #301c32;
      }

      .cls-21 {
        fill: #80b98b;
      }

      .cls-22 {
        fill: #fff;
      }

      .cls-23 {
        fill: #5969b2;
      }

      .cls-24 {
        fill: #ded0ba;
      }

      .cls-25 {
        fill: #ecdfbc;
      }
    </style>
  </defs>
  <g id="otis">
    <g id="lower-beak">
      <g id="lower-jaw">
        <path class="cls-26" d="M43.21,93.29c-5.87,0-13.19-1.19-23.01-3.76-.48-.12-.79-.58-.74-1.07.05-.49.45-.87.94-.9l32.85-1.92s.13,0,.15,0c1.07,0,2,.69,2.32,1.72.32,1.04-.06,2.11-.96,2.73l-.47.32c-2.07,1.41-4.37,2.31-6.66,2.61-1.35.18-2.84.27-4.42.27h0Z"/>
        <path class="cls-27" d="M53.39,86.64c1.39,0,1.97,1.82.8,2.62l-.47.32c-1.87,1.27-3.99,2.15-6.22,2.45-1.34.18-2.77.26-4.29.26-6.41,0-14.24-1.5-22.76-3.72l32.85-1.92s.06,0,.09,0M53.39,84.64c-.07,0-.14,0-.21,0l-32.85,1.92c-.98.06-1.78.82-1.87,1.8-.1.98.53,1.88,1.49,2.13,9.91,2.58,17.3,3.79,23.26,3.79,1.62,0,3.15-.09,4.55-.28,2.44-.32,4.89-1.28,7.09-2.78l.47-.32c1.25-.85,1.8-2.4,1.35-3.85-.45-1.45-1.76-2.43-3.27-2.43h0Z"/>
      </g>
      <circle id="pivot" class="cls-27" cx="53.03" cy="88.04" r=".66"/>
    </g>
    <g id="tail-feathers-02">
      <path class="cls-18" d="M415.96,332.21l51.01-32.72c5.66-3.63,7.98-10.54,4.74-14.12l-9.12-10.09c-3.12-3.45-9.88-2.08-14.13,2.86l-39.37,45.84c-5.42,6.32-.1,12.7,6.87,8.23Z"/>
      <path class="cls-18" d="M415.45,332.73l54.86-25.74c6.08-2.85,9.29-9.4,6.55-13.37l-7.72-11.2c-2.64-3.83-9.52-3.36-14.38.99l-45.04,40.27c-6.21,5.55-1.77,12.58,5.73,9.06Z"/>
      <path class="cls-11" d="M415.45,332.73l60.6-.23c6.72-.03,12.39-4.61,11.58-9.36l-2.28-13.41c-.78-4.59-7.22-7.06-13.46-5.17l-57.82,17.54c-7.97,2.42-6.9,10.66,1.37,10.63Z"/>
      <path class="cls-11" d="M415.45,332.73l59.93-8.98c6.64-1,11.59-6.35,10.1-10.94l-4.19-12.94c-1.43-4.43-8.16-5.94-14.06-3.17l-54.68,25.71c-7.53,3.54-5.29,11.55,2.9,10.32Z"/>
      <path class="cls-11" d="M415.62,332.64l59.73-18.41c6.62-2.04,10.93-8.14,8.79-12.47l-6.02-12.2c-2.06-4.17-9.11-4.61-14.73-.92l-52.12,34.2c-7.18,4.71-3.81,12.31,4.34,9.8Z"/>
    </g>
    <g id="tail-feathers-01">
      <path class="cls-18" d="M400.46,337.91l38.56-24.74c4.28-2.74,6.03-7.96,3.59-10.67l-6.89-7.63c-2.36-2.61-7.47-1.57-10.68,2.17l-29.76,34.65c-4.1,4.77-.08,9.6,5.19,6.22Z"/>
      <path class="cls-18" d="M400.08,338.3l41.47-19.46c4.6-2.16,7.02-7.1,4.95-10.11l-5.83-8.47c-1.99-2.9-7.2-2.54-10.87.75l-34.05,30.44c-4.69,4.19-1.33,9.51,4.33,6.85Z"/>
      <path class="cls-11" d="M400.08,338.3l45.81-.18c5.08-.02,9.36-3.48,8.75-7.08l-1.72-10.14c-.59-3.47-5.46-5.34-10.17-3.9l-43.71,13.26c-6.02,1.83-5.22,8.06,1.04,8.04Z"/>
      <path class="cls-11" d="M400.08,338.3l45.3-6.79c5.02-.75,8.76-4.8,7.64-8.27l-3.17-9.78c-1.08-3.35-6.17-4.49-10.63-2.39l-41.33,19.44c-5.7,2.68-4,8.73,2.19,7.8Z"/>
      <path class="cls-11" d="M400.21,338.24l45.16-13.91c5.01-1.54,8.26-6.16,6.65-9.43l-4.55-9.22c-1.56-3.15-6.88-3.49-11.13-.7l-39.4,25.86c-5.43,3.56-2.88,9.31,3.28,7.41Z"/>
    </g>
    <g id="tail">
      <path class="cls-15" d="M411.98,338.62v21.07c0,3.88-3.15,7.03-7.03,7.03h-77.63l8.57-1.49c9.56-1.66.9-16.96.9-16.96,0,0,43.61.44,62.35.44,6.24,0,11.07-4.11,12.84-10.09h0Z"/>
      <path class="cls-10" d="M376.92,348.71v10.98c0,3.88-3.15,7.03-7.03,7.03h-77.63l8.57-1.49c9.56-1.66,13-13.62,5.77-20.1h0c2.67,2.24,63.59,3.58,67.32,3.58h2.99Z"/>
      <path class="cls-19" d="M376.92,308.77v39.94h-2.99c-3.73,0-64.65-1.34-67.32-3.58v-43.86l70.31,7.5Z"/>
      <path class="cls-6" d="M411.98,330.82v14.35c-2.03,2.14-4.91,3.54-8.45,3.54h-26.61v-16.76c0-13.18-9.94-24.24-23.05-25.64l-47.26-5.04,57.48-.34,46.02,26.38s0,0,0,0h0c1.17.79,1.87,2.1,1.87,3.51Z"/>
    </g>
    <g id="hat">
      <line class="cls-19" x1="100.65" y1="29.65" x2="100.65" y2="80.32"/>
      <path class="cls-23" d="M119.8,20.32c0,1.58-.19,3.11-.55,4.58-.89,3.7-2.86,6.98-5.54,9.5h-26.44c-2.69-2.52-4.65-5.8-5.55-9.5-.36-1.47-.55-3-.55-4.58,0-10.67,8.65-19.32,19.32-19.32s19.31,8.65,19.31,19.32Z"/>
      <g id="feather">
        <g>
          <path class="cls-28" d="M102.18,16.84c6.1-4.82,14.9-6.3,22.23-3.72-7.63.25-14.94,1.46-22.23,3.72h0Z"/>
          <path d="M102.18,16.84c6.69-3.69,14.7-5.03,22.23-3.72-7.58-.99-15.38.31-22.23,3.72h0Z"/>
        </g>
        <g>
          <path class="cls-28" d="M102.15,17.15c5.46-2.52,10.6-5.68,16.4-7.46,5.79-1.72,11.99-2.13,17.92-.98-1.5-.08-2.99-.14-4.48-.09-4.45.06-8.9.75-13.15,2.03-5.7,1.71-10.98,4.72-16.69,6.5h0Z"/>
          <path d="M102.14,17.14c11.48-5.19,21.18-10.57,34.32-8.44,0,0,0,.02,0,.02-5.95-.61-12-.13-17.76,1.51-5.76,1.64-10.94,5.03-16.57,6.9h0Z"/>
        </g>
        <g>
          <path class="cls-28" d="M100.34,17.38c3.99-1.92,8.29-3.68,12.4-5.29,3.71-1.68,9.51-2.34,10.51-7.03-.26,5.06-6.38,6.29-10.15,7.96-4.2,1.61-8.43,3.14-12.77,4.36h0Z"/>
          <path d="M100.33,17.37c4.13-1.78,8.4-3.18,12.56-4.88,3.69-1.74,9.58-2.64,10.34-7.44,0,0,.02,0,.02,0-.52,4.99-6.52,5.94-10.32,7.56-4.21,1.52-8.38,3.44-12.61,4.75h0Z"/>
        </g>
        <g>
          <path class="cls-28" d="M100.42,16.44c8.89-1.04,16.85-7.22,26.03-6.02-9.05.18-16.92,6.34-26.03,6.02h0Z"/>
          <path d="M100.42,16.43c9.02-.46,16.89-6.71,26.04-6.02,0,0,0,.03,0,.03-9.11-.35-17.08,5.84-26.03,5.99h0Z"/>
        </g>
      </g>
      <path class="cls-5" d="M108.71,18.81c0,.91-.26,1.78-.74,2.57-3.29-9.24-11.86-9.31-15.18,0-.64-1.07-.89-2.31-.62-3.58l.03-.16c2.93-9.58,13.66-9.43,16.42.23.06.32.09.63.09.95Z"/>
      <path class="cls-12" d="M129.12,29.85c-.06,1.23-.67,2.34-1.62,3.16-.99.86-2.38,1.39-3.91,1.39h-45.55c-3.18,0-5.99-2.23-5.86-4.95.06-1.23.67-2.34,1.62-3.16,1-.86,2.39-1.39,3.92-1.39h45.53c3.18,0,5.99,2.23,5.86,4.95Z"/>
      <path class="cls-17" d="M120.41,24.37h-39.71c-1.54,0-1.54-4.61,0-4.61h39.71c1.35,0,1.35,4.61,0,4.61Z"/>
    </g>
    <g id="bulb">
      <path class="cls-1" d="M300.7,233.64h-20.52l-.7-17.83c-.24-6.22,4.73-11.39,10.96-11.39h0c6.22,0,11.2,5.17,10.96,11.39l-.7,17.83Z"/>
      <polygon class="cls-14" points="286.38 223.42 290.44 212.53 293.65 223.42 286.38 223.42"/>
    </g>
    <path id="bulb-base" class="cls-20" d="M325.11,246.83h-67.73l11.26-21.94c1.4-2.73,4.21-4.45,7.28-4.45h30.63c3.07,0,5.88,1.72,7.28,4.45l11.26,21.94Z"/>
    <path id="beak" class="cls-11" d="M31.11,46.55h38.85v47.09H9.73c-4.82,0-8.73-3.91-8.73-8.73v-8.25c0-16.62,13.49-30.11,30.11-30.11Z"/>
    <path id="neck" class="cls-4" d="M161.46,72.6v219.73c0,2.32-.66,4.5-1.81,6.33-2.12,3.37-5.87,5.62-10.15,5.62h-81.83c-6.2,0-11.22-5.02-11.22-11.22V103.2c0-4.92-3.49-9.02-8.12-9.96v-31.49c0-5.84,3.29-10.91,8.12-13.45,2.11-1.12,4.52-1.75,7.08-1.75h71.88c14.38,0,26.05,11.66,26.05,26.05Z"/>
    <path id="body" class="cls-3" d="M362.41,293.94v67.19h-39.65v5.59H67.01c-5.83,0-10.56-4.73-10.56-10.56v-120.79h93.05c4.28,0,8.03-2.25,10.15-5.62,1.15-1.83,1.81-4.01,1.81-6.33v7.36c0,7.13,2.65,14.07,7.66,19.14.04.04.07.07.11.11,18.3,18.3,46.91,19.97,67.1,5.03h.01c2.03-1.51,3.98-3.19,5.82-5.03l1.34-1.34c10.32-10.32,24.08-16.69,38.67-17.18.69-.02,1.39-.04,2.09-.04h15.68c34.5,0,62.47,27.97,62.47,62.47Z"/>
    <g id="front-panel">
      <path class="cls-13" d="M212.19,314.48c0,9.46-3.83,18.01-10.03,24.21-6.19,6.19-14.75,10.02-24.2,10.02H56.45c-3.92,0-3.92-17.67,0-17.67h121.94c4.57,0,8.71-1.85,11.71-4.85,3-2.99,4.85-7.13,4.85-11.71,0-9.14-7.41-16.55-16.56-16.55H56.45c-3.92,0-3.92-17.67,0-17.67h121.51c18.9,0,34.23,15.32,34.23,34.22Z"/>
      <path class="cls-2" d="M194.95,314.48c0,4.58-1.85,8.72-4.85,11.71-3,3-7.14,4.85-11.71,4.85H56.45v-33.11h121.94c9.15,0,16.56,7.41,16.56,16.55Z"/>
      <circle class="cls-25" cx="176.42" cy="314.48" r="8.19"/>
      <circle class="cls-16" cx="75.88" cy="314.48" r="8.19"/>
    </g>
    <g id="back-panel">
      <rect class="cls-7" x="251.41" y="282.41" width="80.17" height="66.3" rx="33.15" ry="33.15"/>
      <path class="cls-9" d="M291.49,282.41h6.93c18.3,0,33.15,14.85,33.15,33.15h0c0,18.3-14.85,33.15-33.15,33.15h-6.93v-66.3h0Z"/>
      <g id="back-rivets">
        <circle class="cls-24" cx="293.65" cy="295.34" r="8.19"/>
        <circle class="cls-8" cx="293.65" cy="336.94" r="8.19"/>
      </g>
    </g>
    <circle id="eyeball" class="cls-22" cx="108.34" cy="93.64" r="24.77"/>
    <circle id="pupil" class="cls-27" cx="108.34" cy="103.9" r="10.27"/>
    <path id="outer-eye" class="cls-21" d="M108.34,68.87c-13.68,0-24.77,11.09-24.77,24.77s11.09,24.77,24.77,24.77,24.77-11.09,24.77-24.77-11.09-24.77-24.77-24.77ZM108.34,114.8c-8.78,0-15.89-7.11-15.89-15.89s7.11-15.89,15.89-15.89,15.89,7.11,15.89,15.89-7.11,15.89-15.89,15.89Z"/>
  </g>
</svg>