<?xml version="1.0" encoding="UTF-8"?>
<svg id="Layer_2" data-name="Layer 2" xmlns="http://www.w3.org/2000/svg" viewBox="0 0 363.9 383.23">
  <defs>
    <style>
      .cls-1 {
        fill: #439100;
      }

      .cls-1, .cls-2, .cls-3, .cls-4, .cls-5, .cls-6, .cls-7, .cls-8, .cls-9, .cls-10, .cls-11, .cls-12, .cls-13, .cls-14, .cls-15, .cls-16 {
        stroke-miterlimit: 10;
      }

      .cls-1, .cls-4, .cls-6, .cls-11, .cls-15 {
        stroke: #010001;
      }

      .cls-2 {
        fill: #5775b2;
      }

      .cls-2, .cls-3, .cls-7, .cls-8, .cls-9, .cls-12, .cls-16 {
        stroke: #1c1b18;
      }

      .cls-2, .cls-16 {
        stroke-linecap: round;
        stroke-width: 2px;
      }

      .cls-3 {
        fill: #718dba;
      }

      .cls-4 {
        fill: #f68003;
      }

      .cls-5 {
        fill: #dbd3b8;
      }

      .cls-5, .cls-10, .cls-13, .cls-14 {
        stroke: #000;
      }

      .cls-6 {
        fill: #352230;
      }

      .cls-7 {
        fill: #fffefe;
      }

      .cls-17 {
        fill: #1c1b18;
      }

      .cls-8 {
        fill: #f0dfba;
      }

      .cls-18 {
        fill: #6b90be;
      }

      .cls-9 {
        fill: #7bb889;
      }

      .cls-10 {
        fill: #2e1d2d;
      }

      .cls-11, .cls-16 {
        fill: none;
      }

      .cls-12 {
        fill: #f68103;
      }

      .cls-13 {
        fill: #dccfb8;
      }

      .cls-19 {
        fill: #b8a6c1;
      }

      .cls-14 {
        fill: #fffffe;
      }

      .cls-15 {
        fill: #c1272d;
      }
    </style>
  </defs>
  <g id="spring-tung">
    <g id="blue-lip-balls">
      <g>
        <circle class="cls-3" cx="222.01" cy="12.89" r="12.39"/>
        <circle class="cls-17" cx="222.01" cy="12.89" r="6.67"/>
        <circle class="cls-19" cx="221.39" cy="10.2" r="1.09"/>
      </g>
      <g>
        <circle class="cls-3" cx="221.39" cy="98.98" r="12.39"/>
        <circle class="cls-17" cx="221.39" cy="98.98" r="6.67"/>
        <circle class="cls-19" cx="220.77" cy="101.66" r="1.09"/>
      </g>
    </g>
    <g id="tung">
      <rect class="cls-14" x="103.89" y="54.03" width="129.05" height="3.38" rx="1.69" ry="1.69"/>
      <circle class="cls-13" cx="229.34" cy="55.93" r="17.32"/>
    </g>
    <path id="neck-and-head" class="cls-9" d="M59.5,79.47h-6.27c-3.42,0-6.4-2.8-6.31-6.21.05-1.61.72-3.06,1.77-4.12,1.1-1.09,2.61-1.77,4.28-1.77h3.84v-3.04c0-19.53,15.84-35.37,35.37-35.37h.01c6.46,0,12.5,1.73,17.71,4.75,3.03,1.76,6.51,2.62,10.02,2.55,42.33-.88,85.21-10.72,110.64-25.56,2.62-1.52,5.99-.64,7.52,1.98,1.53,2.63.64,5.99-1.98,7.53-24.36,14.22-63.49,24.09-103.38,26.52-4.37.27-7.38,4.48-6.28,8.72.21.82.39,1.65.54,2.49.54,2.96,3.01,5.19,6.01,5.37,42.07,2.47,83.41,12.89,109.1,27.95,2.74,1.62,3.67,5.15,2.07,7.92-1.6,2.75-5.13,3.68-7.87,2.08-22.73-13.33-58.8-22.83-96.45-25.88-6.62-.54-12.28,4.72-12.28,11.36v162.93c0,.87.05,1.73.14,2.57.06.58.15,1.16.26,1.73.02.15.05.29.08.44.05.27.12.54.18.81.4,1.64.97,3.22,1.69,4.71.17.35.34.69.53,1.02.18.33.37.66.57.99.38.63.79,1.23,1.23,1.82.02.02.04.04.05.06.09.12.18.25.28.37.03.04.06.08.1.12.55.73,1.15,1.43,1.78,2.09,2.97,3.11,6.76,5.46,11.11,6.71h0c26.82,7.72,21.25,47.24-6.66,47.24h0c-43.85,0-79.4-35.55-79.4-79.4V79.47Z"/>
    <path id="body-behind-green" class="cls-9" d="M359.04,273.22h-207.93c-2.83,0-5.54-.5-8.06-1.42-10.9-3.97-23.14-2.81-32.39,4.2-2.27,1.72-4.38,3.63-6.31,5.71v101.01h252.11c3.83,0,6.94-3.11,6.94-6.94v-98.21c0-2.41-1.95-4.36-4.36-4.36Z"/>
    <line id="jet-lower" class="cls-16" x1="2.83" y1="357.63" x2="17.9" y2="357.63"/>
    <line id="jet-center" class="cls-16" x1="18.57" y1="369.81" x2="1" y2="369.81"/>
    <line id="jet-top" class="cls-16" x1="2.83" y1="381.32" x2="17.9" y2="381.32"/>
    <g id="jet-ball">
      <line class="cls-16" x1="51.3" y1="369.81" x2="28.34" y2="369.81"/>
      <path class="cls-2" d="M28.36,369.48c0,.11,0,.22-.02.33-.16,2.56-2.28,4.57-4.88,4.57s-4.73-2.01-4.89-4.57c-.02-.11-.02-.22-.02-.33,0-2.71,2.2-4.91,4.91-4.91s4.9,2.2,4.9,4.91Z"/>
    </g>
    <g id="jet-white">
      <rect class="cls-7" x="34.27" y="361.82" width="28.89" height="6.81" rx="3.41" ry="3.41"/>
      <rect class="cls-7" x="34.27" y="370.97" width="28.89" height="6.81" rx="3.41" ry="3.41"/>
    </g>
    <g id="body-layer-two">
      <path class="cls-4" d="M338.01,362.17h-201.51c-7.11,0-10.99-8.29-6.43-13.75l17.06-20.44h190.88v34.19Z"/>
      <rect class="cls-4" x="156.77" y="327.98" width="190.88" height="34.19"/>
      <g>
        <rect class="cls-4" x="191.96" y="327.98" width="50.61" height="34.19"/>
        <rect class="cls-4" x="234.45" y="327.98" width="50.61" height="34.19"/>
        <rect class="cls-15" x="272.3" y="327.98" width="50.61" height="34.19"/>
        <path class="cls-4" d="M346.31,362.17h-33.51v-34.19h33.51c9.44,0,9.44,34.19,0,34.19Z"/>
        <line class="cls-11" x1="159.66" y1="327.98" x2="137.27" y2="327.98"/>
        <circle class="cls-6" cx="132.85" cy="327.77" r="6.08"/>
      </g>
    </g>
    <path id="orange-body" class="cls-12" d="M363.4,277.58v98.21c0,3.83-3.11,6.94-6.94,6.94H104.35v-101.01c1.93-2.08,4.05-3.99,6.31-5.71,9.25-7.01,21.48-8.18,32.39-4.2,2.51.92,5.23,1.42,8.06,1.42h207.93c2.41,0,4.36,1.95,4.36,4.36ZM343.33,327.98h0c0-9.53-7.73-17.26-17.26-17.26h-190.22c-9.53,0-17.26,7.73-17.26,17.26h0c0,9.53,7.73,17.26,17.26,17.26h190.22c9.53,0,17.26-7.73,17.26-17.26Z"/>
    <circle id="eye" class="cls-8" cx="95.56" cy="58.84" r="21.76"/>
    <g id="pupil">
      <circle id="eye-2" data-name="eye" class="cls-18" cx="95.56" cy="58.84" r="14.33"/>
      <circle class="cls-5" cx="95.56" cy="58.84" r="9.62"/>
      <path class="cls-10" d="M95.56,58.84l-9.62-.04c.02-5.26,4.36-9.58,9.62-9.58s9.62,4.34,9.62,9.62h-9.62Z"/>
    </g>
    <path class="cls-1" d="M104.35,253.58v129.15h-51.36c-3.6,0-6.51-2.91-6.51-6.51v-11.99c0-2.43,1.97-4.41,4.41-4.41h0c4.76,0,8.61-3.86,8.61-8.61v-124.49s18,0,18,0c14.83,0,26.85,12.02,26.85,26.85Z"/>
  </g>
</svg>