<?xml version="1.0" encoding="UTF-8"?>
<svg id="Layer_2" data-name="Layer 2" xmlns="http://www.w3.org/2000/svg" viewBox="0 0 370.68 278.06">
  <defs>
    <style>
      .cls-1 {
        fill: none;
      }

      .cls-1, .cls-2, .cls-3, .cls-4, .cls-5, .cls-6, .cls-7, .cls-8, .cls-9, .cls-10, .cls-11, .cls-12, .cls-13 {
        stroke: #000;
        stroke-miterlimit: 10;
      }

      .cls-1, .cls-2, .cls-3, .cls-4, .cls-5, .cls-6, .cls-7, .cls-8, .cls-9, .cls-10, .cls-11, .cls-13 {
        stroke-linecap: round;
      }

      .cls-1, .cls-2, .cls-3, .cls-4, .cls-5, .cls-6, .cls-7, .cls-8, .cls-9, .cls-11, .cls-13 {
        stroke-width: 2px;
      }

      .cls-2 {
        fill: #f2ae1a;
      }

      .cls-3 {
        fill: #f2ae19;
      }

      .cls-4 {
        fill: #f4bfa4;
      }

      .cls-5 {
        fill: #696e98;
      }

      .cls-6 {
        fill: #e78504;
      }

      .cls-7 {
        fill: #f5caa7;
      }

      .cls-8 {
        fill: #69709a;
      }

      .cls-9 {
        fill: #639e9f;
      }

      .cls-10, .cls-12 {
        fill: #f2951a;
      }

      .cls-11 {
        fill: #f2b8a3;
      }

      .cls-14 {
        fill: #eec4a3;
      }

      .cls-13 {
        fill: #8fa864;
      }
    </style>
  </defs>
  <g id="wiggly-tooth">
    <g id="lower-scallop">
      <path class="cls-14" d="M199.01,263.43s.07.11.11.16h-80.54v-71.41h80.54c-30.51,16.16-27.11,33.29-.11,71.25Z"/>
      <path d="M199.01,263.43l-.2.16-3.95,3.15-2.51-3.15-33.07-41.54,37.52-29.87h2.32c-30.51,16.16-27.11,33.29-.11,71.25Z"/>
    </g>
    <circle id="orange-circle" class="cls-6" cx="282.72" cy="26.08" r="25.08"/>
    <circle id="blue-circle" class="cls-5" cx="344.6" cy="134.53" r="25.08"/>
    <g id="wt13">
      <path class="cls-12" d="M142.87,90.06v-15.14h-2.18v15.14c-2.36.5-4.14,2.6-4.14,5.11,0,2.89,2.34,5.23,5.23,5.23s5.23-2.34,5.23-5.23c0-2.51-1.77-4.61-4.14-5.11Z"/>
      <polyline class="cls-10" points="140.69 96.27 140.69 74.91 142.87 74.91 142.87 96.27"/>
    </g>
    <g id="wt12">
      <path class="cls-12" d="M157.49,90.06v-15.14h-2.18v15.14c-2.36.5-4.14,2.6-4.14,5.11,0,2.89,2.34,5.23,5.23,5.23s5.23-2.34,5.23-5.23c0-2.51-1.77-4.61-4.14-5.11Z"/>
      <polyline class="cls-10" points="155.31 96.27 155.31 74.91 157.49 74.91 157.49 96.27"/>
    </g>
    <g id="wt11">
      <path class="cls-12" d="M172.1,90.06v-15.14h-2.18v15.14c-2.36.5-4.14,2.6-4.14,5.11,0,2.89,2.34,5.23,5.23,5.23s5.23-2.34,5.23-5.23c0-2.51-1.77-4.61-4.14-5.11Z"/>
      <polyline class="cls-10" points="169.93 96.27 169.93 74.91 172.1 74.91 172.1 96.27"/>
    </g>
    <g id="wt10">
      <path class="cls-12" d="M186.72,90.06v-15.14h-2.18v15.14c-2.36.5-4.14,2.6-4.14,5.11,0,2.89,2.34,5.23,5.23,5.23s5.23-2.34,5.23-5.23c0-2.51-1.77-4.61-4.14-5.11Z"/>
      <polyline class="cls-10" points="184.54 96.27 184.54 74.91 186.72 74.91 186.72 96.27"/>
    </g>
    <g id="wt09">
      <path class="cls-12" d="M201.34,90.06v-15.14h-2.18v15.14c-2.36.5-4.14,2.6-4.14,5.11,0,2.89,2.34,5.23,5.23,5.23s5.23-2.34,5.23-5.23c0-2.51-1.77-4.61-4.14-5.11Z"/>
      <polyline class="cls-10" points="199.16 96.27 199.16 74.91 201.34 74.91 201.34 96.27"/>
    </g>
    <g id="wt08">
      <path class="cls-12" d="M215.96,90.06v-15.14h-2.18v15.14c-2.36.5-4.14,2.6-4.14,5.11,0,2.89,2.34,5.23,5.23,5.23s5.23-2.34,5.23-5.23c0-2.51-1.77-4.61-4.14-5.11Z"/>
      <polyline class="cls-10" points="213.78 96.27 213.78 74.91 215.96 74.91 215.96 96.27"/>
    </g>
    <g id="wt07">
      <path class="cls-12" d="M230.57,90.06v-15.14h-2.18v15.14c-2.36.5-4.14,2.6-4.14,5.11,0,2.89,2.34,5.23,5.23,5.23s5.23-2.34,5.23-5.23c0-2.51-1.77-4.61-4.14-5.11Z"/>
      <polyline class="cls-10" points="228.4 96.27 228.4 74.91 230.57 74.91 230.57 96.27"/>
    </g>
    <g id="wt06">
      <path class="cls-12" d="M245.19,90.06v-15.14h-2.18v15.14c-2.36.5-4.14,2.6-4.14,5.11,0,2.89,2.34,5.23,5.23,5.23s5.23-2.34,5.23-5.23c0-2.51-1.77-4.61-4.14-5.11Z"/>
      <polyline class="cls-10" points="243.01 96.27 243.01 74.91 245.19 74.91 245.19 96.27"/>
    </g>
    <g id="wt05">
      <path class="cls-12" d="M259.81,90.06v-15.14h-2.18v15.14c-2.36.5-4.14,2.6-4.14,5.11,0,2.89,2.34,5.23,5.23,5.23s5.23-2.34,5.23-5.23c0-2.51-1.77-4.61-4.14-5.11Z"/>
      <polyline class="cls-10" points="257.63 96.27 257.63 74.91 259.81 74.91 259.81 96.27"/>
    </g>
    <g id="wt04">
      <path class="cls-12" d="M274.43,90.06v-15.14h-2.18v15.14c-2.36.5-4.14,2.6-4.14,5.11,0,2.89,2.34,5.23,5.23,5.23s5.23-2.34,5.23-5.23c0-2.51-1.77-4.61-4.14-5.11Z"/>
      <polyline class="cls-10" points="272.25 96.27 272.25 74.91 274.43 74.91 274.43 96.27"/>
    </g>
    <g id="wt03">
      <path class="cls-12" d="M289.05,90.06v-15.14h-2.18v15.14c-2.36.5-4.14,2.6-4.14,5.11,0,2.89,2.34,5.23,5.23,5.23s5.23-2.34,5.23-5.23c0-2.51-1.77-4.61-4.14-5.11Z"/>
      <polyline class="cls-10" points="286.87 96.27 286.87 74.91 289.05 74.91 289.05 96.27"/>
    </g>
    <g id="wt02">
      <path class="cls-12" d="M303.66,90.06v-15.14h-2.18v15.14c-2.36.5-4.14,2.6-4.14,5.11,0,2.89,2.34,5.23,5.23,5.23s5.23-2.34,5.23-5.23c0-2.51-1.77-4.61-4.14-5.11Z"/>
      <polyline class="cls-10" points="301.49 96.27 301.49 74.91 303.66 74.91 303.66 96.27"/>
    </g>
    <g id="wt01">
      <path class="cls-12" d="M318.28,90.06v-15.14h-2.18v15.14c-2.36.5-4.14,2.6-4.14,5.11,0,2.89,2.34,5.23,5.23,5.23s5.23-2.34,5.23-5.23c0-2.51-1.77-4.61-4.14-5.11Z"/>
      <polyline class="cls-10" points="316.1 96.27 316.1 74.91 318.28 74.91 318.28 96.27"/>
    </g>
    <g id="lwt13">
      <path class="cls-12" d="M142.87,161.75v15.14h-2.18v-15.14c-2.36-.5-4.14-2.6-4.14-5.11,0-2.89,2.34-5.23,5.23-5.23s5.23,2.34,5.23,5.23c0,2.51-1.77,4.61-4.14,5.11Z"/>
      <polyline class="cls-10" points="140.69 155.54 140.69 176.9 142.87 176.9 142.87 155.54"/>
    </g>
    <g id="lwt12">
      <path class="cls-12" d="M157.49,161.75v15.14h-2.18v-15.14c-2.36-.5-4.14-2.6-4.14-5.11,0-2.89,2.34-5.23,5.23-5.23s5.23,2.34,5.23,5.23c0,2.51-1.77,4.61-4.14,5.11Z"/>
      <polyline class="cls-10" points="155.31 155.54 155.31 176.9 157.49 176.9 157.49 155.54"/>
    </g>
    <g id="lwt11">
      <path class="cls-12" d="M172.1,161.75v15.14h-2.18v-15.14c-2.36-.5-4.14-2.6-4.14-5.11,0-2.89,2.34-5.23,5.23-5.23s5.23,2.34,5.23,5.23c0,2.51-1.77,4.61-4.14,5.11Z"/>
      <polyline class="cls-10" points="169.93 155.54 169.93 176.9 172.1 176.9 172.1 155.54"/>
    </g>
    <g id="lwt10">
      <path class="cls-12" d="M186.72,161.75v15.14h-2.18v-15.14c-2.36-.5-4.14-2.6-4.14-5.11,0-2.89,2.34-5.23,5.23-5.23s5.23,2.34,5.23,5.23c0,2.51-1.77,4.61-4.14,5.11Z"/>
      <polyline class="cls-10" points="184.54 155.54 184.54 176.9 186.72 176.9 186.72 155.54"/>
    </g>
    <g id="lwt09">
      <path class="cls-12" d="M201.34,161.75v15.14h-2.18v-15.14c-2.36-.5-4.14-2.6-4.14-5.11,0-2.89,2.34-5.23,5.23-5.23s5.23,2.34,5.23,5.23c0,2.51-1.77,4.61-4.14,5.11Z"/>
      <polyline class="cls-10" points="199.16 155.54 199.16 176.9 201.34 176.9 201.34 155.54"/>
    </g>
    <g id="lwt08">
      <path class="cls-12" d="M215.96,161.75v15.14h-2.18v-15.14c-2.36-.5-4.14-2.6-4.14-5.11,0-2.89,2.34-5.23,5.23-5.23s5.23,2.34,5.23,5.23c0,2.51-1.77,4.61-4.14,5.11Z"/>
      <polyline class="cls-10" points="213.78 155.54 213.78 176.9 215.96 176.9 215.96 155.54"/>
    </g>
    <g id="lwt07">
      <path class="cls-12" d="M230.57,161.75v15.14h-2.18v-15.14c-2.36-.5-4.14-2.6-4.14-5.11,0-2.89,2.34-5.23,5.23-5.23s5.23,2.34,5.23,5.23c0,2.51-1.77,4.61-4.14,5.11Z"/>
      <polyline class="cls-10" points="228.4 155.54 228.4 176.9 230.57 176.9 230.57 155.54"/>
    </g>
    <g id="lwt06">
      <path class="cls-12" d="M245.19,161.75v15.14h-2.18v-15.14c-2.36-.5-4.14-2.6-4.14-5.11,0-2.89,2.34-5.23,5.23-5.23s5.23,2.34,5.23,5.23c0,2.51-1.77,4.61-4.14,5.11Z"/>
      <polyline class="cls-10" points="243.01 155.54 243.01 176.9 245.19 176.9 245.19 155.54"/>
    </g>
    <g id="lwt05">
      <path class="cls-12" d="M259.81,161.75v15.14h-2.18v-15.14c-2.36-.5-4.14-2.6-4.14-5.11,0-2.89,2.34-5.23,5.23-5.23s5.23,2.34,5.23,5.23c0,2.51-1.77,4.61-4.14,5.11Z"/>
      <polyline class="cls-10" points="257.63 155.54 257.63 176.9 259.81 176.9 259.81 155.54"/>
    </g>
    <g id="lwt04">
      <path class="cls-12" d="M274.43,161.75v15.14h-2.18v-15.14c-2.36-.5-4.14-2.6-4.14-5.11,0-2.89,2.34-5.23,5.23-5.23s5.23,2.34,5.23,5.23c0,2.51-1.77,4.61-4.14,5.11Z"/>
      <polyline class="cls-10" points="272.25 155.54 272.25 176.9 274.43 176.9 274.43 155.54"/>
    </g>
    <g id="lwt03">
      <path class="cls-12" d="M289.05,161.75v15.14h-2.18v-15.14c-2.36-.5-4.14-2.6-4.14-5.11,0-2.89,2.34-5.23,5.23-5.23s5.23,2.34,5.23,5.23c0,2.51-1.77,4.61-4.14,5.11Z"/>
      <polyline class="cls-10" points="286.87 155.54 286.87 176.9 289.05 176.9 289.05 155.54"/>
    </g>
    <g id="lwt02">
      <path class="cls-12" d="M303.66,161.75v15.14h-2.18v-15.14c-2.36-.5-4.14-2.6-4.14-5.11,0-2.89,2.34-5.23,5.23-5.23s5.23,2.34,5.23,5.23c0,2.51-1.77,4.61-4.14,5.11Z"/>
      <polyline class="cls-10" points="301.49 155.54 301.49 176.9 303.66 176.9 303.66 155.54"/>
    </g>
    <g id="lwt01">
      <path class="cls-12" d="M318.28,161.75v15.14h-2.18v-15.14c-2.36-.5-4.14-2.6-4.14-5.11,0-2.89,2.34-5.23,5.23-5.23s5.23,2.34,5.23,5.23c0,2.51-1.77,4.61-4.14,5.11Z"/>
      <polyline class="cls-10" points="316.1 155.54 316.1 176.9 318.28 176.9 318.28 155.54"/>
    </g>
    <g id="body">
      <path id="top-lip" class="cls-4" d="M333.34,68.34v1.55c0,3.59-2.91,6.5-6.5,6.5h-195.39c5.73-5.01,13.24-8.05,21.44-8.05h180.45Z"/>
      <path id="body-2" data-name="body" class="cls-2" d="M333.33,182.65c-.23,9.74-8.13,17.57-17.89,17.68h-124.02c-16.55.21-33.05,4.05-47.43,12.39-5.82,3.46-11.91,7.4-14.94,13.66-2.88,5.71-1.93,13.26,2.05,18.06,8.6,10.03,30.31,12.14,42.96,12.49h127.04c6.02,0,10.89,4.88,10.89,10.89v6.54c0,1.49-1.21,2.7-2.7,2.7H35.02c-1.49,0-2.69-1.2-2.69-2.69V108.76c0-24.36,14.28-45.38,34.93-55.14-1.48,2.15-2.35,4.76-2.35,7.57,0,4.2,1.7,8,4.45,10.75s6.54,4.45,10.74,4.45c19.13-10.74,36.71-13.24,51.35,0-6.83,5.97-11.14,14.75-11.14,24.53v49.15c0,10.01,4.51,18.96,11.61,24.93,5.67,4.77,12.99,7.65,20.97,7.65h180.44Z"/>
      <path id="bottom-lip" class="cls-11" d="M333.34,182.21c0,.15,0,.3-.01.44h-180.44c-7.98,0-15.3-2.88-20.97-7.65h194.21c1.99,0,3.79.81,5.1,2.11,1.3,1.31,2.11,3.11,2.11,5.1Z"/>
      <path id="top-jaw" class="cls-13" d="M333.34,64.19v4.15h-180.45c-16.38.73-23.58,11.24-29.31,16.25,1.2-11.93-23.68-13.17-29.02-2.52l-14.46-5.67c-4.2,0-7.99-1.7-10.74-4.45s-4.45-6.55-4.45-10.75c0-2.81.87-5.42,2.35-7.57,7.9-3.73,16.72-5.82,26.03-5.82h223.66c9.05,0,16.39,7.34,16.39,16.39Z"/>
      <path id="loopline" class="cls-3" d="M49.07,66.27c-4.73,9.76-6.48,16.87-6.16,27.7.32,10.83,4.69,21.87,13.17,28.61,3.86,3.07,9.44,7.85,12.88,11.39,6.34,6.54,10.1,18.82,6.37,28.33-.99,2.52-3.15,4.21-5.78,4.85-1.48.36-3.07-.35-4.08-1.48s-1.55-2.62-1.88-4.1c-1.16-5.16-.24-10.52.24-15.79s-1.15-14.67-3.98-19.14"/>
    </g>
    <circle id="eyeball" class="cls-7" cx="76.28" cy="82.47" r="18.28"/>
    <circle id="pupil" cx="76.28" cy="82.47" r="11.49"/>
    <line id="baseline" class="cls-1" x1="365.13" y1="277.06" x2="1" y2="277.06"/>
    <g id="body-circle">
      <g>
        <circle class="cls-8" cx="73.75" cy="225.31" r="20.8"/>
        <circle cx="73.75" cy="225.31" r="5.21"/>
      </g>
      <path class="cls-9" d="M112.75,199.84c4.99,6.52,15.32,13.13,24.39,15.04.73.15,1.33.5,1.79.96-3.13,2.45-7.73,6.64-10.64,11.36-14.05,6.45-29.1,7.06-38.93-3.57-7.8-8.43-10.4-27.05-3.01-33.07,8.91-7.25,19.42.16,26.4,9.28Z"/>
      <circle cx="101.87" cy="208.17" r="4.5"/>
      <path class="cls-3" d="M94.56,225.31c0,.86-.05,1.7-.16,2.53-1.79-1.13-3.48-2.53-5.04-4.21-3.88-4.2-6.47-10.92-7.19-17.35,7.3,3.23,12.39,10.54,12.39,19.03Z"/>
    </g>
  </g>
</svg>