<?xml version="1.0" encoding="UTF-8"?>
<svg xmlns="http://www.w3.org/2000/svg" xmlns:xlink="http://www.w3.org/1999/xlink" viewBox="0 0 235.98 364.97">
  <defs>
    <style>
      .cls-1, .cls-2, .cls-3, .cls-4 {
        fill: none;
      }

      .cls-5 {
        fill: #010000;
      }

      .cls-6 {
        fill: #599976;
      }

      .cls-6, .cls-7, .cls-2, .cls-8, .cls-9, .cls-10, .cls-11, .cls-12 {
        stroke-miterlimit: 10;
      }

      .cls-6, .cls-7, .cls-2, .cls-8, .cls-10, .cls-11, .cls-12 {
        stroke: #161311;
      }

      .cls-7, .cls-13 {
        fill: #fdf7e0;
      }

      .cls-14, .cls-15, .cls-3, .cls-16, .cls-4, .cls-17, .cls-18, .cls-19 {
        stroke: #010000;
        stroke-linejoin: round;
      }

      .cls-14, .cls-20 {
        fill: #f7f3e2;
      }

      .cls-15 {
        fill: #151311;
      }

      .cls-3 {
        stroke-linecap: round;
      }

      .cls-8 {
        fill: #89c4bc;
      }

      .cls-16 {
        fill: #fce6c9;
      }

      .cls-9 {
        fill: #f76a14;
        opacity: .34;
        stroke: #0e0e0e;
        stroke-width: 2px;
      }

      .cls-21 {
        isolation: isolate;
      }

      .cls-17 {
        fill: #5c9470;
      }

      .cls-22 {
        fill: #fffff8;
      }

      .cls-10 {
        fill: #fcb51e;
      }

      .cls-23 {
        fill: #ed9681;
      }

      .cls-23, .cls-24 {
        opacity: .56;
      }

      .cls-11 {
        fill: #ee9982;
      }

      .cls-25, .cls-19 {
        fill: #fcb61d;
      }

      .cls-18 {
        fill: #e7e1c2;
      }

      .cls-24 {
        fill: #5100ad;
        mix-blend-mode: saturation;
      }

      .cls-12 {
        fill: #161311;
      }

      .cls-26 {
        clip-path: url(#clippath);
      }
    </style>
    <clipPath id="clippath">
      <circle class="cls-7" cx="168.44" cy="227.72" r="9.65"/>
    </clipPath>
  </defs>
  <g class="cls-21">
    <g id="Layer_2" data-name="Layer 2">
      <g id="green-fish">
        <path id="tail-angel" class="cls-10" d="M87.42,196.02c-4.27-3.93-13.86-10.6-18.8-12.37-16.23-5.8-28.75-11.82-46.44-13.18-3.87-.3-10.52-.4-13.74,2.12-4.13,3.22-.25,7.25,3.06,9.13,3.66,2.07,1.16,5.5,2.72,8.34,1.72,3.12,5.93,3.03,9.12,3.13,2.68.08,5.8.73,6.94,3.04,1.11,2.26-.41,5.05-2.65,6.36s-4.98,1.49-7.6,1.65c-5.55.33-5.94.66-11.48.99-2.05.12-4.2.28-5.92,1.34s-2.76,3.38-1.67,5.03c1.05,1.59,3.36,1.79,5.34,1.82,4.39.06,3.68.4,8.03.33,1.69-.03,3.43-.02,4.99.6s2.9,2.01,2.88,3.62c-.02,2.19-2.32,3.61-3.88,5.23-2.69,2.8-3.34,6.45-.66,9.42s6.45,1.87,10.19,2.82c2.56.65,5.02,2.05,6.31,4.25,1.2,2.04,1.27,4.5,1.3,6.84.05,3.49.37,7.34-.09,10.8s-3.26,6.72-5.17,9.71c-5.18,8.12-10.37,16.24-15.55,24.35-1.55,2.42-3.13,4.93-3.52,7.73-.72,5.07,3.16,10.36,8.42,11.47,6.73,1.42,11.83-4.2,15.88-8.46,5.15-5.43,8.73-12.17,15.47-16.11,5.24-3.39,11.7-4.76,17.03-7.74,6.09-3.57,11.95-8.95,15.26-14.93,3.7-9.2-8.87-5.04-14.39-6.54-5.16-1.05-9.59-6.19-9.11-11,.27-4.78,5.06-7.85,9.52-9.59,7.34-2.67,15.2-5.74,19.23-12.59,4.1-6.51,5.13-15.67,2.39-22.84-.69-1.79-1.88-3.36-3.39-4.75Z"/>
        <path id="tail-fin" class="cls-8" d="M40.48,225.88h69.58c1.86,0,3.28-1.68,2.96-3.52l-2.39-13.69c-1.23-7.06-7.36-12.21-14.52-12.21h-59.71c-1.86,0-3.28,1.68-2.96,3.52l4.09,23.42c.25,1.44,1.5,2.48,2.96,2.48Z"/>
        <path id="body" class="cls-6" d="M77.95,205.42h83.17c19.24,0,34.85,15.62,34.85,34.85h0c0,19.24-15.62,34.85-34.85,34.85H57.77c-3.36,0-6.09-2.73-6.09-6.09v-37.35c0-14.5,11.77-26.27,26.27-26.27Z"/>
        <rect id="fin" class="cls-11" x="116.23" y="248.6" width="33.74" height="15.36" rx="7.67" ry="7.67" transform="translate(-138.47 158.08) rotate(-42.67)"/>
        <g id="eye">
          <circle class="cls-13" cx="168.44" cy="227.72" r="9.65"/>
          <g class="cls-26">
            <circle class="cls-12" cx="176.74" cy="230.62" r="12.55"/>
            <circle class="cls-22" cx="170.75" cy="229.3" r="1.11"/>
            <circle class="cls-22" cx="168.83" cy="226.91" r=".78"/>
          </g>
          <circle class="cls-2" cx="168.44" cy="227.72" r="9.65"/>
        </g>
      </g>
      <g id="yellow-toof">
        <path id="fire" class="cls-23" d="M218.16,57.81c-2.88-.05-6.39-.08-10.44-.08-11.01,0-23.6.2-27.26.3,0,0-.12,0-.16,0-.58-.08-2.22-.2-2.63-.23-.24-.02-26.86-1.98-52.27-3.6-.54-.03-.95-.49-.94-1.03.02-.54.46-.97,1-.97h60.93s.08,0,.12,0l7.46-.7c.31-.03.52-.26.52-.57s-.21-.54-.52-.57l-7.46-.7s-.08,0-.12,0l-68.65-.5c-.55,0-1-.45-.99-1,0-.55.45-1,1-1h51.05s7.83-.95,7.83-.95c.18-.02.29-.15.29-.33s-.12-.31-.29-.33l-7.9-.95-54.84-1.23c-.55-.01-.98-.46-.98-1.01s.45-.99,1-.99h54.37s.08,0,.12,0l1.97-.24c.54-.06.92-.49.92-1.03s-.38-.97-.92-1.03l-1.98-.24s-.08,0-.12,0c0,0-13.14-.01-18.91-.01-4.66,0-9.64,0-15.2.01-1.33,0-2.63-.22-3.88-.67-1.84-.65-3.75-.98-5.7-.98-.17,0-.34,0-.5,0,0,0-12.11.36-12.12.36-.52,0-.96-.4-1-.92-.04-.53.34-1,.88-1.07,8.35-1.03,22.41-1.1,36.03-1.17,3.39-.02,6.78-.04,10.17-.07l5.26-.63c.33-.04.57-.3.57-.64s-.23-.6-.57-.64l-4.98-.6c-.52-.06-.91-.52-.88-1.05.03-.53.47-.94,1-.94h9.12s3.93-.48,3.93-.48c.42-.05.71-.38.71-.8s-.29-.75-.71-.8l-3.92-.47h-.11s-40.32,0-40.32,0c-.53,0-.97-.41-1-.94-.03-.53.35-.99.88-1.05,7.04-.85,11.54-1.53,13.37-2.02.08-.02.17-.03.26-.03.16,0,.32.04.47.12.51.27.88.4,1.13.4.13,0,.22-.03.28-.1.04-.05.09-.12.11-.31.04-.44.36-.81.8-.9.21-.04.25-.23.26-.34.02-.45-.45-1.26-.82-1.28,0,0-2.33-.17-2.38-.18h-.11c-8.16,1.82-15.55,3.13-21.95,3.9-.04,0-.08,0-.12,0-.44,0-.83-.26-1.02-.68-.18-.41-.1-.87.21-1.21.8-.87,2.94-3.19,3.02-3.71-.01-.02-.06-.05-.08-.05-1.82.14-5.38,1.71-8.83,3.24-1.79.79-3.37,1.47-4.73,2.01-2.15-7.91-5.86-15.15-10.9-20.99l-28.83,37.19,29.15,36.81c2.35-2.79,4.4-5.89,6.13-9.21,5.75.99,12.76,1.57,19.44,1.57,21.24,0,23.72-4.96,23.8-7.09-3.66.21-7.3.31-10.82.31-8.69,0-14.72-.64-17.54-1.02-.49-.07-.86-.49-.87-.99,0-.5.37-.92.86-.99,5.59-.78,13.83-1.23,22.59-1.23,6.83,0,12.93.29,16.74.79.44.06.79.4.86.84.07.44-.16.87-.57,1.06-.74.34-1.46.73-2.15,1.14l13.89,3.79-.02-.28c-.17-2.16-1.5-3.69-4.21-4.8-.42-.18-.67-.62-.61-1.07s.43-.8.89-.85c.95-.09,1.93-.14,2.91-.14,6.78,0,14.7,2.12,24.22,6.47.07,0,.27-.02.34-.18.2-.43-.66-1.54-1.57-2.71-.29-.38-.69-.9-1-1.34-.21-.3-.24-.7-.07-1.03s.5-.54.87-.54l27.67-.5c.36,0,.61-.25.63-.6.01-.37-.24-.62-.58-.65ZM141.16,30.67c.05-.51.48-.9,1-.9h13.89c.55,0,.99.44,1,.99,0,.55-.43,1-.98,1.01l-12.27.29c-.49.05-.92.08-1.28.08-.23,0-.41-.01-.56-.02-.31-.03-.57-.25-.73-.52s-.17-.64-.06-.93ZM120.25,29.76h8.03c.52,0,.95.4,1,.92.04.52-.32.98-.83,1.07l-4.54.76c-.05,0-.11.01-.16.01-.07,0-.14,0-.21-.02l-3.49-.76c-.5-.11-.84-.58-.78-1.08.05-.51.48-.89.99-.89ZM112.49,29.76c.52,0,.96.4,1,.92s-.33.98-.84,1.06l-4.11.64c-.11-.88-.24-1.75-.39-2.62h4.35ZM108.14,53.95l-.89,1.06c.22-.91.42-1.82.6-2.75.26.1.48.31.58.58.14.39.03.84-.29,1.11ZM121.07,54.1c-.16.07-.3.16-.45.24-.42.24-.57.32-.75.36-.08.02-.15.03-.23.03-.02,0-.04,0-.06,0-2.76-.18-5.48-.36-8.12-.54-.54-.04-.95-.49-.93-1.03.02-.54.46-.97,1-.97h9.13c.47,0,.88.33.98.78.1.46-.13.93-.56,1.12Z"/>
        <path id="fire-2" data-name="fire" class="cls-24" d="M218.16,58.83c-2.88-.05-6.39-.08-10.44-.08-11.01,0-23.6.2-27.26.3,0,0-.12,0-.16,0-.58-.08-2.22-.2-2.63-.23-.24-.02-26.86-1.98-52.27-3.6-.54-.03-.95-.49-.94-1.03.02-.54.46-.97,1-.97h60.93s.08,0,.12,0l7.46-.7c.31-.03.52-.26.52-.57s-.21-.54-.52-.57l-7.46-.7s-.08,0-.12,0l-68.65-.5c-.55,0-1-.45-.99-1,0-.55.45-1,1-1h51.05s7.83-.95,7.83-.95c.18-.02.29-.15.29-.33s-.12-.31-.29-.33l-7.9-.95-54.84-1.23c-.55-.01-.98-.46-.98-1.01s.45-.99,1-.99h54.37s.08,0,.12,0l1.97-.24c.54-.06.92-.49.92-1.03s-.38-.97-.92-1.03l-1.98-.24s-.08,0-.12,0c0,0-13.14-.01-18.91-.01-4.66,0-9.64,0-15.2.01-1.33,0-2.63-.22-3.88-.67-1.84-.65-3.75-.98-5.7-.98-.17,0-.34,0-.5,0,0,0-12.11.36-12.12.36-.52,0-.96-.4-1-.92-.04-.53.34-1,.88-1.07,8.35-1.03,22.41-1.1,36.03-1.17,3.39-.02,6.78-.04,10.17-.07l5.26-.63c.33-.04.57-.3.57-.64s-.23-.6-.57-.64l-4.98-.6c-.52-.06-.91-.52-.88-1.05.03-.53.47-.94,1-.94h9.12s3.93-.48,3.93-.48c.42-.05.71-.38.71-.8s-.29-.75-.71-.8l-3.92-.47h-.11s-40.32,0-40.32,0c-.53,0-.97-.41-1-.94-.03-.53.35-.99.88-1.05,7.04-.85,11.54-1.53,13.37-2.02.08-.02.17-.03.26-.03.16,0,.32.04.47.12.51.27.88.4,1.13.4.13,0,.22-.03.28-.1.04-.05.09-.12.11-.31.04-.44.36-.81.8-.9.21-.04.25-.23.26-.34.02-.45-.45-1.26-.82-1.28,0,0-2.33-.17-2.38-.18h-.11c-8.16,1.82-15.55,3.13-21.95,3.9-.04,0-.08,0-.12,0-.44,0-.83-.26-1.02-.68-.18-.41-.1-.87.21-1.21.8-.87,2.94-3.19,3.02-3.71-.01-.02-.06-.05-.08-.05-1.82.14-5.38,1.71-8.83,3.24-1.79.79-3.37,1.47-4.73,2.01-2.15-7.91-5.86-15.15-10.9-20.99l-28.83,37.19,29.15,36.81c2.35-2.79,4.4-5.89,6.13-9.21,5.75.99,12.76,1.57,19.44,1.57,21.24,0,23.72-4.96,23.8-7.09-3.66.21-7.3.31-10.82.31-8.69,0-14.72-.64-17.54-1.02-.49-.07-.86-.49-.87-.99,0-.5.37-.92.86-.99,5.59-.78,13.83-1.23,22.59-1.23,6.83,0,12.93.29,16.74.79.44.06.79.4.86.84.07.44-.16.87-.57,1.06-.74.34-1.46.73-2.15,1.14l13.89,3.79-.02-.28c-.17-2.16-1.5-3.69-4.21-4.8-.42-.18-.67-.62-.61-1.07s.43-.8.89-.85c.95-.09,1.93-.14,2.91-.14,6.78,0,14.7,2.12,24.22,6.47.07,0,.27-.02.34-.18.2-.43-.66-1.54-1.57-2.71-.29-.38-.69-.9-1-1.34-.21-.3-.24-.7-.07-1.03s.5-.54.87-.54l27.67-.5c.36,0,.61-.25.63-.6.01-.37-.24-.62-.58-.65ZM141.16,31.69c.05-.51.48-.9,1-.9h13.89c.55,0,.99.44,1,.99,0,.55-.43,1-.98,1.01l-12.27.29c-.49.05-.92.08-1.28.08-.23,0-.41-.01-.56-.02-.31-.03-.57-.25-.73-.52s-.17-.64-.06-.93ZM120.25,30.79h8.03c.52,0,.95.4,1,.92.04.52-.32.98-.83,1.07l-4.54.76c-.05,0-.11.01-.16.01-.07,0-.14,0-.21-.02l-3.49-.76c-.5-.11-.84-.58-.78-1.08.05-.51.48-.89.99-.89ZM112.49,30.79c.52,0,.96.4,1,.92s-.33.98-.84,1.06l-4.11.64c-.11-.88-.24-1.75-.39-2.62h4.35ZM108.14,54.98l-.89,1.06c.22-.91.42-1.82.6-2.75.26.1.48.31.58.58.14.39.03.84-.29,1.11ZM121.07,55.13c-.16.07-.3.16-.45.24-.42.24-.57.32-.75.36-.08.02-.15.03-.23.03-.02,0-.04,0-.06,0-2.76-.18-5.48-.36-8.12-.54-.54-.04-.95-.49-.93-1.03.02-.54.46-.97,1-.97h9.13c.47,0,.88.33.98.78.1.46-.13.93-.56,1.12Z"/>
        <path id="tongue" class="cls-9" d="M38.68,40.26l44.33-24.62c3.47-1.93,7.82-.71,9.84,2.71,7.74,13.06,6.73,28.7-1.72,41.9-2.02,3.15-6.14,4.18-9.46,2.45l-43-22.44Z"/>
        <g id="upper-teeth">
          <path class="cls-18" d="M101.47,31.11l-5.94-9.85c-1.57-2.61.27-5.94,3.31-6l11.5-.22c3.04-.06,5.01,3.2,3.54,5.87l-5.56,10.07c-1.47,2.66-5.28,2.74-6.85.13Z"/>
          <path class="cls-18" d="M124.13,31.11l-5.94-9.85c-1.57-2.61.27-5.94,3.31-6l11.5-.22c3.04-.06,5.01,3.2,3.54,5.87l-5.56,10.07c-1.47,2.66-5.28,2.74-6.85.13Z"/>
          <path class="cls-18" d="M148.25,31.11l-5.94-9.85c-1.57-2.61.27-5.94,3.31-6l11.5-.22c3.04-.06,5.01,3.2,3.54,5.87l-5.56,10.07c-1.47,2.66-5.28,2.74-6.85.13Z"/>
          <path class="cls-18" d="M172.38,31.11l-5.94-9.85c-1.57-2.61.27-5.94,3.31-6l11.5-.22c3.04-.06,5.01,3.2,3.54,5.87l-5.56,10.07c-1.47,2.66-5.28,2.74-6.85.13Z"/>
          <path class="cls-18" d="M196.51,31.11l-5.94-9.85c-1.57-2.61.27-5.94,3.31-6l11.5-.22c3.04-.06,5.01,3.2,3.54,5.87l-5.56,10.07c-1.47,2.66-5.28,2.74-6.85.13Z"/>
          <path class="cls-18" d="M220.63,31.11l-5.94-9.85c-1.57-2.61.27-5.94,3.31-6l11.5-.22c3.04-.06,5.01,3.2,3.54,5.87l-5.56,10.07c-1.47,2.66-5.28,2.74-6.85.13Z"/>
        </g>
        <g id="foot-spikes">
          <path class="cls-1" d="M143.12,285.6c17.72,5.32,32.59,11.17,40,18.57,10.16,10.15,12.85,17.64,12.85,33.14"/>
          <path class="cls-18" d="M146.7,282.68l-5.35,4.93c-.77.71-.48,1.99.52,2.31l6.95,2.17c1,.31,1.97-.58,1.74-1.6l-1.6-7.1c-.23-1.03-1.48-1.42-2.26-.7Z"/>
          <path class="cls-18" d="M161.25,287.61l-5.67,4.56c-.82.66-.62,1.96.36,2.34l6.78,2.63c.98.38,2-.44,1.84-1.48l-1.12-7.19c-.16-1.04-1.39-1.51-2.21-.85Z"/>
          <path class="cls-18" d="M175.54,294.04l-6.29,3.65c-.91.53-.91,1.84,0,2.37l6.31,3.62c.91.52,2.05-.14,2.05-1.19l-.02-7.28c0-1.05-1.14-1.71-2.05-1.18Z"/>
          <path class="cls-18" d="M188.36,304.08l-7.13,1.44c-1.03.21-1.45,1.45-.75,2.24l4.81,5.46c.7.79,1.98.53,2.32-.47l2.32-6.9c.34-1-.53-1.98-1.56-1.77Z"/>
          <path class="cls-18" d="M196.76,316.26l-7.26-.45c-1.05-.06-1.78,1.03-1.31,1.97l3.24,6.51c.47.94,1.78,1.02,2.36.15l4.02-6.06c.58-.88,0-2.05-1.05-2.12Z"/>
        </g>
        <g id="lower-teeth">
          <path class="cls-18" d="M101.51,55.68l-5.96,9.84c-1.58,2.6.25,5.94,3.3,6l11.5.24c3.04.06,5.02-3.19,3.55-5.86l-5.54-10.08c-1.47-2.67-5.27-2.75-6.85-.15Z"/>
          <path class="cls-18" d="M124.17,55.74l-5.96,9.84c-1.58,2.6.25,5.94,3.3,6l11.5.24c3.04.06,5.02-3.19,3.55-5.86l-5.54-10.08c-1.47-2.67-5.27-2.75-6.85-.15Z"/>
          <path class="cls-18" d="M148.29,55.8l-5.96,9.84c-1.58,2.6.25,5.94,3.3,6l11.5.24c3.04.06,5.02-3.19,3.55-5.86l-5.54-10.08c-1.47-2.67-5.27-2.75-6.85-.15Z"/>
          <path class="cls-18" d="M172.42,55.86l-5.96,9.84c-1.58,2.6.25,5.94,3.3,6l11.5.24c3.04.06,5.02-3.19,3.55-5.86l-5.54-10.08c-1.47-2.67-5.27-2.75-6.85-.15Z"/>
          <path class="cls-18" d="M196.54,55.92l-5.96,9.84c-1.58,2.6.25,5.94,3.3,6l11.5.24c3.04.06,5.02-3.19,3.55-5.86l-5.54-10.08c-1.47-2.67-5.27-2.75-6.85-.15Z"/>
          <path class="cls-18" d="M220.67,55.98l-5.96,9.84c-1.58,2.6.25,5.94,3.3,6l11.5.24c3.04.06,5.02-3.19,3.55-5.86l-5.54-10.08c-1.47-2.67-5.27-2.75-6.85-.15Z"/>
        </g>
        <path id="Jaw" class="cls-19" d="M58.7,83.35c6.07,7.83,17.09,9.51,25.38,4.1,3.18-2.08,6.99-3.28,11.08-3.27l126.68.32c7.51.02,13.62-6.06,13.64-13.57v-.33c0-1.38-1.11-2.49-2.48-2.5l-126.42-.32c-6.7-.02-13.92-2.75-18.29-7.16-.43-.43-.84-.88-1.24-1.34-6.17-7.19-15.58-8.63-23.48-3.4l-.36.24c-9.14,6.04-11.21,18.58-4.5,27.24h0Z"/>
        <g>
          <path class="cls-25" d="M87.83,62.67c-3.27,4.09-3.86,20.76-5.06,25.72-4.73,3.69-7.76,9.44-7.76,15.9,0,3.38.83,6.57,2.31,9.37.88,1.68-.28,3.69-2.18,3.69h-15.31c-1.38,0-2.49,1.11-2.49,2.49v2.31c0,.31.06.62.17.91l6.93,17.53c.64,1.63-.56,3.4-2.32,3.4h-9.15c-1.38,0-2.49,1.11-2.49,2.49v135.83c0,12.02,9.75,21.77,21.77,21.77h27.47c8.09,0,25-7.36,34.21-14.82,2.55-2.06,5.97-2.71,9.11-1.77,17.07,5.13,31.4,10.76,38.54,17.89,9.79,9.78,12.38,17,12.38,31.93,0,7.5-3.04,14.29-7.95,19.21-4.92,4.91-11.71,7.95-19.21,7.95h-98.56c-.59,0-1.16-.21-1.6-.58l-13.78-11.55v3.09c0,4.87-3.98,9.1-8.85,9.04-2.36-.03-4.5-1.01-6.05-2.56-1.57-1.58-2.55-3.76-2.55-6.17,0,4.82-3.91,8.73-8.73,8.73-2.41,0-4.59-.98-6.17-2.56-1.58-1.58-2.55-3.76-2.55-6.17,0,4.82-3.91,8.73-8.73,8.73-2.41,0-4.59-.98-6.17-2.56-1.58-1.58-2.56-3.76-2.56-6.17V33.69C.5,15.36,15.36.5,33.69.5h188.18c7.51,0,13.61,6.09,13.61,13.61v2.55c0,1.38-1.11,2.49-2.49,2.49h-126.42c-13.41,0-24.27,10.87-24.27,24.27,0,5.91,2.11,12.24,5.62,16.67.6.76.52,1.82-.09,2.58Z"/>
          <path class="cls-3" d="M82.77,88.39c-4.73,3.69-7.76,9.44-7.76,15.9,0,3.38.83,6.57,2.31,9.37.88,1.68-.28,3.69-2.18,3.69h-15.31c-1.38,0-2.49,1.11-2.49,2.49v2.31c0,.31.06.62.17.91l6.93,17.53c.64,1.63-.56,3.4-2.32,3.4h-9.15c-1.38,0-2.49,1.11-2.49,2.49v135.83c0,12.02,9.75,21.77,21.77,21.77h27.47c8.09,0,25-7.36,34.21-14.82,2.55-2.06,5.97-2.71,9.11-1.77,17.07,5.13,31.4,10.76,38.54,17.89,9.79,9.78,12.38,17,12.38,31.93,0,7.5-3.04,14.29-7.95,19.21-4.92,4.91-11.71,7.95-19.21,7.95h-98.56c-.59,0-1.16-.21-1.6-.58l-13.78-11.55v3.09c0,4.87-3.98,9.1-8.85,9.04-2.36-.03-4.5-1.01-6.05-2.56-1.57-1.58-2.55-3.76-2.55-6.17,0,4.82-3.91,8.73-8.73,8.73-2.41,0-4.59-.98-6.17-2.56-1.58-1.58-2.55-3.76-2.55-6.17,0,4.82-3.91,8.73-8.73,8.73-2.41,0-4.59-.98-6.17-2.56-1.58-1.58-2.56-3.76-2.56-6.17V33.69C.5,15.36,15.36.5,33.69.5h188.18c7.51,0,13.61,6.09,13.61,13.61v2.55c0,1.38-1.11,2.49-2.49,2.49h-126.42c-13.41,0-24.27,10.87-24.27,24.27,0,6.7,2.26,13.43,6.66,17.82"/>
          <path class="cls-4" d="M35.41,353v2.74c0,4.82-3.91,8.73-8.73,8.73-2.41,0-4.59-.98-6.17-2.56s-2.55-3.76-2.55-6.17v-2.74"/>
          <path class="cls-4" d="M52.86,353v2.74c0,4.82-3.91,8.73-8.73,8.73-2.41,0-4.59-.98-6.17-2.56-1.57-1.58-2.55-3.76-2.55-6.17v-2.74"/>
          <path class="cls-4" d="M17.96,353v2.74c0,4.82-3.91,8.73-8.73,8.73-2.41,0-4.59-.98-6.17-2.56s-2.56-3.76-2.56-6.17v-2.74"/>
          <path class="cls-3" d="M68.24,364.47c-.71-13.92,7.55-21.57,15.14-24.82"/>
          <g>
            <path class="cls-5" d="M27.46,145.77c.84,13.53.4,34.1.5,47.85-.1,13.8.33,34.24-.5,47.85-.83-13.53-.41-34.1-.5-47.85.1-13.8-.34-34.24.5-47.85h0Z"/>
            <path class="cls-5" d="M40.09,132.42c.84,8.16.4,20.59.5,28.9-.09,8.34.33,20.69-.5,28.9-.83-8.16-.41-20.59-.5-28.9.1-8.34-.34-20.69.5-28.9h0Z"/>
          </g>
        </g>
        <g id="eye-ring">
          <path class="cls-5" d="M51.17,17.79c13.38,3.15,23.89,16.84,21.16,30.8-2.47,14.02-16.74,23.09-30.39,22.77-22.71-.01-39.15-23.04-24.85-42.88,4.2-5.45,10.26-9.34,16.85-10.85-6.51,1.84-12.26,5.99-16.05,11.45-13.82,19.17,2.15,41.28,24.05,41.29,21.82.4,38.37-21.34,25.03-40.8-3.68-5.53-9.33-9.8-15.8-11.77h0Z"/>
        </g>
        <ellipse id="eye-2" data-name="eye" class="cls-16" cx="42.25" cy="44.26" rx="24.89" ry="21.83"/>
        <g id="pupil">
          <circle class="cls-17" cx="42.25" cy="44.26" r="14.79"/>
          <circle class="cls-15" cx="42.25" cy="44.26" r="9.43"/>
          <circle class="cls-14" cx="42.25" cy="44.26" r="1.88"/>
          <circle class="cls-20" cx="38.68" cy="40.91" r=".64"/>
        </g>
      </g>
    </g>
  </g>
</svg>